{
DisplayStrings = (
z
);
copyright = TVSA;
customParameters = (
{
name = glyphOrder;
value = (
    ".notdef",
    televisa,
    pinterest,
    "rain_sun",
    "thunder_moon",
    "snow_moon",
    "rain_moon",
    wind,
    sun,
    "cloud_sun",
    cloud,
    thunder,
    snow,
    rain,
    moon,
    "cloud_moon",
    music,
    headphones,
    "headphones_play",
    videocamera,
    video,
    camera,
    images,
    twitterfacebook,
    like,
    instagram,
    error,
    warn,
    success,
    help,
    info,
    "eye_alt",
    hash,
    bell,
    cog,
    alarm,
    clock,
    eye,
    search,
    mic,
    feed,
    podcast,
    calendar,
    comments,
    "comments_play",
    home,
    email,
    inbox,
    "caret_up",
    "caret_down",
    "caret_right",
    "caret_left",
    "caret_right_double",
    "caret_left_double",
    "map_marker",
    "traffic_stop",
    "traffic_circle",
    "volume_mute",
    "volume_min",
    "volume_medium",
    "volume_max",
    previous,
    rewind,
    pause,
    play,
    forward,
    next,
    fullscreen,
    minimize,
    download,
    expand,
    contract,
    replay,
    "digital_tv",
    tablet,
    mobile,
    spinner,
    popout
);
}
);
date = "2013-04-29 16:50:23 +0000";
designer = "Erik P\U00F6hler";
familyName = "TVSA";
fontMaster = (
{
alignmentZones = (
"{1344, 27}",
"{0, -27}"
);
ascender = 1536;
capHeight = 1792;
customParameters = (
{
name = TypoAscender;
value = 1536;
},
{
name = TypoDescender;
value = "-256";
},
{
name = postscriptUnderlinePosition;
value = "-179";
}
);
descender = "-256";
horizontalStems = (
128,
256
);
id = "E8902836-E278-4207-B18F-2ADDB08A6CA3";
verticalStems = (
128,
256
);
weightValue = 400;
widthValue = 5;
xHeight = 1792;
}
);
glyphs = (
{
glyphname = .notdef;
lastChange = "2013-04-29 11:57:21 -0500";
layers = (
{
layerId = "E8902836-E278-4207-B18F-2ADDB08A6CA3";
name = Regular;
paths = (
{
closed = 1;
nodes = (
"224 1424 LINE",
"672 1424 LINE",
"672 112 LINE",
"224 112 LINE"
);
},
{
closed = 1;
nodes = (
"784 0 LINE",
"784 1536 LINE",
"112 1536 LINE",
"112 0 LINE"
);
}
);
width = 896;
}
);
},
{
glyphname = televisa;
lastChange = "2013-04-29 16:23:15 -0500";
layers = (
{
layerId = "E8902836-E278-4207-B18F-2ADDB08A6CA3";
name = Regular;
paths = (
{
closed = 1;
nodes = (
"1151 1660 OFFCURVE",
"999 1636 OFFCURVE",
"860 1595 CURVE",
"1769 1595 LINE",
"1630 1636 OFFCURVE",
"1479 1660 OFFCURVE",
"1315 1660 CURVE SMOOTH"
);
},
{
closed = 1;
nodes = (
"533 1463 OFFCURVE",
"488 1438 OFFCURVE",
"446 1413 CURVE",
"883 1413 LINE",
"921 1441 OFFCURVE",
"961 1466 OFFCURVE",
"1004 1486 CURVE",
"579 1486 LINE"
);
},
{
closed = 1;
nodes = (
"2140 1438 OFFCURVE",
"2095 1463 OFFCURVE",
"2049 1486 CURVE",
"1627 1486 LINE",
"1670 1466 OFFCURVE",
"1710 1441 OFFCURVE",
"1747 1413 CURVE",
"2182 1413 LINE"
);
},
{
closed = 1;
nodes = (
"2414 1244 OFFCURVE",
"2370 1282 OFFCURVE",
"2322 1318 CURVE",
"1850 1318 LINE",
"1882 1283 OFFCURVE",
"1910 1245 OFFCURVE",
"1935 1203 CURVE",
"2453 1203 LINE"
);
},
{
closed = 1;
nodes = (
"259 1282 OFFCURVE",
"215 1244 OFFCURVE",
"177 1203 CURVE",
"696 1203 LINE",
"721 1245 OFFCURVE",
"749 1283 OFFCURVE",
"781 1318 CURVE",
"307 1318 LINE"
);
},
{
closed = 1;
nodes = (
"73 1072 OFFCURVE",
"45 1017 OFFCURVE",
"28 958 CURVE",
"606 958 LINE",
"616 1016 OFFCURVE",
"633 1072 OFFCURVE",
"655 1124 CURVE",
"110 1124 LINE"
);
},
{
closed = 1;
nodes = (
"2586 1017 OFFCURVE",
"2558 1072 OFFCURVE",
"2520 1124 CURVE",
"1975 1124 LINE",
"1998 1072 OFFCURVE",
"2015 1016 OFFCURVE",
"2025 958 CURVE",
"2603 958 LINE"
);
},
{
closed = 1;
nodes = (
"13 886 LINE",
"11 868 OFFCURVE",
"10 850 OFFCURVE",
"10 832 CURVE SMOOTH",
"10 790 OFFCURVE",
"15 750 OFFCURVE",
"26 711 CURVE",
"604 711 LINE",
"598 750 OFFCURVE",
"594 791 OFFCURVE",
"594 832 CURVE SMOOTH",
"594 850 OFFCURVE",
"595 868 OFFCURVE",
"597 886 CURVE"
);
},
{
closed = 1;
nodes = (
"2605 711 LINE",
"2616 750 OFFCURVE",
"2621 790 OFFCURVE",
"2621 832 CURVE SMOOTH",
"2621 850 OFFCURVE",
"2620 868 OFFCURVE",
"2618 886 CURVE",
"2034 886 LINE",
"2035 868 OFFCURVE",
"2036 850 OFFCURVE",
"2036 832 CURVE SMOOTH",
"2036 791 OFFCURVE",
"2033 750 OFFCURVE",
"2026 711 CURVE"
);
},
{
closed = 1;
nodes = (
"74 587 OFFCURVE",
"116 525 OFFCURVE",
"169 468 CURVE",
"691 468 LINE",
"659 525 OFFCURVE",
"633 587 OFFCURVE",
"617 652 CURVE",
"46 652 LINE"
);
},
{
closed = 1;
nodes = (
"2515 525 OFFCURVE",
"2557 587 OFFCURVE",
"2585 652 CURVE",
"2014 652 LINE",
"1997 587 OFFCURVE",
"1972 525 OFFCURVE",
"1939 468 CURVE",
"2462 468 LINE"
);
},
{
closed = 1;
nodes = (
"220 418 LINE",
"277 365 OFFCURVE",
"343 316 OFFCURVE",
"416 270 CURVE SMOOTH",
"456 244 OFFCURVE",
"498 220 OFFCURVE",
"542 197 CURVE",
"966 197 LINE",
"869 251 OFFCURVE",
"786 327 OFFCURVE",
"723 418 CURVE"
);
},
{
closed = 1;
nodes = (
"2089 197 LINE",
"2134 220 OFFCURVE",
"2175 244 OFFCURVE",
"2215 269 CURVE SMOOTH",
"2288 315 OFFCURVE",
"2354 365 OFFCURVE",
"2411 418 CURVE",
"1907 418 LINE",
"1845 327 OFFCURVE",
"1761 251 OFFCURVE",
"1665 197 CURVE"
);
},
{
closed = 1;
nodes = (
"596 169 LINE",
"800 71 OFFCURVE",
"1041 4 OFFCURVE",
"1316 4 CURVE SMOOTH",
"1590 4 OFFCURVE",
"1831 71 OFFCURVE",
"2035 169 CURVE",
"1610 169 LINE",
"1520 128 OFFCURVE",
"1420 106 OFFCURVE",
"1315 106 CURVE SMOOTH",
"1210 106 OFFCURVE",
"1111 128 OFFCURVE",
"1021 169 CURVE"
);
},
{
closed = 1;
nodes = (
"1986 460 OFFCURVE",
"1688 160 OFFCURVE",
"1321 160 CURVE SMOOTH",
"953 160 OFFCURVE",
"656 460 OFFCURVE",
"656 829 CURVE SMOOTH",
"656 1199 OFFCURVE",
"953 1499 OFFCURVE",
"1321 1499 CURVE SMOOTH",
"1688 1499 OFFCURVE",
"1986 1199 OFFCURVE",
"1986 829 CURVE SMOOTH"
);
}
);
width = 2631;
}
);
unicode = 0041;
},
{
glyphname = pinterest;
lastChange = "2013-05-10 13:02:10 -0500";
layers = (
{
layerId = "E8902836-E278-4207-B18F-2ADDB08A6CA3";
name = Regular;
paths = (
{
closed = 1;
nodes = (
"1536 1064 OFFCURVE",
"1192 1408 OFFCURVE",
"768 1408 CURVE SMOOTH",
"344 1408 OFFCURVE",
"0 1064 OFFCURVE",
"0 640 CURVE SMOOTH",
"0 325 OFFCURVE",
"189 55 OFFCURVE",
"460 -64 CURVE",
"458 -10 OFFCURVE",
"459 55 OFFCURVE",
"473 113 CURVE",
"473 113 OFFCURVE",
"488 175 OFFCURVE",
"572 531 CURVE",
"547 580 OFFCURVE",
"547 653 OFFCURVE",
"547 653 CURVE",
"547 767 OFFCURVE",
"613 852 OFFCURVE",
"695 852 CURVE SMOOTH",
"765 852 OFFCURVE",
"799 799 OFFCURVE",
"799 736 CURVE SMOOTH",
"799 666 OFFCURVE",
"754 561 OFFCURVE",
"731 464 CURVE SMOOTH",
"712 382 OFFCURVE",
"772 316 OFFCURVE",
"852 316 CURVE SMOOTH",
"998 316 OFFCURVE",
"1096 503 OFFCURVE",
"1096 724 CURVE SMOOTH",
"1096 893 OFFCURVE",
"982 1019 OFFCURVE",
"776 1019 CURVE SMOOTH",
"543 1019 OFFCURVE",
"398 845 OFFCURVE",
"398 651 CURVE SMOOTH",
"398 584 OFFCURVE",
"418 537 OFFCURVE",
"449 500 CURVE SMOOTH",
"463 483 OFFCURVE",
"465 477 OFFCURVE",
"460 457 CURVE SMOOTH",
"456 443 OFFCURVE",
"448 409 OFFCURVE",
"444 396 CURVE",
"439 376 OFFCURVE",
"423 369 OFFCURVE",
"406 376 CURVE SMOOTH",
"299 420 OFFCURVE",
"249 538 OFFCURVE",
"249 670 CURVE SMOOTH",
"249 888 OFFCURVE",
"433 1150 OFFCURVE",
"797 1150 CURVE SMOOTH",
"1091 1150 OFFCURVE",
"1284 937 OFFCURVE",
"1284 710 CURVE SMOOTH",
"1284 408 OFFCURVE",
"1116 183 OFFCURVE",
"869 183 CURVE SMOOTH",
"786 183 OFFCURVE",
"708 228 OFFCURVE",
"682 279 CURVE",
"637 102 OFFCURVE",
"628 68 OFFCURVE",
"628 68 CURVE",
"612 9 OFFCURVE",
"579 -50 OFFCURVE",
"550 -96 CURVE",
"620 -117 OFFCURVE",
"692 -128 OFFCURVE",
"768 -128 CURVE SMOOTH",
"1192 -128 OFFCURVE",
"1536 216 OFFCURVE",
"1536 640 CURVE SMOOTH"
);
}
);
width = 1536;
}
);
unicode = 002A;
},
{
glyphname = rain_sun;
lastChange = "2013-05-09 18:20:04 -0500";
layers = (
{
layerId = "E8902836-E278-4207-B18F-2ADDB08A6CA3";
name = Regular;
paths = (
{
closed = 1;
nodes = (
"939 972 OFFCURVE",
"918 970 OFFCURVE",
"896 966 CURVE",
"817 1126 OFFCURVE",
"654 1228 OFFCURVE",
"473 1228 CURVE SMOOTH",
"212 1228 OFFCURVE",
"0 1016 OFFCURVE",
"0 755 CURVE SMOOTH",
"0 546 OFFCURVE",
"133 365 OFFCURVE",
"332 303 CURVE SMOOTH",
"355 296 OFFCURVE",
"379 309 OFFCURVE",
"386 331 CURVE SMOOTH",
"394 354 OFFCURVE",
"381 378 OFFCURVE",
"358 385 CURVE SMOOTH",
"195 436 OFFCURVE",
"86 584 OFFCURVE",
"86 755 CURVE SMOOTH",
"86 968 OFFCURVE",
"260 1142 OFFCURVE",
"473 1142 CURVE SMOOTH",
"631 1142 OFFCURVE",
"772 1047 OFFCURVE",
"832 900 CURVE SMOOTH",
"847 863 LINE",
"884 874 LINE SMOOTH",
"909 882 OFFCURVE",
"935 886 OFFCURVE",
"961 886 CURVE SMOOTH",
"1104 886 OFFCURVE",
"1220 770 OFFCURVE",
"1220 627 CURVE SMOOTH",
"1220 493 OFFCURVE",
"1120 383 OFFCURVE",
"987 369 CURVE SMOOTH",
"964 367 OFFCURVE",
"946 346 OFFCURVE",
"949 322 CURVE SMOOTH",
"951 300 OFFCURVE",
"970 283 OFFCURVE",
"992 283 CURVE SMOOTH",
"993 283 OFFCURVE",
"995 283 OFFCURVE",
"996 283 CURVE",
"1173 301 OFFCURVE",
"1306 449 OFFCURVE",
"1306 627 CURVE SMOOTH",
"1306 817 OFFCURVE",
"1151 972 OFFCURVE",
"961 972 CURVE SMOOTH"
);
},
{
closed = 1;
nodes = (
"449 -80 OFFCURVE",
"424 -104 OFFCURVE",
"424 -134 CURVE SMOOTH",
"424 -163 OFFCURVE",
"449 -188 OFFCURVE",
"478 -188 CURVE SMOOTH",
"508 -188 OFFCURVE",
"532 -163 OFFCURVE",
"532 -134 CURVE SMOOTH",
"532 -104 OFFCURVE",
"508 -80 OFFCURVE",
"478 -80 CURVE SMOOTH"
);
},
{
closed = 1;
nodes = (
"634 46 OFFCURVE",
"610 22 OFFCURVE",
"610 -8 CURVE SMOOTH",
"610 -37 OFFCURVE",
"634 -62 OFFCURVE",
"664 -62 CURVE SMOOTH",
"694 -62 OFFCURVE",
"718 -37 OFFCURVE",
"718 -8 CURVE SMOOTH",
"718 22 OFFCURVE",
"694 46 OFFCURVE",
"664 46 CURVE SMOOTH"
);
},
{
closed = 1;
nodes = (
"819 -80 OFFCURVE",
"795 -104 OFFCURVE",
"795 -134 CURVE SMOOTH",
"795 -163 OFFCURVE",
"819 -188 OFFCURVE",
"849 -188 CURVE SMOOTH",
"879 -188 OFFCURVE",
"903 -163 OFFCURVE",
"903 -134 CURVE SMOOTH",
"903 -104 OFFCURVE",
"879 -80 OFFCURVE",
"849 -80 CURVE SMOOTH"
);
},
{
closed = 1;
nodes = (
"502 7 OFFCURVE",
"522 26 OFFCURVE",
"522 51 CURVE SMOOTH",
"522 468 LINE SMOOTH",
"522 492 OFFCURVE",
"502 511 OFFCURVE",
"478 511 CURVE SMOOTH",
"455 511 OFFCURVE",
"435 492 OFFCURVE",
"435 468 CURVE SMOOTH",
"435 51 LINE SMOOTH",
"435 26 OFFCURVE",
"455 7 OFFCURVE",
"478 7 CURVE SMOOTH"
);
},
{
closed = 1;
nodes = (
"873 7 OFFCURVE",
"892 26 OFFCURVE",
"892 51 CURVE SMOOTH",
"892 468 LINE SMOOTH",
"892 492 OFFCURVE",
"873 511 OFFCURVE",
"849 511 CURVE SMOOTH",
"825 511 OFFCURVE",
"806 492 OFFCURVE",
"806 468 CURVE SMOOTH",
"806 51 LINE SMOOTH",
"806 26 OFFCURVE",
"825 7 OFFCURVE",
"849 7 CURVE SMOOTH"
);
},
{
closed = 1;
nodes = (
"688 123 OFFCURVE",
"707 142 OFFCURVE",
"707 166 CURVE SMOOTH",
"707 583 LINE SMOOTH",
"707 607 OFFCURVE",
"688 627 OFFCURVE",
"664 627 CURVE SMOOTH",
"640 627 OFFCURVE",
"621 607 OFFCURVE",
"621 583 CURVE SMOOTH",
"621 166 LINE SMOOTH",
"621 142 OFFCURVE",
"640 123 OFFCURVE",
"664 123 CURVE SMOOTH"
);
},
{
closed = 1;
nodes = (
"900 1100 OFFCURVE",
"859 1093 OFFCURVE",
"820 1081 CURVE",
"732 1175 OFFCURVE",
"609 1230 OFFCURVE",
"475 1230 CURVE SMOOTH",
"456 1230 OFFCURVE",
"438 1229 OFFCURVE",
"420 1227 CURVE",
"407 1241 LINE SMOOTH",
"390 1257 OFFCURVE",
"362 1257 OFFCURVE",
"345 1241 CURVE SMOOTH",
"337 1232 OFFCURVE",
"333 1220 OFFCURVE",
"333 1209 CURVE",
"246 1181 OFFCURVE",
"170 1129 OFFCURVE",
"113 1061 CURVE",
"145 1056 OFFCURVE",
"176 1047 OFFCURVE",
"206 1034 CURVE",
"276 1102 OFFCURVE",
"370 1144 OFFCURVE",
"475 1144 CURVE SMOOTH",
"633 1144 OFFCURVE",
"774 1049 OFFCURVE",
"834 902 CURVE SMOOTH",
"848 865 LINE",
"886 877 LINE SMOOTH",
"911 884 OFFCURVE",
"937 888 OFFCURVE",
"963 888 CURVE SMOOTH",
"1105 888 OFFCURVE",
"1222 772 OFFCURVE",
"1222 629 CURVE SMOOTH",
"1222 486 OFFCURVE",
"1105 370 OFFCURVE",
"963 370 CURVE SMOOTH",
"912 371 LINE",
"847 371 LINE",
"849 323 OFFCURVE",
"849 274 OFFCURVE",
"848 225 CURVE",
"879 218 OFFCURVE",
"911 214 OFFCURVE",
"944 214 CURVE SMOOTH",
"1188 214 OFFCURVE",
"1386 413 OFFCURVE",
"1386 657 CURVE SMOOTH",
"1386 901 OFFCURVE",
"1188 1100 OFFCURVE",
"944 1100 CURVE SMOOTH"
);
},
{
closed = 1;
nodes = (
"967 1236 OFFCURVE",
"987 1256 OFFCURVE",
"987 1280 CURVE SMOOTH",
"987 1445 LINE SMOOTH",
"987 1469 OFFCURVE",
"967 1488 OFFCURVE",
"944 1488 CURVE SMOOTH",
"920 1488 OFFCURVE",
"900 1469 OFFCURVE",
"900 1445 CURVE SMOOTH",
"900 1280 LINE SMOOTH",
"900 1256 OFFCURVE",
"920 1236 OFFCURVE",
"944 1236 CURVE SMOOTH"
);
},
{
closed = 1;
nodes = (
"1581 686 LINE SMOOTH",
"1557 686 OFFCURVE",
"1537 666 OFFCURVE",
"1537 643 CURVE SMOOTH",
"1537 619 OFFCURVE",
"1557 599 OFFCURVE",
"1581 599 CURVE SMOOTH",
"1746 599 LINE SMOOTH",
"1770 599 OFFCURVE",
"1789 619 OFFCURVE",
"1789 643 CURVE SMOOTH",
"1789 666 OFFCURVE",
"1770 686 OFFCURVE",
"1746 686 CURVE SMOOTH"
);
},
{
closed = 1;
nodes = (
"1408 239 OFFCURVE",
"1380 239 OFFCURVE",
"1363 223 CURVE SMOOTH",
"1347 206 OFFCURVE",
"1347 178 OFFCURVE",
"1363 161 CURVE SMOOTH",
"1481 43 LINE SMOOTH",
"1489 35 OFFCURVE",
"1500 31 OFFCURVE",
"1511 31 CURVE SMOOTH",
"1522 31 OFFCURVE",
"1533 35 OFFCURVE",
"1542 43 CURVE SMOOTH",
"1558 61 OFFCURVE",
"1558 89 OFFCURVE",
"1542 106 CURVE SMOOTH",
"1425 223 LINE SMOOTH"
);
},
{
closed = 1;
nodes = (
"1405 1050 OFFCURVE",
"1416 1054 OFFCURVE",
"1425 1062 CURVE SMOOTH",
"1542 1180 LINE SMOOTH",
"1558 1196 OFFCURVE",
"1558 1224 OFFCURVE",
"1542 1241 CURVE SMOOTH",
"1525 1257 OFFCURVE",
"1497 1257 OFFCURVE",
"1481 1241 CURVE SMOOTH",
"1363 1124 LINE SMOOTH",
"1347 1107 OFFCURVE",
"1347 1079 OFFCURVE",
"1363 1062 CURVE SMOOTH",
"1372 1054 OFFCURVE",
"1383 1050 OFFCURVE",
"1394 1050 CURVE SMOOTH"
);
}
);
width = 1789;
}
);
},
{
glyphname = thunder_moon;
lastChange = "2013-04-29 16:31:56 -0500";
layers = (
{
layerId = "E8902836-E278-4207-B18F-2ADDB08A6CA3";
name = Regular;
paths = (
{
closed = 1;
nodes = (
"1587 750 OFFCURVE",
"1572 749 OFFCURVE",
"1558 749 CURVE SMOOTH",
"1302 749 OFFCURVE",
"1094 957 OFFCURVE",
"1094 1213 CURVE SMOOTH",
"1094 1350 OFFCURVE",
"1153 1474 OFFCURVE",
"1248 1559 CURVE",
"1012 1537 OFFCURVE",
"827 1339 OFFCURVE",
"827 1097 CURVE SMOOTH",
"827 1063 OFFCURVE",
"830 1030 OFFCURVE",
"837 998 CURVE",
"836 999 OFFCURVE",
"835 1000 OFFCURVE",
"834 1001 CURVE SMOOTH",
"746 1104 OFFCURVE",
"616 1166 OFFCURVE",
"475 1166 CURVE SMOOTH",
"213 1166 OFFCURVE",
"0 953 OFFCURVE",
"0 690 CURVE SMOOTH",
"0 447 OFFCURVE",
"187 243 OFFCURVE",
"425 218 CURVE",
"425 215 LINE",
"505 215 LINE",
"371 -109 LINE",
"574 -114 LINE",
"483 -398 LINE",
"823 40 LINE",
"650 45 LINE",
"743 215 LINE",
"957 215 LINE",
"962 215 LINE SMOOTH",
"963 215 OFFCURVE",
"964 215 OFFCURVE",
"965 215 CURVE SMOOTH",
"968 215 OFFCURVE",
"972 215 OFFCURVE",
"975 215 CURVE SMOOTH",
"1001 216 LINE",
"1001 217 LINE",
"1152 233 OFFCURVE",
"1275 346 OFFCURVE",
"1305 493 CURVE",
"1305 493 OFFCURVE",
"1306 493 OFFCURVE",
"1307 493 CURVE",
"1311 515 OFFCURVE",
"1313 538 OFFCURVE",
"1313 561 CURVE SMOOTH",
"1313 586 OFFCURVE",
"1311 610 OFFCURVE",
"1306 633 CURVE",
"1419 637 OFFCURVE",
"1522 680 OFFCURVE",
"1601 751 CURVE"
);
},
{
closed = 1;
nodes = (
"914 303 LINE",
"491 302 LINE",
"469 302 LINE SMOOTH",
"258 305 OFFCURVE",
"87 480 OFFCURVE",
"87 690 CURVE SMOOTH",
"87 755 OFFCURVE",
"103 816 OFFCURVE",
"131 870 CURVE",
"131 870 OFFCURVE",
"132 869 OFFCURVE",
"132 869 CURVE",
"151 904 OFFCURVE",
"174 936 OFFCURVE",
"202 964 CURVE SMOOTH",
"273 1034 OFFCURVE",
"369 1078 OFFCURVE",
"477 1078 CURVE SMOOTH",
"477 1078 LINE SMOOTH",
"569 1078 OFFCURVE",
"653 1046 OFFCURVE",
"719 993 CURVE SMOOTH",
"720 992 OFFCURVE",
"720 992 OFFCURVE",
"721 991 CURVE",
"727 986 OFFCURVE",
"733 981 OFFCURVE",
"739 976 CURVE SMOOTH",
"780 938 OFFCURVE",
"813 890 OFFCURVE",
"835 836 CURVE SMOOTH",
"850 799 LINE",
"851 799 LINE",
"851 799 LINE",
"853 800 OFFCURVE",
"855 800 OFFCURVE",
"857 801 CURVE",
"888 811 LINE SMOOTH",
"913 818 OFFCURVE",
"939 822 OFFCURVE",
"965 822 CURVE SMOOTH",
"1108 822 OFFCURVE",
"1225 706 OFFCURVE",
"1225 562 CURVE SMOOTH",
"1225 419 OFFCURVE",
"1108 302 OFFCURVE",
"965 302 CURVE SMOOTH"
);
}
);
width = 1601;
}
);
unicode = 0043;
},
{
glyphname = snow_moon;
lastChange = "2013-05-09 17:16:41 -0500";
layers = (
{
layerId = "E8902836-E278-4207-B18F-2ADDB08A6CA3";
name = Regular;
paths = (
{
closed = 1;
nodes = (
"440 330 OFFCURVE",
"416 306 OFFCURVE",
"416 277 CURVE SMOOTH",
"416 248 OFFCURVE",
"440 224 OFFCURVE",
"469 224 CURVE SMOOTH",
"498 224 OFFCURVE",
"522 248 OFFCURVE",
"522 277 CURVE SMOOTH",
"522 306 OFFCURVE",
"498 330 OFFCURVE",
"469 330 CURVE SMOOTH"
);
},
{
closed = 1;
nodes = (
"621 453 OFFCURVE",
"598 430 OFFCURVE",
"598 400 CURVE SMOOTH",
"598 371 OFFCURVE",
"621 348 OFFCURVE",
"650 348 CURVE SMOOTH",
"680 348 OFFCURVE",
"703 371 OFFCURVE",
"703 400 CURVE SMOOTH",
"703 430 OFFCURVE",
"680 453 OFFCURVE",
"650 453 CURVE SMOOTH"
);
},
{
closed = 1;
nodes = (
"803 330 OFFCURVE",
"779 306 OFFCURVE",
"779 277 CURVE SMOOTH",
"779 248 OFFCURVE",
"803 224 OFFCURVE",
"832 224 CURVE SMOOTH",
"861 224 OFFCURVE",
"885 248 OFFCURVE",
"885 277 CURVE SMOOTH",
"885 306 OFFCURVE",
"861 330 OFFCURVE",
"832 330 CURVE SMOOTH"
);
},
{
closed = 1;
nodes = (
"440 124 OFFCURVE",
"416 100 OFFCURVE",
"416 71 CURVE SMOOTH",
"416 42 OFFCURVE",
"440 18 OFFCURVE",
"469 18 CURVE SMOOTH",
"498 18 OFFCURVE",
"522 42 OFFCURVE",
"522 71 CURVE SMOOTH",
"522 100 OFFCURVE",
"498 124 OFFCURVE",
"469 124 CURVE SMOOTH"
);
},
{
closed = 1;
nodes = (
"621 247 OFFCURVE",
"598 224 OFFCURVE",
"598 194 CURVE SMOOTH",
"598 165 OFFCURVE",
"621 142 OFFCURVE",
"650 142 CURVE SMOOTH",
"680 142 OFFCURVE",
"703 165 OFFCURVE",
"703 194 CURVE SMOOTH",
"703 224 OFFCURVE",
"680 247 OFFCURVE",
"650 247 CURVE SMOOTH"
);
},
{
closed = 1;
nodes = (
"803 124 OFFCURVE",
"779 100 OFFCURVE",
"779 71 CURVE SMOOTH",
"779 42 OFFCURVE",
"803 18 OFFCURVE",
"832 18 CURVE SMOOTH",
"861 18 OFFCURVE",
"885 42 OFFCURVE",
"885 71 CURVE SMOOTH",
"885 100 OFFCURVE",
"861 124 OFFCURVE",
"832 124 CURVE SMOOTH"
);
},
{
closed = 1;
nodes = (
"440 -80 OFFCURVE",
"416 -104 OFFCURVE",
"416 -133 CURVE SMOOTH",
"416 -163 OFFCURVE",
"440 -186 OFFCURVE",
"469 -186 CURVE SMOOTH",
"498 -186 OFFCURVE",
"522 -163 OFFCURVE",
"522 -133 CURVE SMOOTH",
"522 -104 OFFCURVE",
"498 -80 OFFCURVE",
"469 -80 CURVE SMOOTH"
);
},
{
closed = 1;
nodes = (
"621 43 OFFCURVE",
"598 19 OFFCURVE",
"598 -10 CURVE SMOOTH",
"598 -39 OFFCURVE",
"621 -63 OFFCURVE",
"650 -63 CURVE SMOOTH",
"680 -63 OFFCURVE",
"703 -39 OFFCURVE",
"703 -10 CURVE SMOOTH",
"703 19 OFFCURVE",
"680 43 OFFCURVE",
"650 43 CURVE SMOOTH"
);
},
{
closed = 1;
nodes = (
"803 -80 OFFCURVE",
"779 -104 OFFCURVE",
"779 -133 CURVE SMOOTH",
"779 -163 OFFCURVE",
"803 -186 OFFCURVE",
"832 -186 CURVE SMOOTH",
"861 -186 OFFCURVE",
"885 -163 OFFCURVE",
"885 -133 CURVE SMOOTH",
"885 -104 OFFCURVE",
"861 -80 OFFCURVE",
"832 -80 CURVE SMOOTH"
);
},
{
closed = 1;
nodes = (
"1547 796 OFFCURVE",
"1534 795 OFFCURVE",
"1520 795 CURVE SMOOTH",
"1270 795 OFFCURVE",
"1067 998 OFFCURVE",
"1067 1248 CURVE SMOOTH",
"1067 1382 OFFCURVE",
"1125 1502 OFFCURVE",
"1218 1585 CURVE",
"987 1564 OFFCURVE",
"807 1370 OFFCURVE",
"807 1134 CURVE SMOOTH",
"807 1101 OFFCURVE",
"810 1069 OFFCURVE",
"817 1038 CURVE",
"732 1137 OFFCURVE",
"606 1201 OFFCURVE",
"465 1201 CURVE SMOOTH",
"337 1201 OFFCURVE",
"221 1148 OFFCURVE",
"137 1064 CURVE",
"137 1063 OFFCURVE",
"136 1062 OFFCURVE",
"135 1061 CURVE SMOOTH",
"127 1053 OFFCURVE",
"119 1044 OFFCURVE",
"111 1035 CURVE SMOOTH",
"106 1029 OFFCURVE",
"102 1024 OFFCURVE",
"98 1018 CURVE SMOOTH",
"94 1013 OFFCURVE",
"90 1008 OFFCURVE",
"86 1003 CURVE SMOOTH",
"32 927 OFFCURVE",
"0 835 OFFCURVE",
"0 735 CURVE SMOOTH",
"0 531 OFFCURVE",
"131 354 OFFCURVE",
"326 293 CURVE SMOOTH",
"348 286 OFFCURVE",
"372 299 OFFCURVE",
"379 321 CURVE SMOOTH",
"386 343 OFFCURVE",
"373 367 OFFCURVE",
"351 374 CURVE SMOOTH",
"192 423 OFFCURVE",
"85 568 OFFCURVE",
"85 735 CURVE SMOOTH",
"85 799 OFFCURVE",
"101 860 OFFCURVE",
"129 913 CURVE",
"129 912 OFFCURVE",
"130 912 OFFCURVE",
"130 912 CURVE",
"138 927 OFFCURVE",
"147 942 OFFCURVE",
"157 956 CURVE SMOOTH",
"160 961 OFFCURVE",
"164 966 OFFCURVE",
"168 971 CURVE SMOOTH",
"170 973 OFFCURVE",
"171 976 OFFCURVE",
"173 978 CURVE SMOOTH",
"243 1061 OFFCURVE",
"347 1114 OFFCURVE",
"464 1114 CURVE SMOOTH",
"619 1114 OFFCURVE",
"757 1021 OFFCURVE",
"815 877 CURVE SMOOTH",
"829 841 LINE",
"866 852 LINE SMOOTH",
"891 860 OFFCURVE",
"916 864 OFFCURVE",
"941 864 CURVE SMOOTH",
"1081 864 OFFCURVE",
"1195 750 OFFCURVE",
"1195 610 CURVE SMOOTH",
"1195 479 OFFCURVE",
"1097 371 OFFCURVE",
"967 358 CURVE SMOOTH",
"944 355 OFFCURVE",
"927 335 OFFCURVE",
"929 311 CURVE SMOOTH",
"932 290 OFFCURVE",
"950 273 OFFCURVE",
"971 273 CURVE SMOOTH",
"973 273 OFFCURVE",
"974 273 OFFCURVE",
"976 274 CURVE SMOOTH",
"1127 289 OFFCURVE",
"1246 402 OFFCURVE",
"1273 546 CURVE",
"1274 546 OFFCURVE",
"1274 546 OFFCURVE",
"1275 546 CURVE",
"1279 567 OFFCURVE",
"1281 589 OFFCURVE",
"1281 612 CURVE SMOOTH",
"1281 636 OFFCURVE",
"1278 660 OFFCURVE",
"1274 683 CURVE",
"1384 686 OFFCURVE",
"1484 729 OFFCURVE",
"1561 797 CURVE"
);
}
);
width = 1561;
}
);
unicode = 0074;
},
{
glyphname = rain_moon;
lastChange = "2013-05-11 10:00:33 -0500";
layers = (
{
layerId = "E8902836-E278-4207-B18F-2ADDB08A6CA3";
name = Regular;
paths = (
{
closed = 1;
nodes = (
"441 -133 OFFCURVE",
"417 -157 OFFCURVE",
"417 -187 CURVE SMOOTH",
"417 -216 OFFCURVE",
"441 -240 OFFCURVE",
"471 -240 CURVE SMOOTH",
"500 -240 OFFCURVE",
"524 -216 OFFCURVE",
"524 -187 CURVE SMOOTH",
"524 -157 OFFCURVE",
"500 -133 OFFCURVE",
"471 -133 CURVE SMOOTH"
);
},
{
closed = 1;
nodes = (
"623 -10 OFFCURVE",
"600 -33 OFFCURVE",
"600 -63 CURVE SMOOTH",
"600 -92 OFFCURVE",
"623 -116 OFFCURVE",
"653 -116 CURVE SMOOTH",
"682 -116 OFFCURVE",
"706 -92 OFFCURVE",
"706 -63 CURVE SMOOTH",
"706 -33 OFFCURVE",
"682 -10 OFFCURVE",
"653 -10 CURVE SMOOTH"
);
},
{
closed = 1;
nodes = (
"806 -133 OFFCURVE",
"782 -157 OFFCURVE",
"782 -187 CURVE SMOOTH",
"782 -216 OFFCURVE",
"806 -240 OFFCURVE",
"835 -240 CURVE SMOOTH",
"864 -240 OFFCURVE",
"888 -216 OFFCURVE",
"888 -187 CURVE SMOOTH",
"888 -157 OFFCURVE",
"864 -133 OFFCURVE",
"835 -133 CURVE SMOOTH"
);
},
{
closed = 1;
nodes = (
"494 -49 OFFCURVE",
"513 -30 OFFCURVE",
"513 -6 CURVE SMOOTH",
"513 404 LINE SMOOTH",
"513 427 OFFCURVE",
"494 446 OFFCURVE",
"471 446 CURVE SMOOTH",
"447 446 OFFCURVE",
"428 427 OFFCURVE",
"428 404 CURVE SMOOTH",
"428 -6 LINE SMOOTH",
"428 -30 OFFCURVE",
"447 -49 OFFCURVE",
"471 -49 CURVE SMOOTH"
);
},
{
closed = 1;
nodes = (
"858 -49 OFFCURVE",
"877 -30 OFFCURVE",
"877 -6 CURVE SMOOTH",
"877 404 LINE SMOOTH",
"877 427 OFFCURVE",
"858 446 OFFCURVE",
"835 446 CURVE SMOOTH",
"811 446 OFFCURVE",
"792 427 OFFCURVE",
"792 404 CURVE SMOOTH",
"792 -6 LINE SMOOTH",
"792 -30 OFFCURVE",
"811 -49 OFFCURVE",
"835 -49 CURVE SMOOTH"
);
},
{
closed = 1;
nodes = (
"676 65 OFFCURVE",
"695 84 OFFCURVE",
"695 107 CURVE SMOOTH",
"695 517 LINE SMOOTH",
"695 541 OFFCURVE",
"676 560 OFFCURVE",
"653 560 CURVE SMOOTH",
"629 560 OFFCURVE",
"610 541 OFFCURVE",
"610 517 CURVE SMOOTH",
"610 107 LINE SMOOTH",
"610 84 OFFCURVE",
"629 65 OFFCURVE",
"653 65 CURVE SMOOTH"
);
},
{
closed = 1;
nodes = (
"1553 748 OFFCURVE",
"1539 748 OFFCURVE",
"1525 748 CURVE SMOOTH",
"1274 748 OFFCURVE",
"1071 951 OFFCURVE",
"1071 1202 CURVE SMOOTH",
"1071 1336 OFFCURVE",
"1129 1457 OFFCURVE",
"1222 1540 CURVE",
"991 1519 OFFCURVE",
"809 1325 OFFCURVE",
"809 1088 CURVE SMOOTH",
"809 1055 OFFCURVE",
"813 1023 OFFCURVE",
"820 991 CURVE",
"735 1091 OFFCURVE",
"608 1154 OFFCURVE",
"467 1154 CURVE SMOOTH",
"289 1154 OFFCURVE",
"136 1055 OFFCURVE",
"57 909 CURVE",
"57 908 OFFCURVE",
"56 907 OFFCURVE",
"56 906 CURVE SMOOTH",
"55 905 OFFCURVE",
"55 904 OFFCURVE",
"54 903 CURVE",
"54 903 OFFCURVE",
"54 903 OFFCURVE",
"55 903 CURVE",
"20 838 OFFCURVE",
"0 764 OFFCURVE",
"0 685 CURVE SMOOTH",
"0 481 OFFCURVE",
"132 302 OFFCURVE",
"327 242 CURVE SMOOTH",
"349 235 OFFCURVE",
"373 247 OFFCURVE",
"380 269 CURVE SMOOTH",
"387 292 OFFCURVE",
"375 316 OFFCURVE",
"352 323 CURVE SMOOTH",
"192 372 OFFCURVE",
"85 518 OFFCURVE",
"85 685 CURVE SMOOTH",
"85 895 OFFCURVE",
"256 1066 OFFCURVE",
"465 1066 CURVE SMOOTH",
"621 1066 OFFCURVE",
"759 972 OFFCURVE",
"818 828 CURVE SMOOTH",
"832 792 LINE",
"870 803 LINE SMOOTH",
"894 811 OFFCURVE",
"919 814 OFFCURVE",
"945 814 CURVE SMOOTH",
"1085 814 OFFCURVE",
"1199 700 OFFCURVE",
"1199 560 CURVE SMOOTH",
"1199 429 OFFCURVE",
"1101 320 OFFCURVE",
"971 307 CURVE SMOOTH",
"947 304 OFFCURVE",
"930 283 OFFCURVE",
"933 260 CURVE SMOOTH",
"935 238 OFFCURVE",
"953 222 OFFCURVE",
"975 222 CURVE SMOOTH",
"976 222 OFFCURVE",
"978 222 OFFCURVE",
"979 222 CURVE",
"1132 238 OFFCURVE",
"1251 351 OFFCURVE",
"1278 497 CURVE",
"1279 497 OFFCURVE",
"1279 497 OFFCURVE",
"1279 497 CURVE",
"1283 519 OFFCURVE",
"1286 541 OFFCURVE",
"1286 564 CURVE SMOOTH",
"1286 588 OFFCURVE",
"1283 611 OFFCURVE",
"1278 634 CURVE",
"1389 638 OFFCURVE",
"1490 680 OFFCURVE",
"1567 749 CURVE"
);
}
);
width = 1567;
}
);
unicode = 00A1;
},
{
glyphname = wind;
lastChange = "2013-04-29 16:41:24 -0500";
layers = (
{
layerId = "E8902836-E278-4207-B18F-2ADDB08A6CA3";
name = Regular;
paths = (
{
closed = 1;
nodes = (
"1239 914 OFFCURVE",
"1149 921 OFFCURVE",
"1088 921 CURVE",
"1088 813 LINE",
"1153 813 OFFCURVE",
"1196 802 OFFCURVE",
"1219 778 CURVE SMOOTH",
"1235 761 OFFCURVE",
"1242 735 OFFCURVE",
"1240 699 CURVE SMOOTH",
"1239 675 OFFCURVE",
"1232 658 OFFCURVE",
"1217 645 CURVE SMOOTH",
"1182 615 OFFCURVE",
"1115 613 OFFCURVE",
"1092 615 CURVE",
"0 615 LINE",
"0 507 LINE",
"1085 507 LINE",
"1090 507 OFFCURVE",
"1097 507 OFFCURVE",
"1108 507 CURVE SMOOTH",
"1149 507 OFFCURVE",
"1230 514 OFFCURVE",
"1288 564 CURVE SMOOTH",
"1325 596 OFFCURVE",
"1346 641 OFFCURVE",
"1348 694 CURVE SMOOTH",
"1352 760 OFFCURVE",
"1334 813 OFFCURVE",
"1297 852 CURVE SMOOTH"
);
},
{
closed = 1;
nodes = (
"743 1011 LINE",
"854 1011 OFFCURVE",
"896 979 OFFCURVE",
"896 894 CURVE SMOOTH",
"896 865 OFFCURVE",
"885 851 OFFCURVE",
"877 844 CURVE SMOOTH",
"843 813 OFFCURVE",
"770 811 OFFCURVE",
"748 813 CURVE",
"0 813 LINE",
"0 705 LINE",
"741 705 LINE",
"745 705 OFFCURVE",
"753 704 OFFCURVE",
"764 704 CURVE SMOOTH",
"807 704 OFFCURVE",
"892 712 OFFCURVE",
"949 764 CURVE SMOOTH",
"985 797 OFFCURVE",
"1004 842 OFFCURVE",
"1004 894 CURVE SMOOTH",
"1004 996 OFFCURVE",
"958 1119 OFFCURVE",
"743 1119 CURVE"
);
},
{
closed = 1;
nodes = (
"1213 426 OFFCURVE",
"1099 420 OFFCURVE",
"1076 418 CURVE",
"0 418 LINE",
"0 310 LINE",
"1079 310 LINE",
"1084 311 LINE SMOOTH",
"1107 313 OFFCURVE",
"1180 312 OFFCURVE",
"1217 280 CURVE SMOOTH",
"1232 268 OFFCURVE",
"1239 251 OFFCURVE",
"1240 228 CURVE SMOOTH",
"1242 189 OFFCURVE",
"1235 161 OFFCURVE",
"1220 145 CURVE SMOOTH",
"1194 118 OFFCURVE",
"1141 114 OFFCURVE",
"1088 114 CURVE",
"1088 6 LINE",
"1140 6 OFFCURVE",
"1236 6 OFFCURVE",
"1298 70 CURVE SMOOTH",
"1335 109 OFFCURVE",
"1352 164 OFFCURVE",
"1348 233 CURVE SMOOTH",
"1346 285 OFFCURVE",
"1325 330 OFFCURVE",
"1287 362 CURVE SMOOTH"
);
}
);
width = 1349;
}
);
unicode = 0045;
},
{
glyphname = sun;
lastChange = "2013-04-29 16:44:44 -0500";
layers = (
{
layerId = "E8902836-E278-4207-B18F-2ADDB08A6CA3";
name = Regular;
paths = (
{
closed = 1;
nodes = (
"632 1117 OFFCURVE",
"424 908 OFFCURVE",
"424 652 CURVE SMOOTH",
"424 395 OFFCURVE",
"632 187 OFFCURVE",
"889 187 CURVE SMOOTH",
"1145 187 OFFCURVE",
"1354 395 OFFCURVE",
"1354 652 CURVE SMOOTH",
"1354 908 OFFCURVE",
"1145 1117 OFFCURVE",
"889 1117 CURVE SMOOTH"
);
},
{
closed = 1;
nodes = (
"682 277 OFFCURVE",
"514 445 OFFCURVE",
"514 652 CURVE SMOOTH",
"514 858 OFFCURVE",
"682 1026 OFFCURVE",
"889 1026 CURVE SMOOTH",
"1095 1026 OFFCURVE",
"1263 858 OFFCURVE",
"1263 652 CURVE SMOOTH",
"1263 445 OFFCURVE",
"1095 277 OFFCURVE",
"889 277 CURVE SMOOTH"
);
},
{
closed = 1;
nodes = (
"914 1261 OFFCURVE",
"934 1281 OFFCURVE",
"934 1306 CURVE SMOOTH",
"934 1480 LINE SMOOTH",
"934 1505 OFFCURVE",
"914 1525 OFFCURVE",
"889 1525 CURVE SMOOTH",
"864 1525 OFFCURVE",
"843 1505 OFFCURVE",
"843 1480 CURVE SMOOTH",
"843 1306 LINE SMOOTH",
"843 1281 OFFCURVE",
"864 1261 OFFCURVE",
"889 1261 CURVE SMOOTH"
);
},
{
closed = 1;
nodes = (
"864 13 OFFCURVE",
"843 -8 OFFCURVE",
"843 -33 CURVE SMOOTH",
"843 -207 LINE SMOOTH",
"843 -232 OFFCURVE",
"864 -252 OFFCURVE",
"889 -252 CURVE SMOOTH",
"914 -252 OFFCURVE",
"934 -232 OFFCURVE",
"934 -207 CURVE SMOOTH",
"934 -33 LINE SMOOTH",
"934 -8 OFFCURVE",
"914 13 OFFCURVE",
"889 13 CURVE SMOOTH"
);
},
{
closed = 1;
nodes = (
"1558 682 LINE SMOOTH",
"1533 682 OFFCURVE",
"1513 662 OFFCURVE",
"1513 637 CURVE SMOOTH",
"1513 612 OFFCURVE",
"1533 591 OFFCURVE",
"1558 591 CURVE SMOOTH",
"1732 591 LINE SMOOTH",
"1757 591 OFFCURVE",
"1777 612 OFFCURVE",
"1777 637 CURVE SMOOTH",
"1777 662 OFFCURVE",
"1757 682 OFFCURVE",
"1732 682 CURVE SMOOTH"
);
},
{
closed = 1;
nodes = (
"265 662 OFFCURVE",
"245 682 OFFCURVE",
"220 682 CURVE SMOOTH",
"46 682 LINE SMOOTH",
"21 682 OFFCURVE",
"0 662 OFFCURVE",
"0 637 CURVE SMOOTH",
"0 612 OFFCURVE",
"21 591 OFFCURVE",
"46 591 CURVE SMOOTH",
"220 591 LINE SMOOTH",
"245 591 OFFCURVE",
"265 612 OFFCURVE",
"265 637 CURVE SMOOTH"
);
},
{
closed = 1;
nodes = (
"392 1069 OFFCURVE",
"404 1065 OFFCURVE",
"416 1065 CURVE SMOOTH",
"427 1065 OFFCURVE",
"439 1069 OFFCURVE",
"448 1078 CURVE SMOOTH",
"465 1096 OFFCURVE",
"465 1124 OFFCURVE",
"448 1142 CURVE SMOOTH",
"325 1265 LINE SMOOTH",
"307 1283 OFFCURVE",
"278 1283 OFFCURVE",
"260 1265 CURVE SMOOTH",
"243 1247 OFFCURVE",
"243 1219 OFFCURVE",
"260 1201 CURVE SMOOTH",
"384 1078 LINE SMOOTH"
);
},
{
closed = 1;
nodes = (
"1376 213 OFFCURVE",
"1348 213 OFFCURVE",
"1330 196 CURVE SMOOTH",
"1312 178 OFFCURVE",
"1312 149 OFFCURVE",
"1330 131 CURVE SMOOTH",
"1453 8 LINE SMOOTH",
"1462 0 OFFCURVE",
"1473 -5 OFFCURVE",
"1485 -5 CURVE SMOOTH",
"1497 -5 OFFCURVE",
"1508 0 OFFCURVE",
"1517 8 CURVE SMOOTH",
"1535 26 OFFCURVE",
"1535 55 OFFCURVE",
"1517 73 CURVE SMOOTH",
"1394 196 LINE SMOOTH"
);
},
{
closed = 1;
nodes = (
"1374 1065 OFFCURVE",
"1385 1069 OFFCURVE",
"1394 1078 CURVE SMOOTH",
"1517 1201 LINE SMOOTH",
"1535 1219 OFFCURVE",
"1535 1247 OFFCURVE",
"1517 1265 CURVE SMOOTH",
"1499 1283 OFFCURVE",
"1471 1283 OFFCURVE",
"1453 1265 CURVE SMOOTH",
"1330 1142 LINE SMOOTH",
"1312 1124 OFFCURVE",
"1312 1096 OFFCURVE",
"1330 1078 CURVE SMOOTH",
"1339 1069 OFFCURVE",
"1350 1065 OFFCURVE",
"1362 1065 CURVE SMOOTH"
);
},
{
closed = 1;
nodes = (
"260 73 LINE SMOOTH",
"243 55 OFFCURVE",
"243 26 OFFCURVE",
"260 8 CURVE SMOOTH",
"269 0 OFFCURVE",
"281 -5 OFFCURVE",
"293 -5 CURVE SMOOTH",
"304 -5 OFFCURVE",
"316 0 OFFCURVE",
"325 8 CURVE SMOOTH",
"448 131 LINE SMOOTH",
"465 149 OFFCURVE",
"465 178 OFFCURVE",
"448 196 CURVE SMOOTH",
"430 213 OFFCURVE",
"401 213 OFFCURVE",
"384 196 CURVE SMOOTH"
);
}
);
width = 1777;
}
);
unicode = 2609;
},
{
glyphname = cloud_sun;
lastChange = "2013-05-10 11:38:33 -0500";
layers = (
{
layerId = "E8902836-E278-4207-B18F-2ADDB08A6CA3";
name = Regular;
paths = (
{
closed = 1;
nodes = (
"948 1129 OFFCURVE",
"904 1122 OFFCURVE",
"862 1110 CURVE",
"770 1209 OFFCURVE",
"640 1267 OFFCURVE",
"499 1267 CURVE SMOOTH",
"479 1267 OFFCURVE",
"460 1266 OFFCURVE",
"441 1264 CURVE",
"427 1278 LINE SMOOTH",
"409 1296 OFFCURVE",
"380 1296 OFFCURVE",
"362 1278 CURVE SMOOTH",
"353 1269 OFFCURVE",
"349 1256 OFFCURVE",
"349 1244 CURVE",
"147 1181 OFFCURVE",
"0 991 OFFCURVE",
"0 768 CURVE SMOOTH",
"0 512 OFFCURVE",
"196 298 OFFCURVE",
"447 272 CURVE",
"447 269 LINE",
"743 269 LINE",
"816 223 OFFCURVE",
"901 195 OFFCURVE",
"993 195 CURVE SMOOTH",
"1251 195 OFFCURVE",
"1460 405 OFFCURVE",
"1460 662 CURVE SMOOTH",
"1460 920 OFFCURVE",
"1251 1129 OFFCURVE",
"993 1129 CURVE SMOOTH"
);
},
{
closed = 1;
nodes = (
"271 363 OFFCURVE",
"91 546 OFFCURVE",
"91 768 CURVE SMOOTH",
"91 993 OFFCURVE",
"274 1176 OFFCURVE",
"499 1176 CURVE SMOOTH",
"666 1176 OFFCURVE",
"814 1076 OFFCURVE",
"877 921 CURVE SMOOTH",
"893 882 LINE",
"933 894 LINE SMOOTH",
"959 902 OFFCURVE",
"986 906 OFFCURVE",
"1013 906 CURVE SMOOTH",
"1164 906 OFFCURVE",
"1287 784 OFFCURVE",
"1287 633 CURVE SMOOTH",
"1287 483 OFFCURVE",
"1164 360 OFFCURVE",
"1013 360 CURVE SMOOTH",
"960 361 LINE",
"517 360 LINE",
"493 360 LINE SMOOTH"
);
},
{
closed = 1;
nodes = (
"1018 1274 OFFCURVE",
"1039 1294 OFFCURVE",
"1039 1319 CURVE SMOOTH",
"1039 1494 LINE SMOOTH",
"1039 1519 OFFCURVE",
"1018 1539 OFFCURVE",
"993 1539 CURVE SMOOTH",
"968 1539 OFFCURVE",
"948 1519 OFFCURVE",
"948 1494 CURVE SMOOTH",
"948 1319 LINE SMOOTH",
"948 1294 OFFCURVE",
"968 1274 OFFCURVE",
"993 1274 CURVE SMOOTH"
);
},
{
closed = 1;
nodes = (
"968 21 OFFCURVE",
"948 0 OFFCURVE",
"948 -25 CURVE SMOOTH",
"948 -199 LINE SMOOTH",
"948 -225 OFFCURVE",
"968 -245 OFFCURVE",
"993 -245 CURVE SMOOTH",
"1018 -245 OFFCURVE",
"1039 -225 OFFCURVE",
"1039 -199 CURVE SMOOTH",
"1039 -25 LINE SMOOTH",
"1039 0 OFFCURVE",
"1018 21 OFFCURVE",
"993 21 CURVE SMOOTH"
);
},
{
closed = 1;
nodes = (
"1665 693 LINE SMOOTH",
"1640 693 OFFCURVE",
"1620 672 OFFCURVE",
"1620 647 CURVE SMOOTH",
"1620 622 OFFCURVE",
"1640 602 OFFCURVE",
"1665 602 CURVE SMOOTH",
"1840 602 LINE SMOOTH",
"1865 602 OFFCURVE",
"1885 622 OFFCURVE",
"1885 647 CURVE SMOOTH",
"1885 672 OFFCURVE",
"1865 693 OFFCURVE",
"1840 693 CURVE SMOOTH"
);
},
{
closed = 1;
nodes = (
"1483 222 OFFCURVE",
"1454 222 OFFCURVE",
"1436 204 CURVE SMOOTH",
"1418 186 OFFCURVE",
"1418 158 OFFCURVE",
"1436 140 CURVE SMOOTH",
"1560 16 LINE SMOOTH",
"1568 7 OFFCURVE",
"1580 3 OFFCURVE",
"1592 3 CURVE SMOOTH",
"1603 3 OFFCURVE",
"1615 7 OFFCURVE",
"1624 16 CURVE SMOOTH",
"1642 34 OFFCURVE",
"1642 63 OFFCURVE",
"1624 81 CURVE SMOOTH",
"1500 204 LINE SMOOTH"
);
},
{
closed = 1;
nodes = (
"1480 1077 OFFCURVE",
"1492 1081 OFFCURVE",
"1500 1090 CURVE SMOOTH",
"1624 1214 LINE SMOOTH",
"1642 1231 OFFCURVE",
"1642 1260 OFFCURVE",
"1624 1278 CURVE SMOOTH",
"1606 1296 OFFCURVE",
"1577 1296 OFFCURVE",
"1560 1278 CURVE SMOOTH",
"1436 1155 LINE SMOOTH",
"1418 1137 OFFCURVE",
"1418 1108 OFFCURVE",
"1436 1090 CURVE SMOOTH",
"1445 1081 OFFCURVE",
"1457 1077 OFFCURVE",
"1468 1077 CURVE SMOOTH"
);
},
{
closed = 1;
nodes = (
"362 81 LINE SMOOTH",
"344 63 OFFCURVE",
"344 34 OFFCURVE",
"362 16 CURVE SMOOTH",
"371 7 OFFCURVE",
"383 3 OFFCURVE",
"394 3 CURVE SMOOTH",
"406 3 OFFCURVE",
"418 7 OFFCURVE",
"427 16 CURVE SMOOTH",
"550 140 LINE SMOOTH",
"568 158 OFFCURVE",
"568 186 OFFCURVE",
"550 204 CURVE SMOOTH",
"532 222 OFFCURVE",
"504 222 OFFCURVE",
"486 204 CURVE SMOOTH"
);
}
);
width = 1885;
}
);
},
{
glyphname = cloud;
lastChange = "2013-05-10 11:37:57 -0500";
layers = (
{
layerId = "E8902836-E278-4207-B18F-2ADDB08A6CA3";
name = Regular;
paths = (
{
closed = 1;
nodes = (
"1023 260 LINE SMOOTH",
"1018 260 LINE SMOOTH",
"452 260 LINE SMOOTH",
"452 263 LINE SMOOTH",
"199 290 OFFCURVE",
"0 507 OFFCURVE",
"0 766 CURVE",
"0 1044 OFFCURVE",
"227 1271 OFFCURVE",
"505 1271 CURVE",
"699 1271 OFFCURVE",
"872 1163 OFFCURVE",
"957 991 CURVE SMOOTH",
"980 996 OFFCURVE",
"1003 998 OFFCURVE",
"1026 998 CURVE",
"1229 998 OFFCURVE",
"1395 833 OFFCURVE",
"1395 629 CURVE",
"1395 439 OFFCURVE",
"1250 282 OFFCURVE",
"1064 262 CURVE SMOOTH",
"1064 261 LINE SMOOTH",
"1037 261 LINE",
"1033 260 OFFCURVE",
"1030 260 OFFCURVE",
"1026 260 CURVE"
);
},
{
closed = 1;
nodes = (
"1026 353 LINE",
"1179 353 OFFCURVE",
"1303 477 OFFCURVE",
"1303 629 CURVE",
"1303 782 OFFCURVE",
"1179 906 OFFCURVE",
"1026 906 CURVE",
"998 906 OFFCURVE",
"971 902 OFFCURVE",
"945 894 CURVE",
"904 881 LINE SMOOTH",
"888 920 LINE",
"825 1077 OFFCURVE",
"674 1179 OFFCURVE",
"505 1179 CURVE",
"278 1179 OFFCURVE",
"92 994 OFFCURVE",
"92 766 CURVE",
"92 541 OFFCURVE",
"275 356 OFFCURVE",
"499 353 CURVE",
"523 353 LINE SMOOTH",
"972 354 LINE SMOOTH"
);
}
);
width = 1395;
}
);
unicode = 2601;
},
{
glyphname = thunder;
lastChange = "2013-05-08 10:39:59 -0500";
layers = (
{
layerId = "E8902836-E278-4207-B18F-2ADDB08A6CA3";
name = Regular;
paths = (
{
closed = 1;
nodes = (
"984 1036 OFFCURVE",
"961 1034 OFFCURVE",
"939 1030 CURVE",
"855 1197 OFFCURVE",
"685 1304 OFFCURVE",
"496 1304 CURVE SMOOTH",
"223 1304 OFFCURVE",
"0 1081 OFFCURVE",
"0 808 CURVE SMOOTH",
"0 554 OFFCURVE",
"196 342 OFFCURVE",
"444 316 CURVE",
"444 313 LINE",
"527 313 LINE",
"388 -26 LINE",
"599 -31 LINE",
"505 -326 LINE",
"859 131 LINE",
"678 135 LINE",
"775 313 LINE",
"999 313 LINE",
"1004 313 LINE SMOOTH",
"1005 313 OFFCURVE",
"1005 313 OFFCURVE",
"1006 313 CURVE SMOOTH",
"1010 313 OFFCURVE",
"1013 313 OFFCURVE",
"1017 313 CURVE SMOOTH",
"1044 313 LINE",
"1044 315 LINE",
"1226 334 OFFCURVE",
"1368 488 OFFCURVE",
"1368 675 CURVE SMOOTH",
"1368 874 OFFCURVE",
"1206 1036 OFFCURVE",
"1006 1036 CURVE SMOOTH"
);
},
{
closed = 1;
nodes = (
"953 404 LINE",
"513 403 LINE",
"490 404 LINE SMOOTH",
"270 407 OFFCURVE",
"91 588 OFFCURVE",
"91 808 CURVE SMOOTH",
"91 1032 OFFCURVE",
"272 1213 OFFCURVE",
"496 1213 CURVE SMOOTH",
"662 1213 OFFCURVE",
"809 1114 OFFCURVE",
"871 960 CURVE SMOOTH",
"887 921 LINE",
"926 934 LINE SMOOTH",
"952 942 OFFCURVE",
"979 946 OFFCURVE",
"1006 946 CURVE SMOOTH",
"1156 946 OFFCURVE",
"1277 824 OFFCURVE",
"1277 675 CURVE SMOOTH",
"1277 525 OFFCURVE",
"1156 403 OFFCURVE",
"1006 403 CURVE SMOOTH"
);
}
);
width = 1368;
}
);
unicode = 0049;
},
{
glyphname = snow;
lastChange = "2013-05-08 10:38:22 -0500";
layers = (
{
layerId = "E8902836-E278-4207-B18F-2ADDB08A6CA3";
name = Regular;
paths = (
{
closed = 1;
nodes = (
"1010 1010 OFFCURVE",
"987 1008 OFFCURVE",
"964 1004 CURVE",
"878 1176 OFFCURVE",
"704 1285 OFFCURVE",
"509 1285 CURVE SMOOTH",
"228 1285 OFFCURVE",
"0 1057 OFFCURVE",
"0 776 CURVE SMOOTH",
"0 552 OFFCURVE",
"144 357 OFFCURVE",
"358 291 CURVE SMOOTH",
"382 283 OFFCURVE",
"408 297 OFFCURVE",
"416 321 CURVE SMOOTH",
"423 346 OFFCURVE",
"410 372 OFFCURVE",
"385 379 CURVE SMOOTH",
"210 434 OFFCURVE",
"93 593 OFFCURVE",
"93 776 CURVE SMOOTH",
"93 1006 OFFCURVE",
"280 1192 OFFCURVE",
"509 1192 CURVE SMOOTH",
"679 1192 OFFCURVE",
"831 1090 OFFCURVE",
"894 932 CURVE SMOOTH",
"910 892 LINE",
"951 905 LINE SMOOTH",
"978 913 OFFCURVE",
"1005 917 OFFCURVE",
"1033 917 CURVE SMOOTH",
"1187 917 OFFCURVE",
"1312 792 OFFCURVE",
"1312 639 CURVE SMOOTH",
"1312 495 OFFCURVE",
"1204 376 OFFCURVE",
"1062 362 CURVE SMOOTH",
"1036 359 OFFCURVE",
"1018 336 OFFCURVE",
"1020 311 CURVE SMOOTH",
"1023 287 OFFCURVE",
"1043 269 OFFCURVE",
"1066 269 CURVE SMOOTH",
"1068 269 OFFCURVE",
"1070 269 OFFCURVE",
"1071 269 CURVE SMOOTH",
"1261 289 OFFCURVE",
"1405 447 OFFCURVE",
"1405 639 CURVE SMOOTH",
"1405 844 OFFCURVE",
"1238 1010 OFFCURVE",
"1033 1010 CURVE SMOOTH"
);
},
{
closed = 1;
nodes = (
"483 331 OFFCURVE",
"457 305 OFFCURVE",
"457 273 CURVE SMOOTH",
"457 241 OFFCURVE",
"483 215 OFFCURVE",
"515 215 CURVE SMOOTH",
"547 215 OFFCURVE",
"573 241 OFFCURVE",
"573 273 CURVE SMOOTH",
"573 305 OFFCURVE",
"547 331 OFFCURVE",
"515 331 CURVE SMOOTH"
);
},
{
closed = 1;
nodes = (
"682 467 OFFCURVE",
"656 441 OFFCURVE",
"656 409 CURVE SMOOTH",
"656 377 OFFCURVE",
"682 351 OFFCURVE",
"714 351 CURVE SMOOTH",
"746 351 OFFCURVE",
"772 377 OFFCURVE",
"772 409 CURVE SMOOTH",
"772 441 OFFCURVE",
"746 467 OFFCURVE",
"714 467 CURVE SMOOTH"
);
},
{
closed = 1;
nodes = (
"881 331 OFFCURVE",
"855 305 OFFCURVE",
"855 273 CURVE SMOOTH",
"855 241 OFFCURVE",
"881 215 OFFCURVE",
"913 215 CURVE SMOOTH",
"945 215 OFFCURVE",
"971 241 OFFCURVE",
"971 273 CURVE SMOOTH",
"971 305 OFFCURVE",
"945 331 OFFCURVE",
"913 331 CURVE SMOOTH"
);
},
{
closed = 1;
nodes = (
"483 105 OFFCURVE",
"457 79 OFFCURVE",
"457 47 CURVE SMOOTH",
"457 15 OFFCURVE",
"483 -11 OFFCURVE",
"515 -11 CURVE SMOOTH",
"547 -11 OFFCURVE",
"573 15 OFFCURVE",
"573 47 CURVE SMOOTH",
"573 79 OFFCURVE",
"547 105 OFFCURVE",
"515 105 CURVE SMOOTH"
);
},
{
closed = 1;
nodes = (
"682 240 OFFCURVE",
"656 214 OFFCURVE",
"656 182 CURVE SMOOTH",
"656 150 OFFCURVE",
"682 124 OFFCURVE",
"714 124 CURVE SMOOTH",
"746 124 OFFCURVE",
"772 150 OFFCURVE",
"772 182 CURVE SMOOTH",
"772 214 OFFCURVE",
"746 240 OFFCURVE",
"714 240 CURVE SMOOTH"
);
},
{
closed = 1;
nodes = (
"881 105 OFFCURVE",
"855 79 OFFCURVE",
"855 47 CURVE SMOOTH",
"855 15 OFFCURVE",
"881 -11 OFFCURVE",
"913 -11 CURVE SMOOTH",
"945 -11 OFFCURVE",
"971 15 OFFCURVE",
"971 47 CURVE SMOOTH",
"971 79 OFFCURVE",
"945 105 OFFCURVE",
"913 105 CURVE SMOOTH"
);
},
{
closed = 1;
nodes = (
"483 -120 OFFCURVE",
"457 -146 OFFCURVE",
"457 -178 CURVE SMOOTH",
"457 -210 OFFCURVE",
"483 -236 OFFCURVE",
"515 -236 CURVE SMOOTH",
"547 -236 OFFCURVE",
"573 -210 OFFCURVE",
"573 -178 CURVE SMOOTH",
"573 -146 OFFCURVE",
"547 -120 OFFCURVE",
"515 -120 CURVE SMOOTH"
);
},
{
closed = 1;
nodes = (
"682 16 OFFCURVE",
"656 -10 OFFCURVE",
"656 -42 CURVE SMOOTH",
"656 -74 OFFCURVE",
"682 -100 OFFCURVE",
"714 -100 CURVE SMOOTH",
"746 -100 OFFCURVE",
"772 -74 OFFCURVE",
"772 -42 CURVE SMOOTH",
"772 -10 OFFCURVE",
"746 16 OFFCURVE",
"714 16 CURVE SMOOTH"
);
},
{
closed = 1;
nodes = (
"881 -120 OFFCURVE",
"855 -146 OFFCURVE",
"855 -178 CURVE SMOOTH",
"855 -210 OFFCURVE",
"881 -236 OFFCURVE",
"913 -236 CURVE SMOOTH",
"945 -236 OFFCURVE",
"971 -210 OFFCURVE",
"971 -178 CURVE SMOOTH",
"971 -146 OFFCURVE",
"945 -120 OFFCURVE",
"913 -120 CURVE SMOOTH"
);
}
);
width = 1405;
}
);
unicode = 004A;
},
{
glyphname = rain;
lastChange = "2013-05-08 11:00:57 -0500";
layers = (
{
layerId = "E8902836-E278-4207-B18F-2ADDB08A6CA3";
name = Regular;
paths = (
{
closed = 1;
nodes = (
"1007 1000 OFFCURVE",
"984 998 OFFCURVE",
"962 993 CURVE",
"876 1165 OFFCURVE",
"702 1274 OFFCURVE",
"508 1274 CURVE SMOOTH",
"228 1274 OFFCURVE",
"0 1046 OFFCURVE",
"0 766 CURVE SMOOTH",
"0 543 OFFCURVE",
"144 348 OFFCURVE",
"357 282 CURVE SMOOTH",
"381 274 OFFCURVE",
"407 288 OFFCURVE",
"415 313 CURVE SMOOTH",
"422 337 OFFCURVE",
"409 363 OFFCURVE",
"384 370 CURVE SMOOTH",
"210 425 OFFCURVE",
"93 584 OFFCURVE",
"93 766 CURVE SMOOTH",
"93 995 OFFCURVE",
"279 1181 OFFCURVE",
"508 1181 CURVE SMOOTH",
"678 1181 OFFCURVE",
"828 1079 OFFCURVE",
"892 922 CURVE SMOOTH",
"908 882 LINE",
"949 895 LINE SMOOTH",
"975 903 OFFCURVE",
"1003 907 OFFCURVE",
"1031 907 CURVE SMOOTH",
"1184 907 OFFCURVE",
"1308 783 OFFCURVE",
"1308 629 CURVE SMOOTH",
"1308 486 OFFCURVE",
"1201 367 OFFCURVE",
"1059 353 CURVE SMOOTH",
"1034 351 OFFCURVE",
"1015 328 OFFCURVE",
"1018 302 CURVE SMOOTH",
"1020 278 OFFCURVE",
"1040 261 OFFCURVE",
"1064 261 CURVE SMOOTH",
"1065 261 OFFCURVE",
"1067 261 OFFCURVE",
"1068 261 CURVE SMOOTH",
"1258 280 OFFCURVE",
"1401 438 OFFCURVE",
"1401 629 CURVE SMOOTH",
"1401 834 OFFCURVE",
"1235 1000 OFFCURVE",
"1031 1000 CURVE SMOOTH"
);
},
{
closed = 1;
nodes = (
"481 -127 OFFCURVE",
"456 -153 OFFCURVE",
"456 -185 CURVE SMOOTH",
"456 -217 OFFCURVE",
"481 -243 OFFCURVE",
"513 -243 CURVE SMOOTH",
"545 -243 OFFCURVE",
"571 -217 OFFCURVE",
"571 -185 CURVE SMOOTH",
"571 -153 OFFCURVE",
"545 -127 OFFCURVE",
"513 -127 CURVE SMOOTH"
);
},
{
closed = 1;
nodes = (
"680 8 OFFCURVE",
"654 -18 OFFCURVE",
"654 -50 CURVE SMOOTH",
"654 -82 OFFCURVE",
"680 -108 OFFCURVE",
"712 -108 CURVE SMOOTH",
"744 -108 OFFCURVE",
"770 -82 OFFCURVE",
"770 -50 CURVE SMOOTH",
"770 -18 OFFCURVE",
"744 8 OFFCURVE",
"712 8 CURVE SMOOTH"
);
},
{
closed = 1;
nodes = (
"879 -127 OFFCURVE",
"853 -153 OFFCURVE",
"853 -185 CURVE SMOOTH",
"853 -217 OFFCURVE",
"879 -243 OFFCURVE",
"911 -243 CURVE SMOOTH",
"943 -243 OFFCURVE",
"969 -217 OFFCURVE",
"969 -185 CURVE SMOOTH",
"969 -153 OFFCURVE",
"943 -127 OFFCURVE",
"911 -127 CURVE SMOOTH"
);
},
{
closed = 1;
nodes = (
"539 -34 OFFCURVE",
"560 -14 OFFCURVE",
"560 12 CURVE SMOOTH",
"560 459 LINE SMOOTH",
"560 485 OFFCURVE",
"539 506 OFFCURVE",
"513 506 CURVE SMOOTH",
"488 506 OFFCURVE",
"467 485 OFFCURVE",
"467 459 CURVE SMOOTH",
"467 12 LINE SMOOTH",
"467 -14 OFFCURVE",
"488 -34 OFFCURVE",
"513 -34 CURVE SMOOTH"
);
},
{
closed = 1;
nodes = (
"937 -34 OFFCURVE",
"957 -14 OFFCURVE",
"957 12 CURVE SMOOTH",
"957 459 LINE SMOOTH",
"957 485 OFFCURVE",
"937 506 OFFCURVE",
"911 506 CURVE SMOOTH",
"885 506 OFFCURVE",
"865 485 OFFCURVE",
"865 459 CURVE SMOOTH",
"865 12 LINE SMOOTH",
"865 -14 OFFCURVE",
"885 -34 OFFCURVE",
"911 -34 CURVE SMOOTH"
);
},
{
closed = 1;
nodes = (
"738 89 OFFCURVE",
"759 110 OFFCURVE",
"759 135 CURVE SMOOTH",
"759 583 LINE SMOOTH",
"759 608 OFFCURVE",
"738 629 OFFCURVE",
"712 629 CURVE SMOOTH",
"687 629 OFFCURVE",
"666 608 OFFCURVE",
"666 583 CURVE SMOOTH",
"666 135 LINE SMOOTH",
"666 110 OFFCURVE",
"687 89 OFFCURVE",
"712 89 CURVE SMOOTH"
);
}
);
width = 1401;
}
);
unicode = 26C6;
},
{
glyphname = moon;
lastChange = "2013-05-08 11:02:22 -0500";
layers = (
{
layerId = "E8902836-E278-4207-B18F-2ADDB08A6CA3";
name = Regular;
paths = (
{
closed = 1;
nodes = (
"217 1300 OFFCURVE",
"0 1067 OFFCURVE",
"0 784 CURVE SMOOTH",
"0 483 OFFCURVE",
"244 239 OFFCURVE",
"544 239 CURVE SMOOTH",
"684 239 OFFCURVE",
"811 292 OFFCURVE",
"907 378 CURVE",
"891 377 OFFCURVE",
"874 376 OFFCURVE",
"857 376 CURVE SMOOTH",
"557 376 OFFCURVE",
"313 619 OFFCURVE",
"313 920 CURVE SMOOTH",
"313 1081 OFFCURVE",
"383 1226 OFFCURVE",
"494 1325 CURVE"
);
}
);
width = 907;
}
);
unicode = 004C;
},
{
glyphname = cloud_moon;
lastChange = "2013-05-11 10:00:58 -0500";
layers = (
{
layerId = "E8902836-E278-4207-B18F-2ADDB08A6CA3";
name = Regular;
paths = (
{
closed = 1;
nodes = (
"487 205 LINE SMOOTH",
"267 208 OFFCURVE",
"90 387 OFFCURVE",
"90 607 CURVE SMOOTH",
"90 718 OFFCURVE",
"135 819 OFFCURVE",
"208 892 CURVE SMOOTH",
"281 965 OFFCURVE",
"381 1010 OFFCURVE",
"493 1010 CURVE SMOOTH",
"493 1010 LINE SMOOTH",
"662 1010 OFFCURVE",
"806 905 OFFCURVE",
"866 758 CURVE SMOOTH",
"881 721 LINE",
"916 738 OFFCURVE",
"956 748 OFFCURVE",
"998 748 CURVE SMOOTH",
"1143 748 OFFCURVE",
"1261 634 OFFCURVE",
"1269 492 CURVE SMOOTH",
"1269 486 OFFCURVE",
"1269 480 OFFCURVE",
"1269 474 CURVE SMOOTH",
"1269 400 OFFCURVE",
"1239 333 OFFCURVE",
"1190 284 CURVE SMOOTH",
"1142 235 OFFCURVE",
"1075 205 OFFCURVE",
"1000 205 CURVE",
"995 205 LINE",
"947 208 LINE",
"947 205 LINE",
"511 205 LINE"
);
},
{
closed = 1;
nodes = (
"1047 1486 OFFCURVE",
"855 1280 OFFCURVE",
"855 1029 CURVE SMOOTH",
"855 994 OFFCURVE",
"859 960 OFFCURVE",
"866 927 CURVE",
"776 1032 OFFCURVE",
"642 1099 OFFCURVE",
"493 1099 CURVE SMOOTH",
"221 1099 OFFCURVE",
"0 879 OFFCURVE",
"0 607 CURVE SMOOTH",
"0 353 OFFCURVE",
"194 144 OFFCURVE",
"441 118 CURVE",
"441 115 LINE",
"1037 115 LINE",
"1037 117 LINE",
"1218 136 OFFCURVE",
"1359 288 OFFCURVE",
"1359 474 CURVE SMOOTH",
"1359 500 OFFCURVE",
"1356 525 OFFCURVE",
"1351 549 CURVE",
"1468 553 OFFCURVE",
"1575 598 OFFCURVE",
"1657 671 CURVE",
"1642 670 OFFCURVE",
"1627 669 OFFCURVE",
"1612 669 CURVE SMOOTH",
"1347 669 OFFCURVE",
"1132 884 OFFCURVE",
"1132 1150 CURVE SMOOTH",
"1132 1292 OFFCURVE",
"1193 1420 OFFCURVE",
"1292 1508 CURVE"
);
}
);
width = 1657;
}
);
unicode = 0023;
},
{
glyphname = music;
lastChange = "2013-05-08 11:06:53 -0500";
layers = (
{
layerId = "E8902836-E278-4207-B18F-2ADDB08A6CA3";
name = Regular;
paths = (
{
closed = 1;
nodes = (
"1360 1468 OFFCURVE",
"1332 1490 OFFCURVE",
"1296 1481 CURVE SMOOTH",
"469 1268 LINE SMOOTH",
"434 1259 OFFCURVE",
"405 1223 OFFCURVE",
"405 1188 CURVE SMOOTH",
"405 830 LINE SMOOTH",
"405 830 OFFCURVE",
"405 830 OFFCURVE",
"405 829 CURVE SMOOTH",
"405 267 LINE",
"354 290 OFFCURVE",
"293 298 OFFCURVE",
"229 287 CURVE SMOOTH",
"84 262 OFFCURVE",
"-17 146 OFFCURVE",
"3 29 CURVE SMOOTH",
"23 -88 OFFCURVE",
"157 -162 OFFCURVE",
"302 -137 CURVE SMOOTH",
"442 -113 OFFCURVE",
"541 -4 OFFCURVE",
"529 108 CURVE",
"530 111 OFFCURVE",
"530 114 OFFCURVE",
"530 117 CURVE SMOOTH",
"530 798 LINE",
"1235 979 LINE",
"1235 425 LINE",
"1184 448 OFFCURVE",
"1123 456 OFFCURVE",
"1059 445 CURVE SMOOTH",
"914 420 OFFCURVE",
"813 304 OFFCURVE",
"833 188 CURVE SMOOTH",
"853 71 OFFCURVE",
"987 -4 OFFCURVE",
"1132 21 CURVE SMOOTH",
"1272 46 OFFCURVE",
"1371 154 OFFCURVE",
"1360 266 CURVE",
"1360 270 OFFCURVE",
"1360 273 OFFCURVE",
"1360 276 CURVE SMOOTH",
"1360 1074 LINE",
"1360 1075 LINE",
"1360 1433 LINE SMOOTH"
);
}
);
width = 1361;
}
);
unicode = 004E;
},
{
glyphname = headphones;
lastChange = "2013-05-08 15:22:02 -0500";
layers = (
{
layerId = "E8902836-E278-4207-B18F-2ADDB08A6CA3";
name = Regular;
paths = (
{
closed = 1;
nodes = (
"1634 629 OFFCURVE",
"1542 686 OFFCURVE",
"1465 702 CURVE SMOOTH",
"1460 794 OFFCURVE",
"1432 1057 OFFCURVE",
"1270 1239 CURVE SMOOTH",
"1292 1261 OFFCURVE",
"1293 1296 OFFCURVE",
"1271 1319 CURVE",
"1155 1443 OFFCURVE",
"983 1512 OFFCURVE",
"802 1508 CURVE",
"623 1504 OFFCURVE",
"457 1429 OFFCURVE",
"347 1301 CURVE",
"327 1278 OFFCURVE",
"329 1243 OFFCURVE",
"352 1222 CURVE SMOOTH",
"192 1033 OFFCURVE",
"179 778 OFFCURVE",
"178 773 CURVE SMOOTH",
"178 704 LINE SMOOTH",
"100 690 OFFCURVE",
"0 636 OFFCURVE",
"0 449 CURVE",
"0 254 OFFCURVE",
"107 189 OFFCURVE",
"186 167 CURVE SMOOTH",
"191 109 OFFCURVE",
"240 63 OFFCURVE",
"300 63 CURVE",
"363 63 OFFCURVE",
"414 114 OFFCURVE",
"414 177 CURVE",
"414 726 LINE",
"414 789 OFFCURVE",
"363 839 OFFCURVE",
"301 840 CURVE SMOOTH",
"326 987 OFFCURVE",
"428 1311 OFFCURVE",
"824 1311 CURVE",
"1177 1311 OFFCURVE",
"1294 1030 OFFCURVE",
"1333 840 CURVE SMOOTH",
"1272 837 OFFCURVE",
"1224 787 OFFCURVE",
"1224 726 CURVE",
"1224 177 LINE",
"1224 129 OFFCURVE",
"1253 88 OFFCURVE",
"1295 71 CURVE SMOOTH",
"1295 -230 LINE",
"1295 -246 OFFCURVE",
"1308 -258 OFFCURVE",
"1323 -258 CURVE",
"1339 -258 OFFCURVE",
"1352 -246 OFFCURVE",
"1352 -230 CURVE",
"1352 64 LINE SMOOTH",
"1405 71 OFFCURVE",
"1447 114 OFFCURVE",
"1451 168 CURVE SMOOTH",
"1530 191 OFFCURVE",
"1634 257 OFFCURVE",
"1634 449 CURVE"
);
}
);
width = 1634;
}
);
unicode = 004F;
},
{
glyphname = headphones_play;
lastChange = "2013-05-08 15:21:46 -0500";
layers = (
{
layerId = "E8902836-E278-4207-B18F-2ADDB08A6CA3";
name = Regular;
paths = (
{
closed = 1;
nodes = (
"1634 629 OFFCURVE",
"1542 686 OFFCURVE",
"1465 702 CURVE SMOOTH",
"1460 794 OFFCURVE",
"1432 1057 OFFCURVE",
"1270 1239 CURVE SMOOTH",
"1292 1261 OFFCURVE",
"1293 1296 OFFCURVE",
"1271 1319 CURVE",
"1155 1443 OFFCURVE",
"983 1512 OFFCURVE",
"802 1508 CURVE",
"623 1504 OFFCURVE",
"457 1429 OFFCURVE",
"347 1301 CURVE",
"327 1278 OFFCURVE",
"329 1243 OFFCURVE",
"352 1222 CURVE SMOOTH",
"192 1033 OFFCURVE",
"179 778 OFFCURVE",
"178 773 CURVE SMOOTH",
"178 704 LINE SMOOTH",
"100 690 OFFCURVE",
"0 636 OFFCURVE",
"0 449 CURVE",
"0 254 OFFCURVE",
"107 189 OFFCURVE",
"186 167 CURVE SMOOTH",
"191 109 OFFCURVE",
"240 63 OFFCURVE",
"300 63 CURVE",
"363 63 OFFCURVE",
"414 114 OFFCURVE",
"414 177 CURVE",
"414 726 LINE",
"414 789 OFFCURVE",
"363 839 OFFCURVE",
"301 840 CURVE SMOOTH",
"326 987 OFFCURVE",
"428 1311 OFFCURVE",
"824 1311 CURVE",
"1177 1311 OFFCURVE",
"1294 1030 OFFCURVE",
"1333 840 CURVE SMOOTH",
"1272 837 OFFCURVE",
"1224 787 OFFCURVE",
"1224 726 CURVE",
"1224 177 LINE",
"1224 129 OFFCURVE",
"1253 88 OFFCURVE",
"1295 71 CURVE SMOOTH",
"1295 -230 LINE",
"1295 -246 OFFCURVE",
"1308 -258 OFFCURVE",
"1323 -258 CURVE",
"1339 -258 OFFCURVE",
"1352 -246 OFFCURVE",
"1352 -230 CURVE",
"1352 64 LINE SMOOTH",
"1405 71 OFFCURVE",
"1447 114 OFFCURVE",
"1451 168 CURVE SMOOTH",
"1530 191 OFFCURVE",
"1634 257 OFFCURVE",
"1634 449 CURVE"
);
}
);
width = 1634;
}
);
unicode = 005A;
},
{
glyphname = videocamera;
lastChange = "2013-05-08 15:09:53 -0500";
layers = (
{
layerId = "E8902836-E278-4207-B18F-2ADDB08A6CA3";
name = Regular;
paths = (
{
closed = 1;
nodes = (
"688 828 OFFCURVE",
"642 782 OFFCURVE",
"642 726 CURVE SMOOTH",
"642 669 OFFCURVE",
"688 624 OFFCURVE",
"744 624 CURVE SMOOTH",
"801 624 OFFCURVE",
"846 669 OFFCURVE",
"846 726 CURVE SMOOTH",
"846 782 OFFCURVE",
"801 828 OFFCURVE",
"744 828 CURVE SMOOTH"
);
},
{
closed = 1;
nodes = (
"994 828 OFFCURVE",
"948 782 OFFCURVE",
"948 726 CURVE SMOOTH",
"948 669 OFFCURVE",
"994 624 OFFCURVE",
"1050 624 CURVE SMOOTH",
"1106 624 OFFCURVE",
"1152 669 OFFCURVE",
"1152 726 CURVE",
"1152 782 OFFCURVE",
"1106 828 OFFCURVE",
"1050 828 CURVE SMOOTH"
);
},
{
closed = 1;
nodes = (
"1962 1187 LINE SMOOTH",
"1880 1187 OFFCURVE",
"1830 1132 OFFCURVE",
"1830 1132 CURVE",
"1633 933 LINE",
"1633 1149 LINE",
"1625 1208 OFFCURVE",
"1574 1254 OFFCURVE",
"1512 1254 CURVE SMOOTH",
"383 1254 LINE SMOOTH",
"316 1254 OFFCURVE",
"260 1200 OFFCURVE",
"260 1132 CURVE",
"179 1132 LINE",
"171 1132 LINE",
"159 1142 LINE",
"159 1142 OFFCURVE",
"130 1174 OFFCURVE",
"84 1174 CURVE SMOOTH",
"38 1174 LINE SMOOTH",
"38 1174 OFFCURVE",
"0 1172 OFFCURVE",
"0 1123 CURVE SMOOTH",
"0 727 LINE SMOOTH",
"0 678 OFFCURVE",
"38 676 OFFCURVE",
"38 676 CURVE",
"84 676 LINE SMOOTH",
"130 676 OFFCURVE",
"159 707 OFFCURVE",
"159 707 CURVE",
"165 714 LINE",
"179 712 LINE",
"260 712 LINE",
"260 259 LINE",
"278 225 OFFCURVE",
"316 191 OFFCURVE",
"394 191 CURVE SMOOTH",
"952 191 LINE",
"952 191 OFFCURVE",
"964 193 OFFCURVE",
"982 193 CURVE SMOOTH",
"1023 193 OFFCURVE",
"1094 184 OFFCURVE",
"1131 129 CURVE SMOOTH",
"1184 52 OFFCURVE",
"1186 29 OFFCURVE",
"1302 26 CURVE SMOOTH",
"1512 26 LINE SMOOTH",
"1574 26 OFFCURVE",
"1625 73 OFFCURVE",
"1633 132 CURVE",
"1633 562 LINE",
"1830 363 LINE",
"1830 363 OFFCURVE",
"1880 308 OFFCURVE",
"1962 308 CURVE SMOOTH",
"2043 308 LINE",
"2043 308 OFFCURVE",
"2111 310 OFFCURVE",
"2111 398 CURVE SMOOTH",
"2111 744 LINE",
"2111 751 LINE",
"2111 1097 LINE SMOOTH",
"2111 1185 OFFCURVE",
"2043 1187 OFFCURVE",
"2043 1187 CURVE SMOOTH"
);
},
{
closed = 1;
nodes = (
"1263 557 OFFCURVE",
"1213 504 OFFCURVE",
"1151 504 CURVE SMOOTH",
"646 504 LINE SMOOTH",
"584 504 OFFCURVE",
"533 557 OFFCURVE",
"533 621 CURVE SMOOTH",
"533 824 LINE SMOOTH",
"533 888 OFFCURVE",
"584 941 OFFCURVE",
"646 941 CURVE SMOOTH",
"1151 941 LINE SMOOTH",
"1213 941 OFFCURVE",
"1263 888 OFFCURVE",
"1263 824 CURVE SMOOTH",
"1263 621 LINE SMOOTH"
);
}
);
width = 2111;
}
);
unicode = 0058;
},
{
glyphname = video;
lastChange = "2013-05-08 15:03:57 -0500";
layers = (
{
layerId = "E8902836-E278-4207-B18F-2ADDB08A6CA3";
name = Regular;
paths = (
{
closed = 1;
nodes = (
"1851 1300 LINE SMOOTH",
"1851 1330 OFFCURVE",
"1820 1353 OFFCURVE",
"1782 1353 CURVE SMOOTH",
"70 1353 LINE SMOOTH",
"32 1353 OFFCURVE",
"0 1330 OFFCURVE",
"0 1300 CURVE SMOOTH",
"0 1277 LINE",
"46 1277 LINE",
"46 1166 LINE",
"0 1166 LINE",
"0 1103 LINE",
"178 1103 LINE SMOOTH",
"215 1103 OFFCURVE",
"246 1079 OFFCURVE",
"246 1051 CURVE SMOOTH",
"246 758 LINE",
"246 325 LINE",
"246 303 LINE SMOOTH",
"246 274 OFFCURVE",
"215 251 OFFCURVE",
"178 251 CURVE SMOOTH",
"0 251 LINE",
"0 188 LINE",
"46 188 LINE",
"46 77 LINE",
"0 77 LINE",
"0 53 LINE SMOOTH",
"0 24 OFFCURVE",
"32 0 OFFCURVE",
"70 0 CURVE SMOOTH",
"1782 0 LINE SMOOTH",
"1820 0 OFFCURVE",
"1851 24 OFFCURVE",
"1851 53 CURVE SMOOTH",
"1851 77 LINE",
"1793 77 LINE",
"1793 188 LINE",
"1851 188 LINE",
"1851 251 LINE",
"1698 251 LINE SMOOTH",
"1661 251 OFFCURVE",
"1631 274 OFFCURVE",
"1631 303 CURVE SMOOTH",
"1631 325 LINE",
"1631 758 LINE",
"1631 1051 LINE SMOOTH",
"1631 1079 OFFCURVE",
"1661 1103 OFFCURVE",
"1698 1103 CURVE SMOOTH",
"1851 1103 LINE",
"1851 1166 LINE",
"1793 1166 LINE",
"1793 1276 LINE",
"1851 1276 LINE"
);
},
{
closed = 1;
nodes = (
"1493 1276 LINE",
"1493 1166 LINE",
"1384 1166 LINE",
"1384 1276 LINE"
);
},
{
closed = 1;
nodes = (
"1287 1276 LINE",
"1287 1166 LINE",
"1179 1166 LINE",
"1179 1276 LINE"
);
},
{
closed = 1;
nodes = (
"1082 1276 LINE",
"1082 1166 LINE",
"969 1166 LINE",
"969 1276 LINE"
);
},
{
closed = 1;
nodes = (
"870 1277 LINE",
"870 1166 LINE",
"758 1166 LINE",
"758 1277 LINE"
);
},
{
closed = 1;
nodes = (
"661 1277 LINE",
"661 1166 LINE",
"552 1166 LINE",
"552 1277 LINE"
);
},
{
closed = 1;
nodes = (
"455 1277 LINE",
"455 1166 LINE",
"346 1166 LINE",
"346 1277 LINE"
);
},
{
closed = 1;
nodes = (
"249 1277 LINE",
"249 1166 LINE",
"137 1166 LINE",
"137 1277 LINE"
);
},
{
closed = 1;
nodes = (
"137 77 LINE",
"137 188 LINE",
"249 188 LINE",
"249 77 LINE"
);
},
{
closed = 1;
nodes = (
"346 77 LINE",
"346 188 LINE",
"455 188 LINE",
"455 77 LINE"
);
},
{
closed = 1;
nodes = (
"552 77 LINE",
"552 188 LINE",
"661 188 LINE",
"661 77 LINE"
);
},
{
closed = 1;
nodes = (
"758 77 LINE",
"758 188 LINE",
"870 188 LINE",
"870 77 LINE"
);
},
{
closed = 1;
nodes = (
"969 77 LINE",
"969 188 LINE",
"1082 188 LINE",
"1082 77 LINE"
);
},
{
closed = 1;
nodes = (
"1179 77 LINE",
"1179 188 LINE",
"1287 188 LINE",
"1287 77 LINE"
);
},
{
closed = 1;
nodes = (
"1384 77 LINE",
"1384 188 LINE",
"1493 188 LINE",
"1493 77 LINE"
);
},
{
closed = 1;
nodes = (
"1590 77 LINE",
"1590 188 LINE",
"1703 188 LINE",
"1703 77 LINE"
);
},
{
closed = 1;
nodes = (
"1511 303 LINE SMOOTH",
"1511 274 OFFCURVE",
"1481 251 OFFCURVE",
"1443 251 CURVE SMOOTH",
"432 251 LINE SMOOTH",
"394 251 OFFCURVE",
"364 274 OFFCURVE",
"364 303 CURVE SMOOTH",
"364 325 LINE",
"364 758 LINE",
"364 1051 LINE SMOOTH",
"364 1079 OFFCURVE",
"394 1103 OFFCURVE",
"432 1103 CURVE SMOOTH",
"1443 1103 LINE SMOOTH",
"1481 1103 OFFCURVE",
"1511 1079 OFFCURVE",
"1511 1051 CURVE SMOOTH",
"1511 758 LINE",
"1511 325 LINE"
);
},
{
closed = 1;
nodes = (
"1590 1166 LINE",
"1590 1276 LINE",
"1703 1276 LINE",
"1703 1166 LINE"
);
}
);
width = 1851;
}
);
unicode = 1F3AE;
},
{
glyphname = camera;
lastChange = "2013-05-08 15:13:24 -0500";
layers = (
{
layerId = "E8902836-E278-4207-B18F-2ADDB08A6CA3";
name = Regular;
paths = (
{
closed = 1;
nodes = (
"707 915 OFFCURVE",
"587 795 OFFCURVE",
"587 647 CURVE SMOOTH",
"587 499 OFFCURVE",
"707 379 OFFCURVE",
"855 379 CURVE SMOOTH",
"1003 379 OFFCURVE",
"1123 499 OFFCURVE",
"1123 647 CURVE SMOOTH",
"1123 795 OFFCURVE",
"1003 915 OFFCURVE",
"855 915 CURVE SMOOTH"
);
},
{
closed = 1;
nodes = (
"455 1240 LINE",
"455 1295 OFFCURVE",
"404 1354 OFFCURVE",
"341 1354 CURVE SMOOTH",
"313 1354 LINE SMOOTH",
"251 1354 OFFCURVE",
"199 1295 OFFCURVE",
"199 1240 CURVE",
"114 1240 LINE SMOOTH",
"52 1240 OFFCURVE",
"0 1189 OFFCURVE",
"0 1127 CURVE SMOOTH",
"0 218 LINE SMOOTH",
"0 155 OFFCURVE",
"52 104 OFFCURVE",
"114 104 CURVE SMOOTH",
"1599 104 LINE SMOOTH",
"1662 104 OFFCURVE",
"1713 155 OFFCURVE",
"1713 218 CURVE SMOOTH",
"1713 1127 LINE SMOOTH",
"1713 1189 OFFCURVE",
"1662 1240 OFFCURVE",
"1599 1240 CURVE SMOOTH",
"1512 1240 LINE",
"1512 1295 OFFCURVE",
"1461 1354 OFFCURVE",
"1398 1354 CURVE SMOOTH",
"1171 1354 LINE SMOOTH",
"1109 1354 OFFCURVE",
"1057 1295 OFFCURVE",
"1057 1240 CURVE",
"511 1240 LINE"
);
},
{
closed = 1;
nodes = (
"283 857 OFFCURVE",
"246 894 OFFCURVE",
"246 940 CURVE SMOOTH",
"246 985 OFFCURVE",
"283 1022 OFFCURVE",
"329 1022 CURVE SMOOTH",
"374 1022 OFFCURVE",
"412 985 OFFCURVE",
"412 940 CURVE SMOOTH",
"412 894 OFFCURVE",
"374 857 OFFCURVE",
"329 857 CURVE SMOOTH"
);
},
{
closed = 1;
nodes = (
"631 240 OFFCURVE",
"448 423 OFFCURVE",
"448 647 CURVE SMOOTH",
"448 871 OFFCURVE",
"631 1054 OFFCURVE",
"855 1054 CURVE SMOOTH",
"1080 1054 OFFCURVE",
"1262 871 OFFCURVE",
"1262 647 CURVE SMOOTH",
"1262 423 OFFCURVE",
"1080 240 OFFCURVE",
"855 240 CURVE SMOOTH"
);
}
);
width = 1713;
}
);
unicode = 1F4F7;
},
{
glyphname = images;
lastChange = "2013-05-08 15:04:25 -0500";
layers = (
{
layerId = "E8902836-E278-4207-B18F-2ADDB08A6CA3";
name = Regular;
paths = (
{
closed = 1;
nodes = (
"1358 415 LINE",
"98 415 LINE",
"98 1306 LINE",
"1309 1306 LINE",
"1309 366 LINE",
"1358 366 LINE",
"1358 415 LINE",
"1358 366 LINE",
"1407 366 LINE",
"1407 1404 LINE",
"0 1404 LINE",
"0 317 LINE",
"1407 317 LINE",
"1407 366 LINE",
"1358 366 LINE"
);
},
{
closed = 1;
nodes = (
"1451 1071 LINE",
"1528 1065 LINE",
"1455 177 LINE",
"272 274 LINE",
"149 274 LINE",
"142 187 LINE",
"1545 71 LINE",
"1549 120 LINE",
"1634 1155 LINE",
"1451 1170 LINE"
);
},
{
closed = 1;
nodes = (
"1651 848 LINE",
"1727 837 LINE",
"1602 -45 LINE",
"426 123 LINE",
"304 130 LINE",
"291 43 LINE",
"1685 -155 LINE",
"1692 -107 LINE",
"1838 920 LINE",
"1657 946 LINE"
);
}
);
width = 1838;
}
);
unicode = 0054;
},
{
glyphname = like;
lastChange = "2013-05-08 15:07:03 -0500";
layers = (
{
layerId = "E8902836-E278-4207-B18F-2ADDB08A6CA3";
name = Regular;
paths = (
{
closed = 1;
nodes = (
"1200 981 LINE",
"1200 1245 LINE SMOOTH",
"1200 1342 OFFCURVE",
"1122 1420 OFFCURVE",
"1024 1420 CURVE SMOOTH",
"867 1420 LINE SMOOTH",
"803 1420 OFFCURVE",
"743 1385 OFFCURVE",
"713 1329 CURVE SMOOTH",
"517 968 LINE",
"496 976 OFFCURVE",
"474 981 OFFCURVE",
"451 981 CURVE SMOOTH",
"176 981 LINE SMOOTH",
"79 981 OFFCURVE",
"0 902 OFFCURVE",
"0 805 CURVE SMOOTH",
"0 56 LINE SMOOTH",
"0 -41 OFFCURVE",
"79 -120 OFFCURVE",
"176 -120 CURVE SMOOTH",
"451 -120 LINE SMOOTH",
"529 -120 OFFCURVE",
"595 -69 OFFCURVE",
"618 1 CURVE",
"894 -108 LINE SMOOTH",
"914 -116 OFFCURVE",
"936 -120 OFFCURVE",
"959 -120 CURVE SMOOTH",
"1503 -120 LINE SMOOTH",
"1600 -120 OFFCURVE",
"1679 -41 OFFCURVE",
"1679 56 CURVE SMOOTH",
"1679 805 LINE SMOOTH",
"1679 902 OFFCURVE",
"1600 981 OFFCURVE",
"1503 981 CURVE SMOOTH"
);
},
{
closed = 1;
nodes = (
"176 805 LINE",
"450 805 LINE",
"450 803 OFFCURVE",
"449 801 OFFCURVE",
"449 799 CURVE SMOOTH",
"449 188 LINE SMOOTH",
"449 180 OFFCURVE",
"450 172 OFFCURVE",
"451 164 CURVE",
"451 56 LINE",
"176 56 LINE"
);
},
{
closed = 1;
nodes = (
"959 56 LINE",
"627 187 LINE",
"627 803 LINE",
"867 1245 LINE",
"1024 1245 LINE",
"1024 805 LINE",
"1503 805 LINE",
"1503 56 LINE"
);
},
{
closed = 1;
nodes = (
"365 293 OFFCURVE",
"405 254 OFFCURVE",
"405 205 CURVE SMOOTH",
"405 157 OFFCURVE",
"365 117 OFFCURVE",
"317 117 CURVE SMOOTH",
"268 117 OFFCURVE",
"229 157 OFFCURVE",
"229 205 CURVE SMOOTH",
"229 254 OFFCURVE",
"268 293 OFFCURVE",
"317 293 CURVE SMOOTH"
);
}
);
width = 1679;
}
);
unicode = 0057;
},
{
glyphname = instagram;
lastChange = "2013-05-08 14:56:25 -0500";
layers = (
{
layerId = "E8902836-E278-4207-B18F-2ADDB08A6CA3";
name = Regular;
paths = (
{
closed = 1;
nodes = (
"691 475 OFFCURVE",
"626 540 OFFCURVE",
"626 620 CURVE SMOOTH",
"626 701 OFFCURVE",
"691 766 OFFCURVE",
"771 766 CURVE SMOOTH",
"852 766 OFFCURVE",
"917 701 OFFCURVE",
"917 620 CURVE SMOOTH",
"917 540 OFFCURVE",
"852 475 OFFCURVE",
"771 475 CURVE SMOOTH"
);
},
{
closed = 1;
nodes = (
"965 270 OFFCURVE",
"1122 427 OFFCURVE",
"1122 620 CURVE SMOOTH",
"1122 674 OFFCURVE",
"1110 724 OFFCURVE",
"1089 769 CURVE",
"1365 769 LINE",
"1365 288 LINE SMOOTH",
"1365 160 OFFCURVE",
"1261 56 OFFCURVE",
"1133 56 CURVE SMOOTH",
"395 56 LINE SMOOTH",
"267 56 OFFCURVE",
"163 160 OFFCURVE",
"163 288 CURVE SMOOTH",
"163 769 LINE",
"454 769 LINE",
"433 724 OFFCURVE",
"421 674 OFFCURVE",
"421 620 CURVE SMOOTH",
"421 427 OFFCURVE",
"578 270 OFFCURVE",
"771 270 CURVE SMOOTH"
);
},
{
closed = 1;
nodes = (
"1068 973 OFFCURVE",
"1050 992 OFFCURVE",
"1050 1014 CURVE SMOOTH",
"1050 1141 LINE SMOOTH",
"1050 1164 OFFCURVE",
"1068 1182 OFFCURVE",
"1091 1182 CURVE SMOOTH",
"1217 1182 LINE SMOOTH",
"1240 1182 OFFCURVE",
"1258 1164 OFFCURVE",
"1258 1141 CURVE SMOOTH",
"1258 1014 LINE SMOOTH",
"1258 992 OFFCURVE",
"1240 973 OFFCURVE",
"1217 973 CURVE SMOOTH",
"1091 973 LINE SMOOTH"
);
},
{
closed = 1;
nodes = (
"393 1442 LINE SMOOTH",
"176 1442 OFFCURVE",
"0 1266 OFFCURVE",
"0 1049 CURVE SMOOTH",
"0 273 LINE SMOOTH",
"0 55 OFFCURVE",
"176 -120 OFFCURVE",
"393 -121 CURVE SMOOTH",
"1135 -121 LINE SMOOTH",
"1352 -120 OFFCURVE",
"1528 55 OFFCURVE",
"1528 273 CURVE SMOOTH",
"1528 1049 LINE",
"1528 1266 OFFCURVE",
"1352 1442 OFFCURVE",
"1135 1442 CURVE SMOOTH"
);
}
);
width = 1528;
}
);
unicode = 0052;
},
{
glyphname = error;
lastChange = "2013-05-08 15:24:45 -0500";
layers = (
{
layerId = "E8902836-E278-4207-B18F-2ADDB08A6CA3";
name = Regular;
paths = (
{
closed = 1;
nodes = (
"372 1455 OFFCURVE",
"0 1082 OFFCURVE",
"0 623 CURVE SMOOTH",
"0 164 OFFCURVE",
"372 -209 OFFCURVE",
"831 -209 CURVE SMOOTH",
"1291 -209 OFFCURVE",
"1663 164 OFFCURVE",
"1663 623 CURVE SMOOTH",
"1663 1082 OFFCURVE",
"1291 1455 OFFCURVE",
"831 1455 CURVE SMOOTH"
);
},
{
closed = 1;
nodes = (
"1142 266 OFFCURVE",
"1112 254 OFFCURVE",
"1081 254 CURVE SMOOTH",
"1051 254 OFFCURVE",
"1021 266 OFFCURVE",
"997 289 CURVE SMOOTH",
"832 455 LINE",
"666 289 LINE SMOOTH",
"643 266 OFFCURVE",
"612 254 OFFCURVE",
"582 254 CURVE SMOOTH",
"551 254 OFFCURVE",
"521 266 OFFCURVE",
"498 289 CURVE SMOOTH",
"451 335 OFFCURVE",
"451 411 OFFCURVE",
"498 457 CURVE SMOOTH",
"663 623 LINE",
"498 789 LINE SMOOTH",
"451 835 OFFCURVE",
"451 910 OFFCURVE",
"498 957 CURVE SMOOTH",
"544 1003 OFFCURVE",
"619 1003 OFFCURVE",
"666 957 CURVE SMOOTH",
"831 791 LINE",
"997 957 LINE SMOOTH",
"1043 1003 OFFCURVE",
"1119 1003 OFFCURVE",
"1165 957 CURVE SMOOTH",
"1211 911 OFFCURVE",
"1212 835 OFFCURVE",
"1165 789 CURVE SMOOTH",
"999 623 LINE",
"1165 457 LINE SMOOTH",
"1212 411 OFFCURVE",
"1212 336 OFFCURVE",
"1165 289 CURVE SMOOTH"
);
}
);
width = 1663;
}
);
unicode = 0051;
},
{
glyphname = warn;
lastChange = "2013-05-08 14:54:59 -0500";
layers = (
{
layerId = "E8902836-E278-4207-B18F-2ADDB08A6CA3";
name = Regular;
paths = (
{
closed = 1;
nodes = (
"371 1458 OFFCURVE",
"0 1087 OFFCURVE",
"0 629 CURVE SMOOTH",
"0 171 OFFCURVE",
"371 -200 OFFCURVE",
"829 -200 CURVE SMOOTH",
"1287 -200 OFFCURVE",
"1658 171 OFFCURVE",
"1658 629 CURVE SMOOTH",
"1658 1087 OFFCURVE",
"1287 1458 OFFCURVE",
"829 1458 CURVE SMOOTH"
);
},
{
closed = 1;
nodes = (
"994 1103 OFFCURVE",
"922 827 OFFCURVE",
"922 827 CURVE",
"833 481 LINE",
"732 839 LINE",
"732 839 OFFCURVE",
"664 1103 OFFCURVE",
"829 1103 CURVE SMOOTH"
);
},
{
closed = 1;
nodes = (
"764 155 OFFCURVE",
"711 207 OFFCURVE",
"711 271 CURVE SMOOTH",
"711 334 OFFCURVE",
"764 386 OFFCURVE",
"829 386 CURVE SMOOTH",
"894 386 OFFCURVE",
"947 334 OFFCURVE",
"947 271 CURVE SMOOTH",
"947 207 OFFCURVE",
"894 155 OFFCURVE",
"829 155 CURVE SMOOTH"
);
}
);
width = 1658;
}
);
unicode = 0050;
},
{
glyphname = success;
lastChange = "2013-05-08 15:24:19 -0500";
layers = (
{
layerId = "E8902836-E278-4207-B18F-2ADDB08A6CA3";
name = Regular;
paths = (
{
closed = 1;
nodes = (
"1634 185 OFFCURVE",
"1268 -181 OFFCURVE",
"817 -181 CURVE SMOOTH",
"366 -181 OFFCURVE",
"0 185 OFFCURVE",
"0 636 CURVE SMOOTH",
"0 1088 OFFCURVE",
"366 1454 OFFCURVE",
"817 1454 CURVE SMOOTH",
"1268 1454 OFFCURVE",
"1634 1088 OFFCURVE",
"1634 636 CURVE SMOOTH"
);
},
{
closed = 1;
nodes = (
"680 534 LINE",
"494 752 LINE",
"350 622 LINE",
"695 208 LINE",
"1284 925 LINE",
"1131 1065 LINE"
);
}
);
width = 1634;
}
);
unicode = 0061;
},
{
glyphname = help;
lastChange = "2013-05-10 13:05:32 -0500";
layers = (
{
layerId = "E8902836-E278-4207-B18F-2ADDB08A6CA3";
name = Regular;
paths = (
{
closed = 1;
nodes = (
"1103 1546 OFFCURVE",
"572 1546 OFFCURVE",
"245 1219 CURVE SMOOTH",
"-82 892 OFFCURVE",
"-82 362 OFFCURVE",
"245 35 CURVE SMOOTH",
"572 -293 OFFCURVE",
"1103 -292 OFFCURVE",
"1430 35 CURVE SMOOTH",
"1757 361 OFFCURVE",
"1757 892 OFFCURVE",
"1430 1219 CURVE SMOOTH"
);
},
{
closed = 1;
nodes = (
"711 -47 OFFCURVE",
"637 26 OFFCURVE",
"637 117 CURVE SMOOTH",
"637 209 OFFCURVE",
"710 282 OFFCURVE",
"802 282 CURVE SMOOTH",
"893 282 OFFCURVE",
"966 208 OFFCURVE",
"966 117 CURVE SMOOTH",
"966 28 OFFCURVE",
"891 -47 OFFCURVE",
"802 -47 CURVE SMOOTH"
);
},
{
closed = 1;
nodes = (
"917 437 LINE SMOOTH",
"917 392 OFFCURVE",
"900 375 OFFCURVE",
"856 375 CURVE SMOOTH",
"738 375 LINE SMOOTH",
"693 375 OFFCURVE",
"676 392 OFFCURVE",
"676 437 CURVE SMOOTH",
"676 639 LINE SMOOTH",
"676 691 OFFCURVE",
"729 706 OFFCURVE",
"775 719 CURVE SMOOTH",
"786 723 OFFCURVE",
"798 726 OFFCURVE",
"810 730 CURVE SMOOTH",
"869 752 OFFCURVE",
"907 778 OFFCURVE",
"907 845 CURVE SMOOTH",
"907 867 OFFCURVE",
"907 933 OFFCURVE",
"799 933 CURVE SMOOTH",
"733 933 OFFCURVE",
"673 908 OFFCURVE",
"637 893 CURVE SMOOTH",
"617 884 OFFCURVE",
"607 880 OFFCURVE",
"596 880 CURVE SMOOTH",
"576 880 OFFCURVE",
"556 897 OFFCURVE",
"552 918 CURVE",
"511 1024 LINE",
"506 1051 LINE",
"506 1131 OFFCURVE",
"753 1175 OFFCURVE",
"835 1175 CURVE SMOOTH",
"1042 1175 OFFCURVE",
"1180 1042 OFFCURVE",
"1180 844 CURVE SMOOTH",
"1180 628 OFFCURVE",
"1018 562 OFFCURVE",
"917 527 CURVE"
);
}
);
width = 1675;
}
);
unicode = 2022;
},
{
glyphname = info;
lastChange = "2013-05-10 13:04:34 -0500";
layers = (
{
layerId = "E8902836-E278-4207-B18F-2ADDB08A6CA3";
name = Regular;
paths = (
{
closed = 1;
nodes = (
"1103 1545 OFFCURVE",
"572 1545 OFFCURVE",
"245 1218 CURVE SMOOTH",
"-82 891 OFFCURVE",
"-82 361 OFFCURVE",
"245 34 CURVE SMOOTH",
"572 -294 OFFCURVE",
"1103 -294 OFFCURVE",
"1430 34 CURVE SMOOTH",
"1757 360 OFFCURVE",
"1757 891 OFFCURVE",
"1430 1218 CURVE SMOOTH"
);
},
{
closed = 1;
nodes = (
"913 1318 OFFCURVE",
"984 1247 OFFCURVE",
"984 1158 CURVE SMOOTH",
"984 1069 OFFCURVE",
"913 996 OFFCURVE",
"824 996 CURVE SMOOTH",
"735 996 OFFCURVE",
"662 1069 OFFCURVE",
"662 1158 CURVE SMOOTH",
"662 1248 OFFCURVE",
"733 1318 OFFCURVE",
"824 1318 CURVE SMOOTH"
);
},
{
closed = 1;
nodes = (
"1082 105 OFFCURVE",
"1065 89 OFFCURVE",
"1032 89 CURVE SMOOTH",
"618 89 LINE SMOOTH",
"584 89 OFFCURVE",
"568 105 OFFCURVE",
"568 139 CURVE SMOOTH",
"568 244 LINE SMOOTH",
"568 278 OFFCURVE",
"584 294 OFFCURVE",
"618 294 CURVE SMOOTH",
"695 294 LINE",
"695 740 LINE",
"616 740 LINE SMOOTH",
"583 740 OFFCURVE",
"566 756 OFFCURVE",
"566 790 CURVE SMOOTH",
"566 895 LINE SMOOTH",
"566 929 OFFCURVE",
"583 945 OFFCURVE",
"616 945 CURVE SMOOTH",
"905 945 LINE SMOOTH",
"939 945 OFFCURVE",
"955 929 OFFCURVE",
"955 895 CURVE SMOOTH",
"955 294 LINE",
"1032 294 LINE SMOOTH",
"1065 294 OFFCURVE",
"1082 278 OFFCURVE",
"1082 244 CURVE SMOOTH",
"1082 139 LINE SMOOTH"
);
}
);
width = 1675;
}
);
unicode = 005C;
},
{
glyphname = eye_alt;
lastChange = "2013-05-08 16:36:58 -0500";
layers = (
{
layerId = "E8902836-E278-4207-B18F-2ADDB08A6CA3";
name = Regular;
paths = (
{
closed = 1;
nodes = (
"410 614 LINE",
"610 281 OFFCURVE",
"1075 281 OFFCURVE",
"1275 614 CURVE",
"1275 647 LINE",
"1075 979 OFFCURVE",
"610 979 OFFCURVE",
"410 647 CURVE"
);
},
{
closed = 1;
nodes = (
"732 430 OFFCURVE",
"643 520 OFFCURVE",
"643 630 CURVE SMOOTH",
"643 740 OFFCURVE",
"732 830 OFFCURVE",
"843 830 CURVE SMOOTH",
"953 830 OFFCURVE",
"1042 740 OFFCURVE",
"1042 630 CURVE SMOOTH",
"1042 520 OFFCURVE",
"953 430 OFFCURVE",
"843 430 CURVE SMOOTH"
);
},
{
closed = 1;
nodes = (
"788 730 OFFCURVE",
"743 685 OFFCURVE",
"743 630 CURVE SMOOTH",
"743 575 OFFCURVE",
"788 530 OFFCURVE",
"843 530 CURVE SMOOTH",
"898 530 OFFCURVE",
"942 575 OFFCURVE",
"942 630 CURVE SMOOTH",
"942 685 OFFCURVE",
"898 730 OFFCURVE",
"843 730 CURVE SMOOTH"
);
},
{
closed = 1;
nodes = (
"377 1472 OFFCURVE",
"0 1095 OFFCURVE",
"0 630 CURVE SMOOTH",
"0 165 OFFCURVE",
"377 -212 OFFCURVE",
"843 -212 CURVE SMOOTH",
"1308 -212 OFFCURVE",
"1685 165 OFFCURVE",
"1685 630 CURVE",
"1685 1095 OFFCURVE",
"1308 1472 OFFCURVE",
"843 1472 CURVE SMOOTH"
);
},
{
closed = 1;
nodes = (
"1174 71 OFFCURVE",
"1017 1 OFFCURVE",
"843 1 CURVE SMOOTH",
"669 1 OFFCURVE",
"512 71 OFFCURVE",
"397 185 CURVE SMOOTH",
"283 299 OFFCURVE",
"213 456 OFFCURVE",
"213 630 CURVE SMOOTH",
"213 804 OFFCURVE",
"283 961 OFFCURVE",
"397 1075 CURVE SMOOTH",
"512 1189 OFFCURVE",
"669 1260 OFFCURVE",
"843 1260 CURVE SMOOTH",
"1017 1260 OFFCURVE",
"1174 1189 OFFCURVE",
"1288 1075 CURVE SMOOTH",
"1402 961 OFFCURVE",
"1472 804 OFFCURVE",
"1472 630 CURVE SMOOTH",
"1472 456 OFFCURVE",
"1402 299 OFFCURVE",
"1288 185 CURVE SMOOTH"
);
}
);
width = 1685;
}
);
unicode = 0062;
},
{
glyphname = hash;
lastChange = "2013-05-08 16:38:51 -0500";
layers = (
{
layerId = "E8902836-E278-4207-B18F-2ADDB08A6CA3";
name = Regular;
paths = (
{
closed = 1;
nodes = (
"1417 1084 LINE",
"1480 1312 LINE SMOOTH",
"1499 1384 OFFCURVE",
"1457 1443 OFFCURVE",
"1385 1443 CURVE SMOOTH",
"1313 1443 OFFCURVE",
"1239 1384 OFFCURVE",
"1219 1312 CURVE SMOOTH",
"1156 1084 LINE",
"824 1084 LINE",
"887 1312 LINE SMOOTH",
"907 1384 OFFCURVE",
"864 1443 OFFCURVE",
"792 1443 CURVE SMOOTH",
"720 1443 OFFCURVE",
"646 1384 OFFCURVE",
"626 1312 CURVE SMOOTH",
"563 1084 LINE",
"335 1084 LINE SMOOTH",
"263 1084 OFFCURVE",
"188 1026 OFFCURVE",
"168 954 CURVE SMOOTH",
"149 882 OFFCURVE",
"191 823 OFFCURVE",
"263 823 CURVE SMOOTH",
"491 823 LINE",
"399 491 LINE",
"171 491 LINE SMOOTH",
"99 491 OFFCURVE",
"25 433 OFFCURVE",
"5 361 CURVE SMOOTH",
"-15 289 OFFCURVE",
"27 231 OFFCURVE",
"99 231 CURVE SMOOTH",
"327 231 LINE",
"264 2 LINE SMOOTH",
"245 -70 OFFCURVE",
"287 -128 OFFCURVE",
"359 -128 CURVE SMOOTH",
"431 -128 OFFCURVE",
"505 -70 OFFCURVE",
"525 2 CURVE SMOOTH",
"588 231 LINE",
"920 231 LINE",
"857 2 LINE SMOOTH",
"837 -70 OFFCURVE",
"880 -128 OFFCURVE",
"952 -128 CURVE SMOOTH",
"1024 -128 OFFCURVE",
"1098 -70 OFFCURVE",
"1118 2 CURVE SMOOTH",
"1181 231 LINE",
"1409 231 LINE SMOOTH",
"1481 231 OFFCURVE",
"1556 289 OFFCURVE",
"1576 361 CURVE SMOOTH",
"1595 433 OFFCURVE",
"1553 491 OFFCURVE",
"1481 491 CURVE SMOOTH",
"1253 491 LINE",
"1345 823 LINE",
"1573 823 LINE SMOOTH",
"1645 823 OFFCURVE",
"1720 882 OFFCURVE",
"1739 954 CURVE SMOOTH",
"1759 1026 OFFCURVE",
"1717 1084 OFFCURVE",
"1645 1084 CURVE SMOOTH"
);
},
{
closed = 1;
nodes = (
"660 491 LINE",
"752 823 LINE",
"1084 823 LINE",
"992 491 LINE"
);
}
);
width = 1744;
}
);
unicode = 0063;
},
{
glyphname = bell;
lastChange = "2013-05-08 16:40:57 -0500";
layers = (
{
layerId = "E8902836-E278-4207-B18F-2ADDB08A6CA3";
name = Regular;
paths = (
{
closed = 1;
nodes = (
"1378 324 OFFCURVE",
"1377 323 OFFCURVE",
"1375 323 CURVE",
"1375 324 OFFCURVE",
"1375 324 OFFCURVE",
"1375 325 CURVE",
"1289 327 OFFCURVE",
"1289 388 OFFCURVE",
"1289 420 CURVE SMOOTH",
"1289 794 OFFCURVE",
"1175 1111 OFFCURVE",
"949 1229 CURVE",
"926 1345 OFFCURVE",
"843 1491 OFFCURVE",
"743 1491 CURVE SMOOTH",
"743 1491 OFFCURVE",
"742 1491 OFFCURVE",
"742 1491 CURVE SMOOTH",
"742 1491 OFFCURVE",
"741 1491 OFFCURVE",
"741 1491 CURVE SMOOTH",
"641 1491 OFFCURVE",
"558 1345 OFFCURVE",
"536 1229 CURVE",
"310 1111 OFFCURVE",
"197 794 OFFCURVE",
"197 420 CURVE SMOOTH",
"197 402 OFFCURVE",
"196 374 OFFCURVE",
"179 353 CURVE",
"177 350 OFFCURVE",
"174 347 OFFCURVE",
"171 344 CURVE SMOOTH",
"158 333 OFFCURVE",
"139 325 OFFCURVE",
"110 325 CURVE",
"110 324 OFFCURVE",
"110 324 OFFCURVE",
"110 323 CURVE",
"108 323 OFFCURVE",
"107 324 OFFCURVE",
"106 324 CURVE SMOOTH",
"47 324 OFFCURVE",
"0 277 OFFCURVE",
"0 218 CURVE SMOOTH",
"0 160 OFFCURVE",
"47 112 OFFCURVE",
"106 112 CURVE SMOOTH",
"109 112 OFFCURVE",
"112 114 OFFCURVE",
"115 114 CURVE",
"115 112 LINE",
"195 112 LINE",
"1287 112 LINE",
"1370 112 LINE",
"1370 114 LINE",
"1374 114 OFFCURVE",
"1376 112 OFFCURVE",
"1380 112 CURVE SMOOTH",
"1438 112 OFFCURVE",
"1486 160 OFFCURVE",
"1486 218 CURVE SMOOTH",
"1486 277 OFFCURVE",
"1438 324 OFFCURVE",
"1380 324 CURVE SMOOTH"
);
},
{
closed = 1;
nodes = (
"529 6 LINE",
"529 -111 OFFCURVE",
"624 -206 OFFCURVE",
"741 -206 CURVE SMOOTH",
"741 -206 OFFCURVE",
"742 -206 OFFCURVE",
"742 -206 CURVE SMOOTH",
"742 -206 OFFCURVE",
"743 -206 OFFCURVE",
"743 -206 CURVE SMOOTH",
"860 -206 OFFCURVE",
"955 -111 OFFCURVE",
"955 6 CURVE",
"953 6 LINE",
"531 6 LINE"
);
}
);
width = 1486;
}
);
unicode = 1F514;
},
{
glyphname = cog;
lastChange = "2013-05-08 17:00:11 -0500";
layers = (
{
layerId = "E8902836-E278-4207-B18F-2ADDB08A6CA3";
name = Regular;
paths = (
{
closed = 1;
nodes = (
"1303 799 LINE",
"1289 843 OFFCURVE",
"1270 883 OFFCURVE",
"1247 921 CURVE",
"1396 1071 LINE SMOOTH",
"1432 1106 OFFCURVE",
"1432 1163 OFFCURVE",
"1396 1198 CURVE SMOOTH",
"1333 1261 LINE SMOOTH",
"1298 1296 OFFCURVE",
"1241 1296 OFFCURVE",
"1206 1261 CURVE SMOOTH",
"1054 1110 LINE",
"1013 1133 OFFCURVE",
"968 1151 OFFCURVE",
"921 1163 CURVE",
"921 1360 LINE SMOOTH",
"921 1410 OFFCURVE",
"881 1450 OFFCURVE",
"832 1450 CURVE SMOOTH",
"742 1450 LINE SMOOTH",
"692 1450 OFFCURVE",
"652 1410 OFFCURVE",
"652 1360 CURVE SMOOTH",
"652 1163 LINE",
"600 1150 OFFCURVE",
"552 1129 OFFCURVE",
"507 1102 CURVE",
"380 1229 LINE SMOOTH",
"345 1264 OFFCURVE",
"288 1264 OFFCURVE",
"253 1229 CURVE SMOOTH",
"189 1166 LINE SMOOTH",
"154 1131 OFFCURVE",
"155 1074 OFFCURVE",
"189 1038 CURVE SMOOTH",
"319 909 LINE",
"291 861 OFFCURVE",
"271 809 OFFCURVE",
"260 755 CURVE",
"90 755 LINE SMOOTH",
"40 755 OFFCURVE",
"0 713 OFFCURVE",
"0 664 CURVE SMOOTH",
"0 574 LINE SMOOTH",
"0 525 OFFCURVE",
"40 485 OFFCURVE",
"90 485 CURVE SMOOTH",
"271 485 LINE",
"288 431 OFFCURVE",
"312 380 OFFCURVE",
"344 335 CURVE",
"221 213 LINE SMOOTH",
"186 178 OFFCURVE",
"186 121 OFFCURVE",
"221 86 CURVE SMOOTH",
"285 22 LINE SMOOTH",
"319 -12 OFFCURVE",
"377 -12 OFFCURVE",
"411 22 CURVE SMOOTH",
"548 159 LINE",
"595 136 OFFCURVE",
"644 119 OFFCURVE",
"697 110 CURVE",
"697 -77 LINE SMOOTH",
"697 -126 OFFCURVE",
"737 -167 OFFCURVE",
"787 -167 CURVE SMOOTH",
"877 -167 LINE SMOOTH",
"926 -167 OFFCURVE",
"966 -126 OFFCURVE",
"966 -77 CURVE SMOOTH",
"966 134 LINE",
"1011 150 OFFCURVE",
"1054 171 OFFCURVE",
"1093 198 CURVE",
"1238 54 LINE SMOOTH",
"1273 19 OFFCURVE",
"1330 19 OFFCURVE",
"1364 54 CURVE SMOOTH",
"1428 118 LINE SMOOTH",
"1464 153 OFFCURVE",
"1464 210 OFFCURVE",
"1428 244 CURVE SMOOTH",
"1270 404 LINE",
"1289 443 OFFCURVE",
"1304 485 OFFCURVE",
"1314 530 CURVE",
"1527 530 LINE SMOOTH",
"1577 530 OFFCURVE",
"1617 569 OFFCURVE",
"1617 619 CURVE SMOOTH",
"1617 709 LINE",
"1617 758 OFFCURVE",
"1577 799 OFFCURVE",
"1527 799 CURVE SMOOTH"
);
},
{
closed = 1;
nodes = (
"662 418 OFFCURVE",
"562 518 OFFCURVE",
"562 641 CURVE SMOOTH",
"562 766 OFFCURVE",
"662 866 OFFCURVE",
"787 866 CURVE SMOOTH",
"910 866 OFFCURVE",
"1011 766 OFFCURVE",
"1011 641 CURVE SMOOTH",
"1011 518 OFFCURVE",
"910 418 OFFCURVE",
"787 418 CURVE SMOOTH"
);
}
);
width = 1617;
}
);
unicode = 0065;
},
{
glyphname = alarm;
lastChange = "2013-05-08 17:02:23 -0500";
layers = (
{
layerId = "E8902836-E278-4207-B18F-2ADDB08A6CA3";
name = Regular;
paths = (
{
closed = 1;
nodes = (
"1138 998 OFFCURVE",
"1350 785 OFFCURVE",
"1350 524 CURVE SMOOTH",
"1350 263 OFFCURVE",
"1138 51 OFFCURVE",
"877 51 CURVE SMOOTH",
"616 51 OFFCURVE",
"404 263 OFFCURVE",
"404 524 CURVE SMOOTH",
"404 785 OFFCURVE",
"616 998 OFFCURVE",
"877 998 CURVE SMOOTH"
);
},
{
closed = 1;
nodes = (
"485 1234 OFFCURVE",
"167 916 OFFCURVE",
"167 524 CURVE SMOOTH",
"167 132 OFFCURVE",
"485 -186 OFFCURVE",
"877 -186 CURVE SMOOTH",
"1269 -186 OFFCURVE",
"1587 132 OFFCURVE",
"1587 524 CURVE SMOOTH",
"1587 916 OFFCURVE",
"1269 1234 OFFCURVE",
"877 1234 CURVE SMOOTH"
);
},
{
closed = 1;
nodes = (
"807 490 OFFCURVE",
"780 516 OFFCURVE",
"780 549 CURVE SMOOTH",
"780 667 LINE SMOOTH",
"780 700 OFFCURVE",
"807 726 OFFCURVE",
"839 726 CURVE SMOOTH",
"872 726 OFFCURVE",
"899 700 OFFCURVE",
"899 667 CURVE SMOOTH",
"899 549 LINE SMOOTH",
"899 516 OFFCURVE",
"872 490 OFFCURVE",
"839 490 CURVE SMOOTH"
);
},
{
closed = 1;
nodes = (
"1019 336 OFFCURVE",
"1006 340 OFFCURVE",
"995 349 CURVE SMOOTH",
"802 503 LINE SMOOTH",
"777 523 OFFCURVE",
"773 560 OFFCURVE",
"793 586 CURVE SMOOTH",
"814 612 OFFCURVE",
"851 616 OFFCURVE",
"876 595 CURVE SMOOTH",
"1069 441 LINE SMOOTH",
"1094 421 OFFCURVE",
"1098 384 OFFCURVE",
"1078 358 CURVE SMOOTH",
"1066 343 OFFCURVE",
"1049 336 OFFCURVE",
"1032 336 CURVE SMOOTH"
);
},
{
closed = 1;
nodes = (
"1834 1068 OFFCURVE",
"1817 1282 OFFCURVE",
"1678 1421 CURVE SMOOTH",
"1540 1559 OFFCURVE",
"1326 1576 OFFCURVE",
"1169 1472 CURVE",
"1730 911 LINE"
);
},
{
closed = 1;
nodes = (
"-37 1068 OFFCURVE",
"-19 1282 OFFCURVE",
"119 1421 CURVE SMOOTH",
"257 1559 OFFCURVE",
"471 1576 OFFCURVE",
"628 1472 CURVE",
"67 911 LINE"
);
},
{
closed = 1;
nodes = (
"1533 -250 OFFCURVE",
"1496 -250 OFFCURVE",
"1473 -227 CURVE SMOOTH",
"1306 -60 LINE SMOOTH",
"1283 -37 OFFCURVE",
"1283 1 OFFCURVE",
"1306 24 CURVE SMOOTH",
"1329 47 OFFCURVE",
"1366 47 OFFCURVE",
"1389 24 CURVE SMOOTH",
"1556 -144 LINE SMOOTH",
"1580 -167 OFFCURVE",
"1580 -204 OFFCURVE",
"1556 -227 CURVE SMOOTH"
);
},
{
closed = 1;
nodes = (
"264 -250 OFFCURVE",
"301 -250 OFFCURVE",
"324 -227 CURVE SMOOTH",
"492 -60 LINE SMOOTH",
"515 -37 OFFCURVE",
"515 1 OFFCURVE",
"492 24 CURVE SMOOTH",
"469 47 OFFCURVE",
"431 47 OFFCURVE",
"408 24 CURVE SMOOTH",
"241 -144 LINE SMOOTH",
"218 -167 OFFCURVE",
"218 -204 OFFCURVE",
"241 -227 CURVE SMOOTH"
);
}
);
width = 1797;
}
);
unicode = 0066;
},
{
glyphname = clock;
lastChange = "2013-05-08 17:17:34 -0500";
layers = (
{
layerId = "E8902836-E278-4207-B18F-2ADDB08A6CA3";
name = Regular;
paths = (
{
closed = 1;
nodes = (
"1155 1243 OFFCURVE",
"1420 979 OFFCURVE",
"1420 654 CURVE SMOOTH",
"1420 330 OFFCURVE",
"1155 66 OFFCURVE",
"831 66 CURVE SMOOTH",
"506 66 OFFCURVE",
"242 330 OFFCURVE",
"242 654 CURVE SMOOTH",
"242 979 OFFCURVE",
"506 1243 OFFCURVE",
"831 1243 CURVE SMOOTH"
);
},
{
closed = 1;
nodes = (
"372 1485 OFFCURVE",
"0 1113 OFFCURVE",
"0 654 CURVE SMOOTH",
"0 196 OFFCURVE",
"372 -176 OFFCURVE",
"831 -176 CURVE SMOOTH",
"1289 -176 OFFCURVE",
"1661 196 OFFCURVE",
"1661 654 CURVE SMOOTH",
"1661 1113 OFFCURVE",
"1289 1485 OFFCURVE",
"831 1485 CURVE SMOOTH"
);
},
{
closed = 1;
nodes = (
"779 658 OFFCURVE",
"752 685 OFFCURVE",
"752 719 CURVE SMOOTH",
"752 960 LINE SMOOTH",
"752 994 OFFCURVE",
"779 1021 OFFCURVE",
"813 1021 CURVE SMOOTH",
"846 1021 OFFCURVE",
"873 994 OFFCURVE",
"873 960 CURVE SMOOTH",
"873 719 LINE SMOOTH",
"873 685 OFFCURVE",
"846 658 OFFCURVE",
"813 658 CURVE SMOOTH"
);
},
{
closed = 1;
nodes = (
"1101 417 OFFCURVE",
"1088 421 OFFCURVE",
"1077 430 CURVE SMOOTH",
"775 671 LINE SMOOTH",
"749 692 OFFCURVE",
"745 730 OFFCURVE",
"766 757 CURVE SMOOTH",
"786 782 OFFCURVE",
"824 787 OFFCURVE",
"851 766 CURVE SMOOTH",
"1152 524 LINE SMOOTH",
"1178 504 OFFCURVE",
"1183 465 OFFCURVE",
"1162 440 CURVE SMOOTH",
"1150 425 OFFCURVE",
"1132 417 OFFCURVE",
"1115 417 CURVE SMOOTH"
);
}
);
width = 1661;
}
);
unicode = 0067;
},
{
glyphname = eye;
lastChange = "2013-05-08 17:20:25 -0500";
layers = (
{
layerId = "E8902836-E278-4207-B18F-2ADDB08A6CA3";
name = Regular;
paths = (
{
closed = 1;
nodes = (
"0 641 LINE",
"523 -230 OFFCURVE",
"1742 -230 OFFCURVE",
"2266 641 CURVE",
"2266 728 LINE",
"1742 1599 OFFCURVE",
"523 1599 OFFCURVE",
"0 728 CURVE"
);
},
{
closed = 1;
nodes = (
"844 161 OFFCURVE",
"610 396 OFFCURVE",
"610 684 CURVE SMOOTH",
"610 973 OFFCURVE",
"844 1207 OFFCURVE",
"1133 1207 CURVE SMOOTH",
"1421 1207 OFFCURVE",
"1655 973 OFFCURVE",
"1655 684 CURVE SMOOTH",
"1655 396 OFFCURVE",
"1421 161 OFFCURVE",
"1133 161 CURVE SMOOTH"
);
},
{
closed = 1;
nodes = (
"1394 540 OFFCURVE",
"1277 423 OFFCURVE",
"1133 423 CURVE SMOOTH",
"988 423 OFFCURVE",
"871 540 OFFCURVE",
"871 684 CURVE SMOOTH",
"871 829 OFFCURVE",
"988 946 OFFCURVE",
"1133 946 CURVE SMOOTH",
"1277 946 OFFCURVE",
"1394 829 OFFCURVE",
"1394 684 CURVE SMOOTH"
);
}
);
width = 2266;
}
);
unicode = 0068;
},
{
glyphname = search;
lastChange = "2013-05-08 17:24:05 -0500";
layers = (
{
layerId = "E8902836-E278-4207-B18F-2ADDB08A6CA3";
name = Regular;
paths = (
{
closed = 1;
nodes = (
"1433 382 LINE",
"1495 493 OFFCURVE",
"1532 621 OFFCURVE",
"1532 758 CURVE SMOOTH",
"1532 1180 OFFCURVE",
"1188 1524 OFFCURVE",
"765 1524 CURVE SMOOTH",
"343 1524 OFFCURVE",
"0 1180 OFFCURVE",
"0 758 CURVE SMOOTH",
"0 335 OFFCURVE",
"343 -8 OFFCURVE",
"765 -8 CURVE SMOOTH",
"924 -8 OFFCURVE",
"1071 40 OFFCURVE",
"1193 121 CURVE",
"1520 -204 LINE SMOOTH",
"1554 -239 OFFCURVE",
"1600 -256 OFFCURVE",
"1645 -256 CURVE SMOOTH",
"1690 -256 OFFCURVE",
"1735 -239 OFFCURVE",
"1769 -204 CURVE SMOOTH",
"1839 -135 OFFCURVE",
"1839 -24 OFFCURVE",
"1769 45 CURVE SMOOTH"
);
},
{
closed = 1;
nodes = (
"236 1050 OFFCURVE",
"474 1287 OFFCURVE",
"765 1287 CURVE SMOOTH",
"1059 1287 OFFCURVE",
"1296 1050 OFFCURVE",
"1296 758 CURVE SMOOTH",
"1296 465 OFFCURVE",
"1059 227 OFFCURVE",
"765 227 CURVE SMOOTH",
"474 227 OFFCURVE",
"236 465 OFFCURVE",
"236 758 CURVE SMOOTH"
);
}
);
width = 1822;
}
);
unicode = 0069;
},
{
glyphname = mic;
lastChange = "2013-05-08 17:33:01 -0500";
layers = (
{
layerId = "E8902836-E278-4207-B18F-2ADDB08A6CA3";
name = Regular;
paths = (
{
closed = 1;
nodes = (
"682 406 OFFCURVE",
"794 518 OFFCURVE",
"794 657 CURVE SMOOTH",
"794 1283 LINE",
"794 1421 OFFCURVE",
"682 1533 OFFCURVE",
"543 1534 CURVE SMOOTH",
"405 1533 OFFCURVE",
"293 1421 OFFCURVE",
"292 1283 CURVE SMOOTH",
"292 657 LINE SMOOTH",
"293 518 OFFCURVE",
"405 406 OFFCURVE",
"543 406 CURVE SMOOTH"
);
},
{
closed = 1;
nodes = (
"1086 898 OFFCURVE",
"1042 942 OFFCURVE",
"988 942 CURVE SMOOTH",
"934 942 OFFCURVE",
"890 898 OFFCURVE",
"890 844 CURVE SMOOTH",
"890 842 OFFCURVE",
"891 840 OFFCURVE",
"891 838 CURVE",
"890 836 OFFCURVE",
"890 835 OFFCURVE",
"890 833 CURVE SMOOTH",
"890 635 LINE SMOOTH",
"890 539 OFFCURVE",
"851 453 OFFCURVE",
"788 390 CURVE SMOOTH",
"725 327 OFFCURVE",
"639 289 OFFCURVE",
"543 289 CURVE SMOOTH",
"447 289 OFFCURVE",
"361 327 OFFCURVE",
"298 390 CURVE SMOOTH",
"235 453 OFFCURVE",
"196 539 OFFCURVE",
"196 635 CURVE SMOOTH",
"196 827 LINE",
"197 832 OFFCURVE",
"197 838 OFFCURVE",
"197 844 CURVE SMOOTH",
"197 898 OFFCURVE",
"156 942 OFFCURVE",
"101 942 CURVE SMOOTH",
"50 942 OFFCURVE",
"5 903 OFFCURVE",
"0 853 CURVE",
"0 833 LINE",
"0 635 LINE SMOOTH",
"0 387 OFFCURVE",
"168 179 OFFCURVE",
"395 115 CURVE",
"395 77 LINE",
"132 -10 LINE SMOOTH",
"112 -17 OFFCURVE",
"99 -36 OFFCURVE",
"99 -57 CURVE SMOOTH",
"99 -155 LINE SMOOTH",
"99 -168 OFFCURVE",
"104 -181 OFFCURVE",
"113 -190 CURVE SMOOTH",
"122 -199 OFFCURVE",
"135 -204 OFFCURVE",
"148 -204 CURVE SMOOTH",
"938 -204 LINE SMOOTH",
"951 -204 OFFCURVE",
"963 -199 OFFCURVE",
"973 -190 CURVE SMOOTH",
"982 -181 OFFCURVE",
"987 -168 OFFCURVE",
"987 -155 CURVE SMOOTH",
"987 -57 LINE SMOOTH",
"987 -36 OFFCURVE",
"974 -17 OFFCURVE",
"954 -10 CURVE SMOOTH",
"690 77 LINE",
"690 115 LINE",
"918 179 OFFCURVE",
"1086 387 OFFCURVE",
"1086 635 CURVE SMOOTH",
"1086 833 LINE SMOOTH",
"1086 834 OFFCURVE",
"1085 836 OFFCURVE",
"1085 837 CURVE SMOOTH",
"1085 840 OFFCURVE",
"1086 842 OFFCURVE",
"1086 844 CURVE SMOOTH"
);
}
);
width = 1086;
}
);
unicode = 1F3A4;
},
{
glyphname = feed;
lastChange = "2013-05-08 17:34:34 -0500";
layers = (
{
layerId = "E8902836-E278-4207-B18F-2ADDB08A6CA3";
name = Regular;
paths = (
{
closed = 1;
nodes = (
"1423 46 LINE",
"1423 51 LINE",
"1423 778 OFFCURVE",
"834 1367 OFFCURVE",
"108 1367 CURVE SMOOTH",
"103 1366 LINE",
"92 1366 LINE SMOOTH",
"39 1363 OFFCURVE",
"-3 1317 OFFCURVE",
"0 1264 CURVE SMOOTH",
"3 1210 OFFCURVE",
"49 1169 OFFCURVE",
"102 1172 CURVE SMOOTH",
"113 1173 LINE",
"108 1269 LINE",
"108 1172 LINE",
"418 1172 OFFCURVE",
"697 1047 OFFCURVE",
"901 844 CURVE SMOOTH",
"1104 641 OFFCURVE",
"1229 361 OFFCURVE",
"1229 51 CURVE",
"1326 51 LINE",
"1229 56 LINE",
"1229 46 LINE SMOOTH",
"1226 -8 OFFCURVE",
"1267 -53 OFFCURVE",
"1320 -56 CURVE SMOOTH",
"1374 -59 OFFCURVE",
"1420 -18 OFFCURVE",
"1422 35 CURVE SMOOTH"
);
},
{
closed = 1;
nodes = (
"1019 46 LINE",
"1019 51 LINE SMOOTH",
"1019 554 OFFCURVE",
"611 962 OFFCURVE",
"108 962 CURVE",
"103 962 LINE",
"92 962 LINE SMOOTH",
"39 959 OFFCURVE",
"-3 913 OFFCURVE",
"0 859 CURVE SMOOTH",
"3 806 OFFCURVE",
"49 765 OFFCURVE",
"102 768 CURVE SMOOTH",
"113 768 LINE",
"108 865 LINE",
"108 768 LINE",
"306 768 OFFCURVE",
"485 688 OFFCURVE",
"615 558 CURVE SMOOTH",
"745 428 OFFCURVE",
"825 250 OFFCURVE",
"825 51 CURVE",
"922 51 LINE",
"825 56 LINE",
"824 46 LINE SMOOTH",
"821 -8 OFFCURVE",
"863 -53 OFFCURVE",
"916 -56 CURVE SMOOTH",
"970 -59 OFFCURVE",
"1015 -18 OFFCURVE",
"1018 35 CURVE SMOOTH"
);
},
{
closed = 1;
nodes = (
"609 46 LINE",
"609 51 LINE",
"609 328 OFFCURVE",
"385 553 OFFCURVE",
"108 553 CURVE",
"103 553 LINE",
"92 552 LINE SMOOTH",
"39 549 OFFCURVE",
"-2 504 OFFCURVE",
"0 450 CURVE SMOOTH",
"3 397 OFFCURVE",
"49 356 OFFCURVE",
"102 358 CURVE SMOOTH",
"113 359 LINE",
"108 456 LINE",
"108 359 LINE",
"193 359 OFFCURVE",
"269 325 OFFCURVE",
"325 269 CURVE SMOOTH",
"381 213 OFFCURVE",
"415 137 OFFCURVE",
"415 51 CURVE",
"512 51 LINE",
"416 56 LINE",
"415 46 LINE SMOOTH",
"412 -8 OFFCURVE",
"453 -53 OFFCURVE",
"507 -56 CURVE SMOOTH",
"560 -59 OFFCURVE",
"606 -18 OFFCURVE",
"609 35 CURVE SMOOTH"
);
},
{
closed = 1;
nodes = (
"237 2 OFFCURVE",
"185 -50 OFFCURVE",
"122 -50 CURVE SMOOTH",
"58 -50 OFFCURVE",
"7 2 OFFCURVE",
"7 65 CURVE SMOOTH",
"7 129 OFFCURVE",
"58 180 OFFCURVE",
"122 180 CURVE SMOOTH",
"185 180 OFFCURVE",
"237 129 OFFCURVE",
"237 65 CURVE SMOOTH"
);
}
);
width = 1423;
}
);
unicode = 006B;
},
{
glyphname = podcast;
lastChange = "2013-05-09 10:40:42 -0500";
layers = (
{
layerId = "E8902836-E278-4207-B18F-2ADDB08A6CA3";
name = Regular;
paths = (
{
closed = 1;
nodes = (
"1002 586 OFFCURVE",
"904 488 OFFCURVE",
"783 488 CURVE SMOOTH",
"662 488 OFFCURVE",
"564 586 OFFCURVE",
"564 707 CURVE SMOOTH",
"564 828 OFFCURVE",
"662 926 OFFCURVE",
"783 926 CURVE SMOOTH",
"904 926 OFFCURVE",
"1002 828 OFFCURVE",
"1002 707 CURVE SMOOTH"
);
},
{
closed = 1;
nodes = (
"892 414 OFFCURVE",
"673 414 OFFCURVE",
"564 414 CURVE SMOOTH",
"345 414 OFFCURVE",
"564 -244 OFFCURVE",
"673 -244 CURVE SMOOTH",
"783 -244 OFFCURVE",
"673 -244 OFFCURVE",
"892 -244 CURVE SMOOTH",
"1002 -244 OFFCURVE",
"1221 414 OFFCURVE",
"1002 414 CURVE SMOOTH"
);
},
{
closed = 1;
nodes = (
"316 82 OFFCURVE",
"301 88 OFFCURVE",
"288 98 CURVE SMOOTH",
"105 250 OFFCURVE",
"0 473 OFFCURVE",
"0 710 CURVE SMOOTH",
"0 1148 OFFCURVE",
"356 1504 OFFCURVE",
"793 1504 CURVE SMOOTH",
"1231 1504 OFFCURVE",
"1587 1148 OFFCURVE",
"1587 710 CURVE SMOOTH",
"1587 474 OFFCURVE",
"1483 251 OFFCURVE",
"1301 100 CURVE SMOOTH",
"1272 75 OFFCURVE",
"1228 79 OFFCURVE",
"1203 109 CURVE SMOOTH",
"1179 138 OFFCURVE",
"1183 182 OFFCURVE",
"1212 207 CURVE SMOOTH",
"1362 331 OFFCURVE",
"1448 515 OFFCURVE",
"1448 710 CURVE SMOOTH",
"1448 1071 OFFCURVE",
"1155 1365 OFFCURVE",
"793 1365 CURVE SMOOTH",
"432 1365 OFFCURVE",
"139 1071 OFFCURVE",
"139 710 CURVE SMOOTH",
"139 514 OFFCURVE",
"225 330 OFFCURVE",
"376 205 CURVE SMOOTH",
"406 181 OFFCURVE",
"410 137 OFFCURVE",
"386 108 CURVE SMOOTH",
"372 91 OFFCURVE",
"352 82 OFFCURVE",
"332 82 CURVE SMOOTH"
);
},
{
closed = 1;
nodes = (
"364 386 OFFCURVE",
"341 397 OFFCURVE",
"328 418 CURVE SMOOTH",
"273 505 OFFCURVE",
"244 606 OFFCURVE",
"244 710 CURVE SMOOTH",
"244 1013 OFFCURVE",
"490 1260 OFFCURVE",
"793 1260 CURVE SMOOTH",
"1097 1260 OFFCURVE",
"1343 1013 OFFCURVE",
"1343 710 CURVE SMOOTH",
"1343 609 OFFCURVE",
"1315 510 OFFCURVE",
"1263 424 CURVE SMOOTH",
"1243 391 OFFCURVE",
"1200 381 OFFCURVE",
"1167 401 CURVE SMOOTH",
"1134 421 OFFCURVE",
"1124 463 OFFCURVE",
"1144 496 CURVE SMOOTH",
"1183 560 OFFCURVE",
"1204 634 OFFCURVE",
"1204 710 CURVE SMOOTH",
"1204 937 OFFCURVE",
"1020 1121 OFFCURVE",
"793 1121 CURVE SMOOTH",
"567 1121 OFFCURVE",
"383 937 OFFCURVE",
"383 710 CURVE SMOOTH",
"383 633 OFFCURVE",
"404 557 OFFCURVE",
"446 492 CURVE SMOOTH",
"466 459 OFFCURVE",
"456 417 OFFCURVE",
"424 396 CURVE SMOOTH",
"412 389 OFFCURVE",
"399 386 OFFCURVE",
"387 386 CURVE SMOOTH"
);
}
);
width = 1587;
}
);
unicode = 006D;
},
{
glyphname = calendar;
lastChange = "2013-05-09 10:42:34 -0500";
layers = (
{
layerId = "E8902836-E278-4207-B18F-2ADDB08A6CA3";
name = Regular;
paths = (
{
closed = 1;
nodes = (
"1460 1416 LINE",
"1460 1454 OFFCURVE",
"1429 1485 OFFCURVE",
"1391 1485 CURVE",
"1252 1485 LINE",
"1214 1485 OFFCURVE",
"1183 1454 OFFCURVE",
"1183 1416 CURVE",
"1183 1279 LINE SMOOTH",
"492 1279 LINE SMOOTH",
"492 1416 LINE",
"492 1454 OFFCURVE",
"461 1485 OFFCURVE",
"423 1485 CURVE",
"284 1485 LINE",
"246 1485 OFFCURVE",
"215 1454 OFFCURVE",
"215 1416 CURVE",
"215 1279 LINE SMOOTH",
"209 1279 LINE SMOOTH",
"209 1278 OFFCURVE",
"209 1278 OFFCURVE",
"208 1277 CURVE SMOOTH",
"90 1258 OFFCURVE",
"0 1156 OFFCURVE",
"0 1032 CURVE",
"0 93 LINE",
"0 -44 OFFCURVE",
"111 -155 OFFCURVE",
"248 -155 CURVE",
"1415 -155 LINE",
"1552 -155 OFFCURVE",
"1663 -44 OFFCURVE",
"1663 93 CURVE",
"1663 1032 LINE",
"1663 1154 OFFCURVE",
"1575 1253 OFFCURVE",
"1460 1275 CURVE SMOOTH"
);
},
{
closed = 1;
nodes = (
"222 85 LINE SMOOTH",
"222 323 LINE SMOOTH",
"463 323 LINE SMOOTH",
"463 85 LINE SMOOTH"
);
},
{
closed = 1;
nodes = (
"222 400 LINE SMOOTH",
"222 637 LINE SMOOTH",
"463 637 LINE SMOOTH",
"463 400 LINE SMOOTH"
);
},
{
closed = 1;
nodes = (
"222 717 LINE SMOOTH",
"222 955 LINE SMOOTH",
"463 955 LINE SMOOTH",
"463 717 LINE SMOOTH"
);
},
{
closed = 1;
nodes = (
"554 85 LINE SMOOTH",
"554 323 LINE SMOOTH",
"795 323 LINE SMOOTH",
"795 85 LINE SMOOTH"
);
},
{
closed = 1;
nodes = (
"554 400 LINE SMOOTH",
"554 637 LINE SMOOTH",
"795 637 LINE SMOOTH",
"795 400 LINE SMOOTH"
);
},
{
closed = 1;
nodes = (
"554 717 LINE SMOOTH",
"554 955 LINE SMOOTH",
"795 955 LINE SMOOTH",
"795 717 LINE SMOOTH"
);
},
{
closed = 1;
nodes = (
"884 85 LINE SMOOTH",
"884 323 LINE SMOOTH",
"1121 323 LINE SMOOTH",
"1121 85 LINE SMOOTH"
);
},
{
closed = 1;
nodes = (
"884 400 LINE SMOOTH",
"884 637 LINE SMOOTH",
"1121 637 LINE SMOOTH",
"1121 400 LINE SMOOTH"
);
},
{
closed = 1;
nodes = (
"884 717 LINE SMOOTH",
"884 955 LINE SMOOTH",
"1121 955 LINE SMOOTH",
"1121 717 LINE SMOOTH"
);
},
{
closed = 1;
nodes = (
"1212 323 LINE SMOOTH",
"1450 323 LINE SMOOTH",
"1212 85 LINE SMOOTH"
);
},
{
closed = 1;
nodes = (
"1212 400 LINE SMOOTH",
"1212 637 LINE SMOOTH",
"1450 637 LINE SMOOTH",
"1450 400 LINE SMOOTH"
);
},
{
closed = 1;
nodes = (
"1212 717 LINE SMOOTH",
"1212 955 LINE SMOOTH",
"1450 955 LINE SMOOTH",
"1450 717 LINE SMOOTH"
);
}
);
width = 1663;
}
);
unicode = 1F4C5;
},
{
glyphname = comments;
lastChange = "2013-05-09 10:44:30 -0500";
layers = (
{
layerId = "E8902836-E278-4207-B18F-2ADDB08A6CA3";
name = Regular;
paths = (
{
closed = 1;
nodes = (
"1539 947 OFFCURVE",
"1501 947 OFFCURVE",
"1452 947 CURVE",
"1452 840 LINE SMOOTH",
"1452 675 OFFCURVE",
"1296 519 OFFCURVE",
"1131 519 CURVE SMOOTH",
"640 519 LINE",
"489 368 LINE",
"489 345 OFFCURVE",
"489 323 OFFCURVE",
"489 305 CURVE SMOOTH",
"489 198 OFFCURVE",
"596 91 OFFCURVE",
"703 91 CURVE SMOOTH",
"756 91 OFFCURVE",
"1051 91 OFFCURVE",
"1238 91 CURVE",
"1559 -230 LINE",
"1559 91 LINE",
"1666 91 OFFCURVE",
"1773 198 OFFCURVE",
"1773 305 CURVE SMOOTH",
"1773 412 OFFCURVE",
"1773 626 OFFCURVE",
"1773 733 CURVE SMOOTH",
"1773 840 OFFCURVE",
"1666 947 OFFCURVE",
"1559 947 CURVE SMOOTH"
);
},
{
closed = 1;
nodes = (
"963 1536 OFFCURVE",
"321 1536 OFFCURVE",
"214 1536 CURVE SMOOTH",
"107 1536 OFFCURVE",
"0 1429 OFFCURVE",
"0 1322 CURVE SMOOTH",
"0 1215 OFFCURVE",
"0 1001 OFFCURVE",
"0 894 CURVE SMOOTH",
"0 787 OFFCURVE",
"107 680 OFFCURVE",
"214 680 CURVE SMOOTH",
"234 680 OFFCURVE",
"165 680 OFFCURVE",
"214 680 CURVE",
"214 359 LINE",
"535 680 LINE",
"722 680 OFFCURVE",
"1017 680 OFFCURVE",
"1070 680 CURVE SMOOTH",
"1177 680 OFFCURVE",
"1284 787 OFFCURVE",
"1284 894 CURVE SMOOTH",
"1284 1001 OFFCURVE",
"1284 1215 OFFCURVE",
"1284 1322 CURVE SMOOTH",
"1284 1429 OFFCURVE",
"1177 1536 OFFCURVE",
"1070 1536 CURVE SMOOTH"
);
}
);
width = 1773;
}
);
unicode = 006F;
},
{
glyphname = comments_play;
lastChange = "2013-05-09 10:45:12 -0500";
layers = (
{
layerId = "E8902836-E278-4207-B18F-2ADDB08A6CA3";
name = Regular;
paths = (
{
closed = 1;
nodes = (
"1539 947 OFFCURVE",
"1501 947 OFFCURVE",
"1452 947 CURVE",
"1452 840 LINE SMOOTH",
"1452 675 OFFCURVE",
"1296 519 OFFCURVE",
"1131 519 CURVE SMOOTH",
"640 519 LINE",
"489 368 LINE",
"489 345 OFFCURVE",
"489 323 OFFCURVE",
"489 305 CURVE SMOOTH",
"489 198 OFFCURVE",
"596 91 OFFCURVE",
"703 91 CURVE SMOOTH",
"757 91 OFFCURVE",
"1051 91 OFFCURVE",
"1238 91 CURVE",
"1559 -230 LINE",
"1559 91 LINE",
"1666 91 OFFCURVE",
"1773 198 OFFCURVE",
"1773 305 CURVE SMOOTH",
"1773 412 OFFCURVE",
"1773 626 OFFCURVE",
"1773 733 CURVE SMOOTH",
"1773 840 OFFCURVE",
"1666 947 OFFCURVE",
"1559 947 CURVE SMOOTH"
);
},
{
closed = 1;
nodes = (
"963 1536 OFFCURVE",
"321 1536 OFFCURVE",
"214 1536 CURVE SMOOTH",
"107 1536 OFFCURVE",
"0 1429 OFFCURVE",
"0 1322 CURVE SMOOTH",
"0 1215 OFFCURVE",
"0 1001 OFFCURVE",
"0 894 CURVE SMOOTH",
"0 787 OFFCURVE",
"107 680 OFFCURVE",
"214 680 CURVE SMOOTH",
"234 680 OFFCURVE",
"165 680 OFFCURVE",
"214 680 CURVE",
"214 359 LINE",
"535 680 LINE",
"722 680 OFFCURVE",
"1017 680 OFFCURVE",
"1070 680 CURVE SMOOTH",
"1177 680 OFFCURVE",
"1284 787 OFFCURVE",
"1284 894 CURVE SMOOTH",
"1284 1001 OFFCURVE",
"1284 1215 OFFCURVE",
"1284 1322 CURVE SMOOTH",
"1284 1429 OFFCURVE",
"1177 1536 OFFCURVE",
"1070 1536 CURVE SMOOTH"
);
}
);
width = 1773;
}
);
unicode = 0070;
},
{
glyphname = caret_up;
lastChange = "2013-05-11 09:54:59 -0500";
layers = (
{
layerId = "E8902836-E278-4207-B18F-2ADDB08A6CA3";
name = Regular;
paths = (
{
closed = 1;
nodes = (
"23 404 LINE SMOOTH",
"-8 373 OFFCURVE",
"-8 317 OFFCURVE",
"23 285 CURVE SMOOTH",
"56 252 OFFCURVE",
"108 252 OFFCURVE",
"140 285 CURVE SMOOTH",
"495 648 LINE",
"850 285 LINE SMOOTH",
"882 252 OFFCURVE",
"935 252 OFFCURVE",
"967 285 CURVE SMOOTH",
"983 301 OFFCURVE",
"991 322 OFFCURVE",
"991 345 CURVE SMOOTH",
"991 367 OFFCURVE",
"983 388 OFFCURVE",
"967 404 CURVE SMOOTH",
"554 828 LINE SMOOTH",
"538 844 OFFCURVE",
"517 853 OFFCURVE",
"495 853 CURVE SMOOTH",
"473 853 OFFCURVE",
"452 844 OFFCURVE",
"437 828 CURVE SMOOTH"
);
}
);
width = 991;
}
);
unicode = 003A;
},
{
glyphname = caret_down;
lastChange = "2013-05-11 09:55:14 -0500";
layers = (
{
layerId = "E8902836-E278-4207-B18F-2ADDB08A6CA3";
name = Regular;
paths = (
{
closed = 1;
nodes = (
"968 661 LINE SMOOTH",
"999 693 OFFCURVE",
"999 749 OFFCURVE",
"968 781 CURVE SMOOTH",
"936 814 OFFCURVE",
"883 814 OFFCURVE",
"851 781 CURVE SMOOTH",
"496 417 LINE",
"141 781 LINE SMOOTH",
"109 814 OFFCURVE",
"56 814 OFFCURVE",
"24 781 CURVE SMOOTH",
"9 765 OFFCURVE",
"0 743 OFFCURVE",
"0 721 CURVE SMOOTH",
"0 698 OFFCURVE",
"9 677 OFFCURVE",
"24 661 CURVE SMOOTH",
"438 237 LINE SMOOTH",
"453 221 OFFCURVE",
"474 213 OFFCURVE",
"496 213 CURVE SMOOTH",
"518 213 OFFCURVE",
"539 221 OFFCURVE",
"555 237 CURVE SMOOTH"
);
}
);
width = 991;
}
);
unicode = 002C;
},
{
glyphname = caret_right;
lastChange = "2013-05-11 09:55:32 -0500";
layers = (
{
layerId = "E8902836-E278-4207-B18F-2ADDB08A6CA3";
name = Regular;
paths = (
{
closed = 1;
nodes = (
"145 1040 LINE SMOOTH",
"113 1071 OFFCURVE",
"57 1071 OFFCURVE",
"25 1040 CURVE SMOOTH",
"-8 1007 OFFCURVE",
"-8 955 OFFCURVE",
"25 923 CURVE SMOOTH",
"388 568 LINE",
"25 213 LINE SMOOTH",
"-8 181 OFFCURVE",
"-8 128 OFFCURVE",
"25 96 CURVE SMOOTH",
"41 80 OFFCURVE",
"62 72 OFFCURVE",
"85 72 CURVE SMOOTH",
"107 72 OFFCURVE",
"129 80 OFFCURVE",
"145 96 CURVE SMOOTH",
"568 509 LINE SMOOTH",
"584 525 OFFCURVE",
"593 546 OFFCURVE",
"593 568 CURVE SMOOTH",
"593 590 OFFCURVE",
"584 611 OFFCURVE",
"568 626 CURVE SMOOTH"
);
}
);
width = 593;
}
);
unicode = 2026;
},
{
glyphname = caret_left;
lastChange = "2013-05-11 09:55:43 -0500";
layers = (
{
layerId = "E8902836-E278-4207-B18F-2ADDB08A6CA3";
name = Regular;
paths = (
{
closed = 1;
nodes = (
"448 133 LINE SMOOTH",
"480 102 OFFCURVE",
"536 102 OFFCURVE",
"568 133 CURVE SMOOTH",
"601 165 OFFCURVE",
"601 218 OFFCURVE",
"568 250 CURVE SMOOTH",
"205 605 LINE",
"568 960 LINE SMOOTH",
"601 992 OFFCURVE",
"601 1044 OFFCURVE",
"568 1077 CURVE SMOOTH",
"552 1092 OFFCURVE",
"531 1101 OFFCURVE",
"508 1101 CURVE SMOOTH",
"486 1101 OFFCURVE",
"464 1092 OFFCURVE",
"448 1077 CURVE SMOOTH",
"25 663 LINE SMOOTH",
"9 648 OFFCURVE",
"0 627 OFFCURVE",
"0 605 CURVE SMOOTH",
"0 583 OFFCURVE",
"9 562 OFFCURVE",
"25 546 CURVE SMOOTH"
);
}
);
width = 593;
}
);
unicode = 0021;
},
{
glyphname = volume_mute;
lastChange = "2013-05-10 12:07:37 -0500";
layers = (
{
layerId = "E8902836-E278-4207-B18F-2ADDB08A6CA3";
name = Regular;
paths = (
{
closed = 1;
nodes = (
"974 1272 OFFCURVE",
"923 1297 OFFCURVE",
"861 1252 CURVE SMOOTH",
"501 986 LINE SMOOTH",
"440 940 OFFCURVE",
"389 912 OFFCURVE",
"389 923 CURVE SMOOTH",
"389 935 OFFCURVE",
"327 944 OFFCURVE",
"250 944 CURVE SMOOTH",
"139 944 LINE SMOOTH",
"62 944 OFFCURVE",
"0 881 OFFCURVE",
"0 805 CURVE SMOOTH",
"0 499 LINE SMOOTH",
"0 422 OFFCURVE",
"62 387 OFFCURVE",
"139 387 CURVE SMOOTH",
"250 387 LINE SMOOTH",
"327 387 OFFCURVE",
"389 377 OFFCURVE",
"389 381 CURVE SMOOTH",
"389 385 OFFCURVE",
"440 344 OFFCURVE",
"501 299 CURVE SMOOTH",
"861 29 LINE SMOOTH",
"923 -16 OFFCURVE",
"974 6 OFFCURVE",
"974 82 CURVE SMOOTH",
"974 1195 LINE SMOOTH"
);
}
);
width = 974;
}
);
unicode = 0030;
},
{
glyphname = volume_min;
lastChange = "2013-05-10 12:07:46 -0500";
layers = (
{
layerId = "E8902836-E278-4207-B18F-2ADDB08A6CA3";
name = Regular;
paths = (
{
closed = 1;
nodes = (
"993 1298 OFFCURVE",
"941 1324 OFFCURVE",
"879 1278 CURVE SMOOTH",
"511 1007 LINE SMOOTH",
"449 960 OFFCURVE",
"397 932 OFFCURVE",
"397 943 CURVE SMOOTH",
"397 955 OFFCURVE",
"333 964 OFFCURVE",
"255 964 CURVE SMOOTH",
"142 964 LINE SMOOTH",
"64 964 OFFCURVE",
"0 900 OFFCURVE",
"0 823 CURVE SMOOTH",
"0 511 LINE SMOOTH",
"0 433 OFFCURVE",
"64 397 OFFCURVE",
"142 397 CURVE SMOOTH",
"255 397 LINE SMOOTH",
"333 397 OFFCURVE",
"397 386 OFFCURVE",
"397 390 CURVE SMOOTH",
"397 394 OFFCURVE",
"449 353 OFFCURVE",
"511 307 CURVE SMOOTH",
"879 32 LINE SMOOTH",
"941 -14 OFFCURVE",
"993 8 OFFCURVE",
"993 86 CURVE SMOOTH",
"993 1220 LINE SMOOTH"
);
},
{
closed = 1;
nodes = (
"1276 632 OFFCURVE",
"1250 591 OFFCURVE",
"1212 565 CURVE",
"1316 464 LINE",
"1378 516 OFFCURVE",
"1418 593 OFFCURVE",
"1418 681 CURVE SMOOTH",
"1418 768 OFFCURVE",
"1378 845 OFFCURVE",
"1316 897 CURVE",
"1212 796 LINE",
"1250 770 OFFCURVE",
"1276 729 OFFCURVE",
"1276 681 CURVE SMOOTH"
);
}
);
width = 1418;
}
);
unicode = 0031;
},
{
glyphname = volume_medium;
lastChange = "2013-05-10 12:07:50 -0500";
layers = (
{
layerId = "E8902836-E278-4207-B18F-2ADDB08A6CA3";
name = Regular;
paths = (
{
closed = 1;
nodes = (
"992 1294 OFFCURVE",
"941 1320 OFFCURVE",
"878 1274 CURVE SMOOTH",
"511 1003 LINE SMOOTH",
"448 957 OFFCURVE",
"397 928 OFFCURVE",
"397 939 CURVE SMOOTH",
"397 951 OFFCURVE",
"333 960 OFFCURVE",
"255 960 CURVE SMOOTH",
"141 960 LINE SMOOTH",
"63 960 OFFCURVE",
"0 896 OFFCURVE",
"0 819 CURVE SMOOTH",
"0 507 LINE SMOOTH",
"0 429 OFFCURVE",
"63 393 OFFCURVE",
"141 393 CURVE SMOOTH",
"255 393 LINE SMOOTH",
"333 393 OFFCURVE",
"397 382 OFFCURVE",
"397 386 CURVE SMOOTH",
"397 390 OFFCURVE",
"448 349 OFFCURVE",
"511 303 CURVE SMOOTH",
"878 28 LINE SMOOTH",
"941 -18 OFFCURVE",
"992 4 OFFCURVE",
"992 82 CURVE SMOOTH",
"992 1216 LINE SMOOTH"
);
},
{
closed = 1;
nodes = (
"1276 628 OFFCURVE",
"1250 587 OFFCURVE",
"1212 561 CURVE",
"1315 460 LINE",
"1378 512 OFFCURVE",
"1418 590 OFFCURVE",
"1418 677 CURVE SMOOTH",
"1418 764 OFFCURVE",
"1378 841 OFFCURVE",
"1315 893 CURVE",
"1212 792 LINE",
"1250 766 OFFCURVE",
"1276 726 OFFCURVE",
"1276 677 CURVE SMOOTH"
);
},
{
closed = 1;
nodes = (
"1701 512 OFFCURVE",
"1630 366 OFFCURVE",
"1519 262 CURVE",
"1620 163 LINE",
"1757 292 OFFCURVE",
"1843 474 OFFCURVE",
"1843 677 CURVE SMOOTH",
"1843 880 OFFCURVE",
"1757 1061 OFFCURVE",
"1620 1191 CURVE",
"1519 1091 LINE",
"1630 988 OFFCURVE",
"1701 841 OFFCURVE",
"1701 677 CURVE SMOOTH"
);
}
);
width = 1843;
}
);
unicode = 0032;
},
{
glyphname = volume_max;
lastChange = "2013-05-10 12:07:57 -0500";
layers = (
{
layerId = "E8902836-E278-4207-B18F-2ADDB08A6CA3";
name = Regular;
paths = (
{
closed = 1;
nodes = (
"993 1277 OFFCURVE",
"942 1303 OFFCURVE",
"879 1257 CURVE SMOOTH",
"511 986 LINE SMOOTH",
"449 939 OFFCURVE",
"397 911 OFFCURVE",
"397 922 CURVE SMOOTH",
"397 934 OFFCURVE",
"334 943 OFFCURVE",
"256 943 CURVE SMOOTH",
"142 943 LINE SMOOTH",
"64 943 OFFCURVE",
"0 879 OFFCURVE",
"0 801 CURVE SMOOTH",
"0 490 LINE SMOOTH",
"0 412 OFFCURVE",
"64 376 OFFCURVE",
"142 376 CURVE SMOOTH",
"256 376 LINE SMOOTH",
"334 376 OFFCURVE",
"397 365 OFFCURVE",
"397 369 CURVE SMOOTH",
"397 373 OFFCURVE",
"449 332 OFFCURVE",
"511 286 CURVE SMOOTH",
"879 11 LINE SMOOTH",
"942 -36 OFFCURVE",
"993 -13 OFFCURVE",
"993 65 CURVE SMOOTH",
"993 1199 LINE SMOOTH"
);
},
{
closed = 1;
nodes = (
"1277 610 OFFCURVE",
"1250 570 OFFCURVE",
"1213 544 CURVE",
"1316 443 LINE",
"1378 495 OFFCURVE",
"1418 572 OFFCURVE",
"1418 660 CURVE SMOOTH",
"1418 747 OFFCURVE",
"1378 824 OFFCURVE",
"1316 876 CURVE",
"1213 775 LINE",
"1250 749 OFFCURVE",
"1277 708 OFFCURVE",
"1277 660 CURVE SMOOTH"
);
},
{
closed = 1;
nodes = (
"1702 495 OFFCURVE",
"1631 348 OFFCURVE",
"1519 245 CURVE",
"1621 146 LINE",
"1758 275 OFFCURVE",
"1844 457 OFFCURVE",
"1844 660 CURVE SMOOTH",
"1844 862 OFFCURVE",
"1758 1044 OFFCURVE",
"1621 1174 CURVE",
"1519 1074 LINE",
"1631 971 OFFCURVE",
"1702 824 OFFCURVE",
"1702 660 CURVE SMOOTH"
);
},
{
closed = 1;
nodes = (
"2128 380 OFFCURVE",
"2011 128 OFFCURVE",
"1824 -53 CURVE",
"1926 -153 LINE",
"2137 53 OFFCURVE",
"2269 341 OFFCURVE",
"2269 660 CURVE SMOOTH",
"2269 978 OFFCURVE",
"2137 1266 OFFCURVE",
"1926 1472 CURVE",
"1824 1372 LINE",
"2011 1192 OFFCURVE",
"2128 939 OFFCURVE",
"2128 660 CURVE SMOOTH"
);
}
);
width = 2269;
}
);
unicode = 0033;
},
{
glyphname = previous;
lastChange = "2013-05-10 12:05:24 -0500";
layers = (
{
layerId = "E8902836-E278-4207-B18F-2ADDB08A6CA3";
name = Regular;
paths = (
{
closed = 1;
nodes = (
"101 628 OFFCURVE",
"101 692 OFFCURVE",
"169 732 CURVE SMOOTH",
"472 909 LINE SMOOTH",
"540 948 OFFCURVE",
"651 1013 OFFCURVE",
"718 1053 CURVE SMOOTH",
"1022 1230 LINE SMOOTH",
"1090 1269 OFFCURVE",
"1145 1237 OFFCURVE",
"1145 1159 CURVE SMOOTH",
"1145 803 LINE",
"1145 518 LINE",
"1145 161 LINE SMOOTH",
"1145 83 OFFCURVE",
"1090 51 OFFCURVE",
"1022 90 CURVE SMOOTH",
"718 267 LINE SMOOTH",
"651 307 OFFCURVE",
"540 371 OFFCURVE",
"472 411 CURVE SMOOTH",
"169 588 LINE SMOOTH"
);
},
{
closed = 1;
nodes = (
"275 142 OFFCURVE",
"243 110 OFFCURVE",
"203 110 CURVE SMOOTH",
"71 110 LINE SMOOTH",
"32 110 OFFCURVE",
"0 142 OFFCURVE",
"0 181 CURVE SMOOTH",
"0 1139 LINE SMOOTH",
"0 1178 OFFCURVE",
"32 1210 OFFCURVE",
"71 1210 CURVE SMOOTH",
"203 1210 LINE SMOOTH",
"243 1210 OFFCURVE",
"275 1178 OFFCURVE",
"275 1139 CURVE SMOOTH",
"275 181 LINE SMOOTH"
);
}
);
width = 1145;
}
);
unicode = 0034;
},
{
glyphname = rewind;
lastChange = "2013-05-10 12:06:43 -0500";
layers = (
{
layerId = "E8902836-E278-4207-B18F-2ADDB08A6CA3";
name = Regular;
paths = (
{
closed = 1;
nodes = (
"1361 1077 LINE SMOOTH",
"1291 1036 OFFCURVE",
"1164 969 OFFCURVE",
"1094 929 CURVE",
"1019 893 LINE",
"1019 1186 LINE SMOOTH",
"1019 1267 OFFCURVE",
"983 1300 OFFCURVE",
"913 1259 CURVE SMOOTH",
"611 1077 LINE SMOOTH",
"541 1036 OFFCURVE",
"432 969 OFFCURVE",
"362 929 CURVE SMOOTH",
"52 746 LINE SMOOTH",
"-18 706 OFFCURVE",
"-16 639 OFFCURVE",
"53 598 CURVE SMOOTH",
"367 416 LINE SMOOTH",
"437 375 OFFCURVE",
"551 309 OFFCURVE",
"621 268 CURVE SMOOTH",
"913 86 LINE SMOOTH",
"982 45 OFFCURVE",
"1019 78 OFFCURVE",
"1019 158 CURVE SMOOTH",
"1019 452 LINE",
"1102 416 LINE",
"1171 375 OFFCURVE",
"1296 309 OFFCURVE",
"1366 268 CURVE",
"1652 86 LINE",
"1722 45 OFFCURVE",
"1753 78 OFFCURVE",
"1753 158 CURVE SMOOTH",
"1753 526 LINE",
"1753 819 LINE",
"1753 1186 LINE SMOOTH",
"1753 1267 OFFCURVE",
"1727 1300 OFFCURVE",
"1657 1259 CURVE SMOOTH"
);
}
);
width = 1753;
}
);
unicode = 0035;
},
{
glyphname = pause;
lastChange = "2013-05-10 12:07:26 -0500";
layers = (
{
layerId = "E8902836-E278-4207-B18F-2ADDB08A6CA3";
name = Regular;
paths = (
{
closed = 1;
nodes = (
"383 134 OFFCURVE",
"326 77 OFFCURVE",
"255 77 CURVE SMOOTH",
"128 77 LINE SMOOTH",
"57 77 OFFCURVE",
"0 134 OFFCURVE",
"0 204 CURVE SMOOTH",
"0 1097 LINE SMOOTH",
"0 1168 OFFCURVE",
"57 1225 OFFCURVE",
"128 1225 CURVE SMOOTH",
"255 1225 LINE SMOOTH",
"326 1225 OFFCURVE",
"383 1168 OFFCURVE",
"383 1097 CURVE SMOOTH",
"383 204 LINE SMOOTH"
);
},
{
closed = 1;
nodes = (
"1021 134 OFFCURVE",
"964 77 OFFCURVE",
"893 77 CURVE SMOOTH",
"766 77 LINE SMOOTH",
"695 77 OFFCURVE",
"638 134 OFFCURVE",
"638 204 CURVE SMOOTH",
"638 1097 LINE SMOOTH",
"638 1168 OFFCURVE",
"695 1225 OFFCURVE",
"766 1225 CURVE SMOOTH",
"893 1225 LINE SMOOTH",
"964 1225 OFFCURVE",
"1021 1168 OFFCURVE",
"1021 1097 CURVE SMOOTH",
"1021 204 LINE SMOOTH"
);
}
);
width = 1021;
}
);
unicode = 0036;
},
{
glyphname = play;
lastChange = "2013-05-10 12:09:52 -0500";
layers = (
{
layerId = "E8902836-E278-4207-B18F-2ADDB08A6CA3";
name = Regular;
paths = (
{
closed = 1;
nodes = (
"723 914 LINE SMOOTH",
"654 954 OFFCURVE",
"540 1020 OFFCURVE",
"470 1061 CURVE SMOOTH",
"148 1243 LINE SMOOTH",
"79 1284 OFFCURVE",
"10 1250 OFFCURVE",
"10 1170 CURVE SMOOTH",
"10 805 LINE",
"10 512 LINE",
"10 146 LINE SMOOTH",
"10 66 OFFCURVE",
"79 33 OFFCURVE",
"148 73 CURVE SMOOTH",
"465 256 LINE SMOOTH",
"534 296 OFFCURVE",
"651 362 OFFCURVE",
"721 402 CURVE SMOOTH",
"1034 585 LINE SMOOTH",
"1103 625 OFFCURVE",
"1104 691 OFFCURVE",
"1035 732 CURVE SMOOTH"
);
}
);
width = 992;
}
);
unicode = 0037;
},
{
glyphname = forward;
lastChange = "2013-05-10 12:10:39 -0500";
layers = (
{
layerId = "E8902836-E278-4207-B18F-2ADDB08A6CA3";
name = Regular;
paths = (
{
closed = 1;
nodes = (
"1396 908 LINE SMOOTH",
"1329 947 OFFCURVE",
"1219 1011 OFFCURVE",
"1152 1050 CURVE SMOOTH",
"840 1226 LINE SMOOTH",
"773 1266 OFFCURVE",
"708 1234 OFFCURVE",
"708 1156 CURVE SMOOTH",
"708 873 LINE",
"658 908 LINE",
"591 947 OFFCURVE",
"486 1011 OFFCURVE",
"419 1050 CURVE SMOOTH",
"120 1226 LINE SMOOTH",
"53 1266 OFFCURVE",
"0 1234 OFFCURVE",
"0 1156 CURVE SMOOTH",
"0 802 LINE",
"0 519 LINE",
"0 165 LINE SMOOTH",
"0 87 OFFCURVE",
"55 56 OFFCURVE",
"122 95 CURVE SMOOTH",
"424 271 LINE SMOOTH",
"491 310 OFFCURVE",
"591 374 OFFCURVE",
"658 413 CURVE",
"708 449 LINE",
"708 165 LINE SMOOTH",
"708 87 OFFCURVE",
"773 56 OFFCURVE",
"840 95 CURVE SMOOTH",
"1147 271 LINE SMOOTH",
"1214 310 OFFCURVE",
"1327 374 OFFCURVE",
"1394 413 CURVE SMOOTH",
"1697 589 LINE SMOOTH",
"1764 629 OFFCURVE",
"1765 693 OFFCURVE",
"1698 732 CURVE SMOOTH"
);
}
);
width = 1748;
}
);
unicode = 0038;
},
{
glyphname = next;
lastChange = "2013-05-10 12:11:27 -0500";
layers = (
{
layerId = "E8902836-E278-4207-B18F-2ADDB08A6CA3";
name = Regular;
paths = (
{
closed = 1;
nodes = (
"938 1207 LINE SMOOTH",
"898 1207 OFFCURVE",
"856 1171 OFFCURVE",
"856 1132 CURVE SMOOTH",
"856 786 LINE",
"663 902 LINE SMOOTH",
"596 941 OFFCURVE",
"487 1006 OFFCURVE",
"419 1046 CURVE SMOOTH",
"119 1223 LINE SMOOTH",
"52 1263 OFFCURVE",
"0 1230 OFFCURVE",
"0 1152 CURVE SMOOTH",
"0 795 LINE",
"0 510 LINE",
"0 153 LINE SMOOTH",
"0 75 OFFCURVE",
"53 43 OFFCURVE",
"121 82 CURVE SMOOTH",
"423 260 LINE SMOOTH",
"491 299 OFFCURVE",
"596 364 OFFCURVE",
"664 403 CURVE SMOOTH",
"856 519 LINE",
"856 137 LINE SMOOTH",
"856 98 OFFCURVE",
"898 65 OFFCURVE",
"938 65 CURVE SMOOTH",
"1070 65 LINE SMOOTH",
"1109 65 OFFCURVE",
"1142 98 OFFCURVE",
"1142 137 CURVE SMOOTH",
"1142 1132 LINE SMOOTH",
"1142 1171 OFFCURVE",
"1109 1207 OFFCURVE",
"1070 1207 CURVE SMOOTH"
);
}
);
width = 1142;
}
);
unicode = 0039;
},
{
glyphname = fullscreen;
lastChange = "2013-05-11 10:03:37 -0500";
layers = (
{
layerId = "E8902836-E278-4207-B18F-2ADDB08A6CA3";
name = Regular;
paths = (
{
closed = 1;
nodes = (
"940 1225 LINE",
"790 1225 LINE SMOOTH",
"731 1225 OFFCURVE",
"683 1177 OFFCURVE",
"683 1117 CURVE SMOOTH",
"683 1068 OFFCURVE",
"716 1027 OFFCURVE",
"761 1014 CURVE",
"668 921 LINE",
"668 921 LINE",
"646 900 OFFCURVE",
"636 872 OFFCURVE",
"636 845 CURVE SMOOTH",
"636 818 OFFCURVE",
"647 790 OFFCURVE",
"668 769 CURVE SMOOTH",
"688 748 OFFCURVE",
"716 737 OFFCURVE",
"744 737 CURVE SMOOTH",
"771 737 OFFCURVE",
"799 748 OFFCURVE",
"820 769 CURVE SMOOTH",
"918 867 LINE",
"926 816 OFFCURVE",
"970 776 OFFCURVE",
"1024 776 CURVE SMOOTH",
"1083 776 OFFCURVE",
"1131 824 OFFCURVE",
"1131 884 CURVE SMOOTH",
"1131 1067 LINE",
"1131 1084 LINE",
"1131 1167 LINE",
"1131 1225 LINE",
"957 1225 LINE"
);
},
{
closed = 1;
nodes = (
"464 558 LINE",
"464 558 LINE",
"459 563 LINE"
);
},
{
closed = 1;
nodes = (
"443 579 OFFCURVE",
"415 589 OFFCURVE",
"388 589 CURVE SMOOTH",
"361 589 OFFCURVE",
"333 579 OFFCURVE",
"312 557 CURVE",
"312 558 LINE",
"214 459 LINE",
"206 511 OFFCURVE",
"162 550 OFFCURVE",
"108 550 CURVE SMOOTH",
"48 550 OFFCURVE",
"0 502 OFFCURVE",
"0 443 CURVE SMOOTH",
"0 259 LINE",
"0 243 LINE",
"0 159 LINE",
"0 102 LINE",
"174 102 LINE",
"191 102 LINE",
"341 102 LINE SMOOTH",
"401 102 OFFCURVE",
"449 150 OFFCURVE",
"449 209 CURVE SMOOTH",
"449 258 OFFCURVE",
"416 299 OFFCURVE",
"371 312 CURVE",
"464 405 LINE SMOOTH",
"485 426 OFFCURVE",
"495 454 OFFCURVE",
"495 481 CURVE SMOOTH",
"495 509 OFFCURVE",
"485 536 OFFCURVE",
"464 557 CURVE",
"464 558 LINE"
);
},
{
closed = 1;
nodes = (
"161 780 OFFCURVE",
"202 813 OFFCURVE",
"215 858 CURVE",
"308 765 LINE SMOOTH",
"329 744 OFFCURVE",
"357 733 OFFCURVE",
"384 733 CURVE SMOOTH",
"411 733 OFFCURVE",
"439 744 OFFCURVE",
"460 765 CURVE SMOOTH",
"481 786 OFFCURVE",
"492 814 OFFCURVE",
"492 841 CURVE SMOOTH",
"492 868 OFFCURVE",
"481 896 OFFCURVE",
"460 917 CURVE SMOOTH",
"362 1015 LINE",
"413 1023 OFFCURVE",
"453 1067 OFFCURVE",
"453 1121 CURVE",
"453 1181 OFFCURVE",
"405 1229 OFFCURVE",
"345 1229 CURVE SMOOTH",
"162 1229 LINE",
"145 1229 LINE",
"62 1229 LINE",
"4 1229 LINE",
"4 1054 LINE",
"4 1038 LINE",
"4 888 LINE SMOOTH",
"4 828 OFFCURVE",
"52 780 OFFCURVE",
"112 780 CURVE SMOOTH"
);
},
{
closed = 1;
nodes = (
"671 561 LINE",
"671 561 LINE"
);
},
{
closed = 1;
nodes = (
"971 546 OFFCURVE",
"930 513 OFFCURVE",
"917 468 CURVE",
"824 561 LINE SMOOTH",
"803 582 OFFCURVE",
"775 593 OFFCURVE",
"747 593 CURVE SMOOTH",
"720 593 OFFCURVE",
"692 582 OFFCURVE",
"671 561 CURVE SMOOTH",
"651 540 OFFCURVE",
"640 513 OFFCURVE",
"640 485 CURVE SMOOTH",
"640 458 OFFCURVE",
"650 430 OFFCURVE",
"672 409 CURVE SMOOTH",
"674 406 LINE",
"770 311 LINE",
"718 303 OFFCURVE",
"679 259 OFFCURVE",
"679 205 CURVE SMOOTH",
"679 146 OFFCURVE",
"727 98 OFFCURVE",
"786 98 CURVE SMOOTH",
"970 98 LINE",
"986 98 LINE",
"1070 98 LINE",
"1127 98 LINE",
"1127 272 LINE",
"1127 289 LINE",
"1127 439 LINE",
"1127 498 OFFCURVE",
"1079 546 OFFCURVE",
"1020 546 CURVE SMOOTH"
);
}
);
width = 1131;
}
);
unicode = 002E;
},
{
glyphname = minimize;
lastChange = "2013-05-11 10:03:52 -0500";
layers = (
{
layerId = "E8902836-E278-4207-B18F-2ADDB08A6CA3";
name = Regular;
paths = (
{
closed = 1;
nodes = (
"134 942 LINE",
"82 934 OFFCURVE",
"43 890 OFFCURVE",
"43 836 CURVE SMOOTH",
"43 776 OFFCURVE",
"91 729 OFFCURVE",
"151 728 CURVE SMOOTH",
"334 728 LINE",
"350 728 LINE",
"434 728 LINE",
"491 728 LINE",
"491 903 LINE",
"491 919 LINE",
"491 1069 LINE",
"491 1129 OFFCURVE",
"443 1177 OFFCURVE",
"384 1177 CURVE SMOOTH",
"335 1177 OFFCURVE",
"294 1144 OFFCURVE",
"281 1099 CURVE",
"188 1192 LINE SMOOTH",
"167 1213 OFFCURVE",
"139 1224 OFFCURVE",
"112 1224 CURVE SMOOTH",
"85 1224 OFFCURVE",
"57 1213 OFFCURVE",
"36 1192 CURVE SMOOTH",
"15 1171 OFFCURVE",
"4 1143 OFFCURVE",
"4 1116 CURVE SMOOTH",
"4 1089 OFFCURVE",
"15 1061 OFFCURVE",
"36 1040 CURVE SMOOTH"
);
},
{
closed = 1;
nodes = (
"36 1192 LINE"
);
},
{
closed = 1;
nodes = (
"1049 382 OFFCURVE",
"1088 426 OFFCURVE",
"1088 480 CURVE SMOOTH",
"1088 540 OFFCURVE",
"1040 588 OFFCURVE",
"981 588 CURVE SMOOTH",
"798 588 LINE",
"781 588 LINE",
"697 588 LINE",
"640 588 LINE",
"640 414 LINE",
"640 397 LINE",
"640 247 LINE SMOOTH",
"640 187 OFFCURVE",
"688 139 OFFCURVE",
"748 139 CURVE SMOOTH",
"797 139 OFFCURVE",
"838 172 OFFCURVE",
"851 217 CURVE",
"944 124 LINE SMOOTH",
"964 103 OFFCURVE",
"992 92 OFFCURVE",
"1020 92 CURVE SMOOTH",
"1047 92 OFFCURVE",
"1075 103 OFFCURVE",
"1096 124 CURVE SMOOTH",
"1117 145 OFFCURVE",
"1127 173 OFFCURVE",
"1127 200 CURVE SMOOTH",
"1127 227 OFFCURVE",
"1117 255 OFFCURVE",
"1096 276 CURVE SMOOTH",
"998 374 LINE"
);
},
{
closed = 1;
nodes = (
"977 732 LINE SMOOTH",
"1037 732 OFFCURVE",
"1085 780 OFFCURVE",
"1085 840 CURVE SMOOTH",
"1085 889 OFFCURVE",
"1052 930 OFFCURVE",
"1007 943 CURVE",
"1100 1036 LINE SMOOTH",
"1121 1057 OFFCURVE",
"1131 1085 OFFCURVE",
"1131 1112 CURVE SMOOTH",
"1131 1140 OFFCURVE",
"1121 1167 OFFCURVE",
"1100 1188 CURVE",
"1100 1188 LINE",
"1079 1209 OFFCURVE",
"1051 1220 OFFCURVE",
"1024 1220 CURVE SMOOTH",
"996 1220 OFFCURVE",
"969 1209 OFFCURVE",
"948 1188 CURVE",
"948 1188 LINE",
"849 1090 LINE",
"841 1142 OFFCURVE",
"797 1181 OFFCURVE",
"744 1181 CURVE SMOOTH",
"684 1181 OFFCURVE",
"636 1133 OFFCURVE",
"636 1073 CURVE SMOOTH",
"636 890 LINE",
"636 873 LINE",
"636 790 LINE",
"636 732 LINE",
"810 732 LINE",
"827 732 LINE"
);
},
{
closed = 1;
nodes = (
"154 584 LINE SMOOTH",
"95 584 OFFCURVE",
"47 536 OFFCURVE",
"47 476 CURVE SMOOTH",
"47 427 OFFCURVE",
"80 386 OFFCURVE",
"125 373 CURVE",
"32 280 LINE SMOOTH",
"11 259 OFFCURVE",
"0 231 OFFCURVE",
"0 204 CURVE SMOOTH",
"0 177 OFFCURVE",
"11 149 OFFCURVE",
"32 128 CURVE SMOOTH",
"53 107 OFFCURVE",
"80 96 OFFCURVE",
"108 97 CURVE SMOOTH",
"135 96 OFFCURVE",
"163 107 OFFCURVE",
"184 128 CURVE SMOOTH",
"282 226 LINE",
"290 175 OFFCURVE",
"334 135 OFFCURVE",
"388 135 CURVE SMOOTH",
"447 135 OFFCURVE",
"495 183 OFFCURVE",
"496 243 CURVE SMOOTH",
"496 426 LINE",
"496 443 LINE",
"496 526 LINE",
"496 584 LINE",
"321 584 LINE",
"305 584 LINE"
);
}
);
width = 1131;
}
);
unicode = 00B7;
},
{
glyphname = download;
lastChange = "2013-05-11 10:07:37 -0500";
layers = (
{
layerId = "E8902836-E278-4207-B18F-2ADDB08A6CA3";
name = Regular;
paths = (
{
closed = 1;
nodes = (
"59 260 LINE SMOOTH",
"27 260 OFFCURVE",
"0 234 OFFCURVE",
"0 202 CURVE SMOOTH",
"0 84 LINE SMOOTH",
"0 52 OFFCURVE",
"27 26 OFFCURVE",
"59 26 CURVE SMOOTH",
"1343 26 LINE SMOOTH",
"1375 26 OFFCURVE",
"1401 52 OFFCURVE",
"1401 84 CURVE SMOOTH",
"1401 202 LINE SMOOTH",
"1401 234 OFFCURVE",
"1375 260 OFFCURVE",
"1343 260 CURVE SMOOTH"
);
},
{
closed = 1;
nodes = (
"1327 380 LINE SMOOTH",
"1359 380 OFFCURVE",
"1388 406 OFFCURVE",
"1388 438 CURVE SMOOTH",
"1388 545 LINE SMOOTH",
"1388 577 OFFCURVE",
"1359 611 OFFCURVE",
"1327 611 CURVE SMOOTH",
"816 611 LINE",
"910 767 LINE SMOOTH",
"942 822 OFFCURVE",
"994 910 OFFCURVE",
"1026 965 CURVE SMOOTH",
"1170 1207 LINE SMOOTH",
"1202 1262 OFFCURVE",
"1176 1304 OFFCURVE",
"1112 1304 CURVE SMOOTH",
"824 1304 LINE",
"592 1304 LINE",
"304 1304 LINE SMOOTH",
"240 1304 OFFCURVE",
"214 1261 OFFCURVE",
"246 1206 CURVE SMOOTH",
"390 962 LINE SMOOTH",
"422 907 OFFCURVE",
"474 821 OFFCURVE",
"506 766 CURVE SMOOTH",
"599 611 LINE",
"59 611 LINE SMOOTH",
"27 611 OFFCURVE",
"1 577 OFFCURVE",
"1 545 CURVE SMOOTH",
"1 438 LINE SMOOTH",
"1 406 OFFCURVE",
"27 380 OFFCURVE",
"59 380 CURVE SMOOTH"
);
}
);
width = 1401;
}
);
unicode = 003F;
},
{
glyphname = expand;
lastChange = "2013-05-11 10:23:07 -0500";
layers = (
{
layerId = "E8902836-E278-4207-B18F-2ADDB08A6CA3";
name = Regular;
paths = (
{
closed = 1;
nodes = (
"974 1264 LINE",
"820 1264 LINE SMOOTH",
"759 1264 OFFCURVE",
"709 1215 OFFCURVE",
"709 1153 CURVE SMOOTH",
"709 1102 OFFCURVE",
"743 1061 OFFCURVE",
"790 1047 CURVE",
"694 952 LINE",
"694 952 LINE",
"672 930 OFFCURVE",
"661 901 OFFCURVE",
"661 873 CURVE SMOOTH",
"661 845 OFFCURVE",
"673 817 OFFCURVE",
"694 795 CURVE SMOOTH",
"715 774 OFFCURVE",
"744 763 OFFCURVE",
"772 763 CURVE SMOOTH",
"800 763 OFFCURVE",
"829 774 OFFCURVE",
"851 795 CURVE SMOOTH",
"952 896 LINE",
"959 843 OFFCURVE",
"1005 803 OFFCURVE",
"1060 803 CURVE SMOOTH",
"1121 803 OFFCURVE",
"1171 852 OFFCURVE",
"1171 913 CURVE SMOOTH",
"1171 1101 LINE",
"1171 1119 LINE",
"1171 1205 LINE",
"1171 1264 LINE",
"992 1264 LINE"
);
},
{
closed = 1;
nodes = (
"485 578 LINE",
"485 578 LINE",
"479 583 LINE"
);
},
{
closed = 1;
nodes = (
"463 600 OFFCURVE",
"434 610 OFFCURVE",
"406 610 CURVE SMOOTH",
"378 610 OFFCURVE",
"350 600 OFFCURVE",
"328 578 CURVE",
"329 578 LINE",
"228 477 LINE",
"219 530 OFFCURVE",
"174 570 OFFCURVE",
"119 570 CURVE SMOOTH",
"57 570 OFFCURVE",
"8 521 OFFCURVE",
"7 459 CURVE SMOOTH",
"7 271 LINE",
"7 254 LINE",
"7 168 LINE",
"7 109 LINE",
"187 109 LINE",
"204 109 LINE",
"358 109 LINE SMOOTH",
"420 109 OFFCURVE",
"469 158 OFFCURVE",
"469 220 CURVE SMOOTH",
"469 270 OFFCURVE",
"435 312 OFFCURVE",
"389 325 CURVE",
"485 421 LINE SMOOTH",
"506 443 OFFCURVE",
"517 472 OFFCURVE",
"517 500 CURVE SMOOTH",
"517 527 OFFCURVE",
"506 556 OFFCURVE",
"485 578 CURVE",
"485 578 LINE"
);
},
{
closed = 1;
nodes = (
"698 581 LINE",
"698 581 LINE"
);
}
);
width = 1171;
}
);
unicode = 00BF;
},
{
glyphname = contract;
lastChange = "2013-05-11 10:23:14 -0500";
layers = (
{
layerId = "E8902836-E278-4207-B18F-2ADDB08A6CA3";
name = Regular;
paths = (
{
closed = 1;
nodes = (
"39 1239 LINE"
);
},
{
closed = 1;
nodes = (
"1060 765 LINE SMOOTH",
"1125 765 OFFCURVE",
"1176 814 OFFCURVE",
"1176 877 CURVE SMOOTH",
"1176 927 OFFCURVE",
"1141 969 OFFCURVE",
"1092 982 CURVE",
"1193 1078 LINE SMOOTH",
"1216 1100 OFFCURVE",
"1227 1128 OFFCURVE",
"1227 1156 CURVE SMOOTH",
"1227 1185 OFFCURVE",
"1216 1214 OFFCURVE",
"1193 1235 CURVE",
"1193 1235 LINE",
"1170 1257 OFFCURVE",
"1141 1268 OFFCURVE",
"1111 1268 CURVE SMOOTH",
"1081 1268 OFFCURVE",
"1051 1257 OFFCURVE",
"1028 1235 CURVE",
"1029 1235 LINE",
"922 1134 LINE",
"913 1187 OFFCURVE",
"865 1228 OFFCURVE",
"807 1228 CURVE SMOOTH",
"742 1228 OFFCURVE",
"690 1178 OFFCURVE",
"690 1116 CURVE SMOOTH",
"690 928 LINE",
"690 911 LINE",
"690 825 LINE",
"690 765 LINE",
"879 765 LINE",
"897 765 LINE"
);
},
{
closed = 1;
nodes = (
"167 613 LINE SMOOTH",
"102 613 OFFCURVE",
"50 563 OFFCURVE",
"50 501 CURVE SMOOTH",
"50 451 OFFCURVE",
"86 408 OFFCURVE",
"135 395 CURVE",
"34 299 LINE SMOOTH",
"11 277 OFFCURVE",
"0 249 OFFCURVE",
"0 221 CURVE SMOOTH",
"0 192 OFFCURVE",
"11 164 OFFCURVE",
"34 142 CURVE SMOOTH",
"56 120 OFFCURVE",
"87 110 OFFCURVE",
"116 110 CURVE SMOOTH",
"146 110 OFFCURVE",
"177 121 OFFCURVE",
"199 142 CURVE SMOOTH",
"306 243 LINE",
"314 190 OFFCURVE",
"362 150 OFFCURVE",
"421 150 CURVE SMOOTH",
"485 150 OFFCURVE",
"538 200 OFFCURVE",
"538 261 CURVE SMOOTH",
"538 449 LINE",
"538 467 LINE",
"538 552 LINE",
"538 613 LINE",
"348 613 LINE",
"329 613 LINE"
);
}
);
width = 1227;
}
);
unicode = 0022;
},
{
glyphname = digital_tv;
lastChange = "2013-05-09 10:52:09 -0500";
layers = (
{
layerId = "E8902836-E278-4207-B18F-2ADDB08A6CA3";
name = Regular;
paths = (
{
closed = 1;
nodes = (
"1972 1386 LINE",
"0 1386 LINE",
"0 104 LINE",
"690 104 LINE",
"690 5 LINE",
"493 5 LINE",
"493 -93 LINE",
"1479 -93 LINE",
"1479 5 LINE",
"1282 5 LINE",
"1282 104 LINE",
"1972 104 LINE"
);
},
{
closed = 1;
nodes = (
"197 1189 LINE",
"1775 1189 LINE",
"1775 302 LINE",
"197 302 LINE"
);
}
);
width = 1972;
}
);
unicode = 0072;
},
{
glyphname = tablet;
lastChange = "2013-05-09 10:49:20 -0500";
layers = (
{
layerId = "E8902836-E278-4207-B18F-2ADDB08A6CA3";
name = Regular;
paths = (
{
closed = 1;
nodes = (
"187 1536 LINE SMOOTH",
"84 1536 OFFCURVE",
"0 1452 OFFCURVE",
"0 1349 CURVE SMOOTH",
"0 -49 LINE SMOOTH",
"0 -152 OFFCURVE",
"84 -236 OFFCURVE",
"187 -236 CURVE SMOOTH",
"1119 -236 LINE SMOOTH",
"1222 -236 OFFCURVE",
"1306 -152 OFFCURVE",
"1306 -49 CURVE SMOOTH",
"1306 1349 LINE SMOOTH",
"1306 1452 OFFCURVE",
"1222 1536 OFFCURVE",
"1119 1536 CURVE SMOOTH"
);
},
{
closed = 1;
nodes = (
"560 -143 LINE",
"560 -49 LINE",
"746 -49 LINE",
"746 -143 LINE"
);
},
{
closed = 1;
nodes = (
"187 44 LINE",
"187 1349 LINE",
"1119 1349 LINE",
"1119 44 LINE"
);
}
);
width = 1306;
}
);
unicode = 0071;
},
{
glyphname = mobile;
lastChange = "2013-05-13 13:14:10 -0500";
layers = (
{
layerId = "E8902836-E278-4207-B18F-2ADDB08A6CA3";
name = Regular;
paths = (
{
closed = 1;
nodes = (
"190 1438 LINE SMOOTH",
"85 1438 OFFCURVE",
"0 1352 OFFCURVE",
"0 1248 CURVE SMOOTH",
"0 31 LINE SMOOTH",
"0 -73 OFFCURVE",
"85 -158 OFFCURVE",
"190 -158 CURVE SMOOTH",
"853 -158 LINE SMOOTH",
"956 -158 OFFCURVE",
"1042 -73 OFFCURVE",
"1042 31 CURVE SMOOTH",
"1042 1248 LINE SMOOTH",
"1042 1352 OFFCURVE",
"956 1438 OFFCURVE",
"853 1438 CURVE SMOOTH"
);
},
{
closed = 1;
nodes = (
"664 1343 LINE SMOOTH",
"690 1343 OFFCURVE",
"711 1322 OFFCURVE",
"711 1296 CURVE SMOOTH",
"711 1269 OFFCURVE",
"690 1248 OFFCURVE",
"664 1248 CURVE SMOOTH",
"380 1248 LINE SMOOTH",
"353 1248 OFFCURVE",
"332 1269 OFFCURVE",
"332 1296 CURVE SMOOTH",
"332 1322 OFFCURVE",
"353 1343 OFFCURVE",
"380 1343 CURVE SMOOTH"
);
},
{
closed = 1;
nodes = (
"480 -89 OFFCURVE",
"447 -56 OFFCURVE",
"447 -16 CURVE SMOOTH",
"447 25 OFFCURVE",
"480 58 OFFCURVE",
"521 58 CURVE SMOOTH",
"561 58 OFFCURVE",
"595 25 OFFCURVE",
"595 -16 CURVE SMOOTH",
"595 -56 OFFCURVE",
"561 -89 OFFCURVE",
"521 -89 CURVE SMOOTH"
);
},
{
closed = 1;
nodes = (
"190 127 LINE",
"190 1154 LINE",
"853 1154 LINE",
"853 127 LINE"
);
}
);
width = 1042;
}
);
unicode = 006C;
},
{
glyphname = spinner;
lastChange = "2013-05-13 15:54:54 -0500";
layers = (
{
layerId = "E8902836-E278-4207-B18F-2ADDB08A6CA3";
name = Regular;
paths = (
{
closed = 1;
nodes = (
"496 272 OFFCURVE",
"431 336 OFFCURVE",
"352 336 CURVE SMOOTH",
"272 336 OFFCURVE",
"208 272 OFFCURVE",
"208 192 CURVE SMOOTH",
"208 112 OFFCURVE",
"272 48 OFFCURVE",
"352 48 CURVE SMOOTH",
"431 48 OFFCURVE",
"496 112 OFFCURVE",
"496 192 CURVE SMOOTH"
);
},
{
closed = 1;
nodes = (
"928 71 OFFCURVE",
"871 128 OFFCURVE",
"800 128 CURVE SMOOTH",
"729 128 OFFCURVE",
"672 71 OFFCURVE",
"672 0 CURVE SMOOTH",
"672 -71 OFFCURVE",
"729 -128 OFFCURVE",
"800 -128 CURVE SMOOTH",
"871 -128 OFFCURVE",
"928 -71 OFFCURVE",
"928 0 CURVE SMOOTH"
);
},
{
closed = 1;
nodes = (
"320 728 OFFCURVE",
"248 800 OFFCURVE",
"160 800 CURVE SMOOTH",
"72 800 OFFCURVE",
"0 728 OFFCURVE",
"0 640 CURVE SMOOTH",
"0 552 OFFCURVE",
"72 480 OFFCURVE",
"160 480 CURVE SMOOTH",
"248 480 OFFCURVE",
"320 552 OFFCURVE",
"320 640 CURVE SMOOTH"
);
},
{
closed = 1;
nodes = (
"1360 254 OFFCURVE",
"1310 304 OFFCURVE",
"1248 304 CURVE SMOOTH",
"1186 304 OFFCURVE",
"1136 254 OFFCURVE",
"1136 192 CURVE SMOOTH",
"1136 130 OFFCURVE",
"1186 80 OFFCURVE",
"1248 80 CURVE SMOOTH",
"1310 80 OFFCURVE",
"1360 130 OFFCURVE",
"1360 192 CURVE SMOOTH"
);
},
{
closed = 1;
nodes = (
"528 1185 OFFCURVE",
"449 1264 OFFCURVE",
"352 1264 CURVE SMOOTH",
"255 1264 OFFCURVE",
"176 1185 OFFCURVE",
"176 1088 CURVE SMOOTH",
"176 991 OFFCURVE",
"255 912 OFFCURVE",
"352 912 CURVE SMOOTH",
"449 912 OFFCURVE",
"528 991 OFFCURVE",
"528 1088 CURVE SMOOTH"
);
},
{
closed = 1;
nodes = (
"992 1386 OFFCURVE",
"906 1472 OFFCURVE",
"800 1472 CURVE SMOOTH",
"694 1472 OFFCURVE",
"608 1386 OFFCURVE",
"608 1280 CURVE SMOOTH",
"608 1174 OFFCURVE",
"694 1088 OFFCURVE",
"800 1088 CURVE SMOOTH",
"906 1088 OFFCURVE",
"992 1174 OFFCURVE",
"992 1280 CURVE SMOOTH"
);
},
{
closed = 1;
nodes = (
"1536 693 OFFCURVE",
"1493 736 OFFCURVE",
"1440 736 CURVE SMOOTH",
"1387 736 OFFCURVE",
"1344 693 OFFCURVE",
"1344 640 CURVE SMOOTH",
"1344 587 OFFCURVE",
"1387 544 OFFCURVE",
"1440 544 CURVE SMOOTH",
"1493 544 OFFCURVE",
"1536 587 OFFCURVE",
"1536 640 CURVE SMOOTH"
);
},
{
closed = 1;
nodes = (
"1328 1132 OFFCURVE",
"1292 1168 OFFCURVE",
"1248 1168 CURVE SMOOTH",
"1204 1168 OFFCURVE",
"1168 1132 OFFCURVE",
"1168 1088 CURVE SMOOTH",
"1168 1044 OFFCURVE",
"1204 1008 OFFCURVE",
"1248 1008 CURVE SMOOTH",
"1292 1008 OFFCURVE",
"1328 1044 OFFCURVE",
"1328 1088 CURVE SMOOTH"
);
}
);
width = 1568;
}
);
unicode = 007A;
},
{
glyphname = popout;
lastChange = "2013-05-11 10:23:37 -0500";
layers = (
{
layerId = "E8902836-E278-4207-B18F-2ADDB08A6CA3";
name = Regular;
paths = (
{
closed = 1;
nodes = (
"1225 1324 LINE",
"1094 1324 LINE SMOOTH",
"1041 1324 OFFCURVE",
"999 1282 OFFCURVE",
"999 1230 CURVE SMOOTH",
"999 1187 OFFCURVE",
"1028 1151 OFFCURVE",
"1068 1140 CURVE",
"986 1059 LINE",
"986 1059 LINE",
"968 1040 OFFCURVE",
"958 1016 OFFCURVE",
"959 992 CURVE SMOOTH",
"958 968 OFFCURVE",
"968 944 OFFCURVE",
"986 925 CURVE SMOOTH",
"1004 907 OFFCURVE",
"1029 898 OFFCURVE",
"1053 898 CURVE SMOOTH",
"1076 898 OFFCURVE",
"1101 907 OFFCURVE",
"1119 925 CURVE SMOOTH",
"1205 1011 LINE",
"1212 966 OFFCURVE",
"1250 932 OFFCURVE",
"1298 932 CURVE SMOOTH",
"1350 932 OFFCURVE",
"1392 974 OFFCURVE",
"1392 1026 CURVE SMOOTH",
"1392 1186 LINE",
"1392 1201 LINE",
"1392 1274 LINE",
"1392 1324 LINE",
"1239 1324 LINE"
);
},
{
closed = 1;
nodes = (
"1147 697 OFFCURVE",
"1100 678 OFFCURVE",
"1053 678 CURVE SMOOTH",
"1043 678 OFFCURVE",
"1033 680 OFFCURVE",
"1023 681 CURVE",
"1023 309 LINE",
"192 309 LINE",
"192 955 LINE",
"751 955 LINE",
"749 964 OFFCURVE",
"747 973 OFFCURVE",
"747 982 CURVE",
"746 987 OFFCURVE",
"746 991 OFFCURVE",
"747 992 CURVE",
"747 1040 OFFCURVE",
"765 1087 OFFCURVE",
"801 1124 CURVE SMOOTH",
"813 1136 LINE",
"797 1163 OFFCURVE",
"787 1196 OFFCURVE",
"787 1230 CURVE SMOOTH",
"787 1231 OFFCURVE",
"788 1231 OFFCURVE",
"788 1232 CURVE",
"192 1232 LINE SMOOTH",
"90 1232 OFFCURVE",
"8 1149 OFFCURVE",
"8 1047 CURVE SMOOTH",
"8 309 LINE SMOOTH",
"8 207 OFFCURVE",
"90 125 OFFCURVE",
"192 125 CURVE SMOOTH",
"1023 125 LINE SMOOTH",
"1125 125 OFFCURVE",
"1207 207 OFFCURVE",
"1207 309 CURVE SMOOTH",
"1207 737 LINE",
"1203 740 OFFCURVE",
"1199 741 OFFCURVE",
"1195 743 CURVE",
"1184 733 LINE SMOOTH"
);
}
);
width = 1392;
}
);
unicode = 0027;
},
{
glyphname = facebook;
lastChange = "2013-05-08 15:06:21 -0500";
layers = (
{
layerId = "E8902836-E278-4207-B18F-2ADDB08A6CA3";
name = Regular;
paths = (
{
closed = 1;
nodes = (
"288 1408 LINE SMOOTH",
"129 1408 OFFCURVE",
"0 1279 OFFCURVE",
"0 1120 CURVE SMOOTH",
"0 160 LINE SMOOTH",
"0 1 OFFCURVE",
"129 -128 OFFCURVE",
"288 -128 CURVE SMOOTH",
"618 -128 LINE",
"618 -128 OFFCURVE",
"608 -128 OFFCURVE",
"608 -127 CURVE SMOOTH",
"608 544 LINE",
"513 544 LINE SMOOTH",
"495 544 OFFCURVE",
"480 543 OFFCURVE",
"480 561 CURVE SMOOTH",
"480 733 LINE SMOOTH",
"480 751 OFFCURVE",
"495 768 OFFCURVE",
"513 768 CURVE SMOOTH",
"608 768 LINE",
"608 853 LINE SMOOTH",
"608 1054 OFFCURVE",
"713 1152 OFFCURVE",
"919 1152 CURVE SMOOTH",
"987 1152 OFFCURVE",
"1055 1143 OFFCURVE",
"1116 1126 CURVE SMOOTH",
"1132 1122 OFFCURVE",
"1143 1106 OFFCURVE",
"1141 1090 CURVE SMOOTH",
"1118 924 LINE SMOOTH",
"1117 915 OFFCURVE",
"1112 907 OFFCURVE",
"1105 902 CURVE",
"1097 897 OFFCURVE",
"1088 895 OFFCURVE",
"1079 897 CURVE SMOOTH",
"1042 905 OFFCURVE",
"995 910 OFFCURVE",
"962 910 CURVE SMOOTH",
"903 910 OFFCURVE",
"896 897 OFFCURVE",
"896 840 CURVE SMOOTH",
"896 768 LINE",
"1085 768 LINE SMOOTH",
"1094 768 OFFCURVE",
"1103 763 OFFCURVE",
"1109 756 CURVE",
"1115 750 OFFCURVE",
"1118 740 OFFCURVE",
"1117 731 CURVE",
"1105 567 LINE SMOOTH",
"1104 550 OFFCURVE",
"1090 544 OFFCURVE",
"1073 544 CURVE SMOOTH",
"896 544 LINE",
"896 -127 LINE SMOOTH",
"896 -128 OFFCURVE",
"898 -128 OFFCURVE",
"898 -128 CURVE",
"1248 -128 LINE SMOOTH",
"1407 -128 OFFCURVE",
"1536 1 OFFCURVE",
"1536 160 CURVE SMOOTH",
"1536 1120 LINE SMOOTH",
"1536 1279 OFFCURVE",
"1407 1408 OFFCURVE",
"1248 1408 CURVE SMOOTH"
);
}
);
width = 1536;
}
);
unicode = 0056;
},
{
glyphname = twitter;
lastChange = "2013-05-08 15:05:13 -0500";
layers = (
{
layerId = "E8902836-E278-4207-B18F-2ADDB08A6CA3";
name = Regular;
paths = (
{
closed = 1;
nodes = (
"1807 1195 OFFCURVE",
"1733 1174 OFFCURVE",
"1655 1165 CURVE",
"1735 1213 OFFCURVE",
"1796 1288 OFFCURVE",
"1825 1378 CURVE",
"1750 1334 OFFCURVE",
"1668 1302 OFFCURVE",
"1580 1285 CURVE",
"1510 1360 OFFCURVE",
"1410 1406 OFFCURVE",
"1299 1406 CURVE SMOOTH",
"1086 1406 OFFCURVE",
"914 1234 OFFCURVE",
"914 1021 CURVE SMOOTH",
"914 991 OFFCURVE",
"917 962 OFFCURVE",
"924 934 CURVE",
"604 950 OFFCURVE",
"320 1103 OFFCURVE",
"130 1336 CURVE",
"97 1279 OFFCURVE",
"78 1213 OFFCURVE",
"78 1142 CURVE SMOOTH",
"78 1009 OFFCURVE",
"146 891 OFFCURVE",
"249 822 CURVE",
"186 824 OFFCURVE",
"127 841 OFFCURVE",
"75 870 CURVE",
"75 865 LINE SMOOTH",
"75 679 OFFCURVE",
"208 523 OFFCURVE",
"384 488 CURVE",
"352 479 OFFCURVE",
"318 474 OFFCURVE",
"283 474 CURVE SMOOTH",
"258 474 OFFCURVE",
"234 476 OFFCURVE",
"210 481 CURVE",
"259 328 OFFCURVE",
"401 217 OFFCURVE",
"570 214 CURVE",
"438 110 OFFCURVE",
"272 49 OFFCURVE",
"92 49 CURVE SMOOTH",
"60 49 OFFCURVE",
"30 51 OFFCURVE",
"0 54 CURVE",
"170 -55 OFFCURVE",
"372 -119 OFFCURVE",
"590 -119 CURVE SMOOTH",
"1298 -119 OFFCURVE",
"1686 468 OFFCURVE",
"1686 977 CURVE SMOOTH",
"1686 993 OFFCURVE",
"1685 1010 OFFCURVE",
"1684 1027 CURVE",
"1759 1081 OFFCURVE",
"1825 1149 OFFCURVE",
"1876 1226 CURVE"
);
}
);
width = 1876;
}
);
unicode = 0055;
},
